G04 #@! TF.GenerationSoftware,KiCad,Pcbnew,(5.1.6)-1*
G04 #@! TF.CreationDate,2020-11-21T22:09:05+04:00*
G04 #@! TF.ProjectId,christmas-pcb-badge,63687269-7374-46d6-9173-2d7063622d62,rev?*
G04 #@! TF.SameCoordinates,Original*
G04 #@! TF.FileFunction,Legend,Bot*
G04 #@! TF.FilePolarity,Positive*
%FSLAX46Y46*%
G04 Gerber Fmt 4.6, Leading zero omitted, Abs format (unit mm)*
G04 Created by KiCad (PCBNEW (5.1.6)-1) date 2020-11-21 22:09:05*
%MOMM*%
%LPD*%
G01*
G04 APERTURE LIST*
%ADD10C,0.300000*%
%ADD11C,0.150000*%
%ADD12C,0.010000*%
%ADD13C,0.100000*%
%ADD14C,0.120000*%
G04 APERTURE END LIST*
D10*
X152500000Y-91535714D02*
X152571428Y-91607142D01*
X152785714Y-91678571D01*
X152928571Y-91678571D01*
X153142857Y-91607142D01*
X153285714Y-91464285D01*
X153357142Y-91321428D01*
X153428571Y-91035714D01*
X153428571Y-90821428D01*
X153357142Y-90535714D01*
X153285714Y-90392857D01*
X153142857Y-90250000D01*
X152928571Y-90178571D01*
X152785714Y-90178571D01*
X152571428Y-90250000D01*
X152500000Y-90321428D01*
X151857142Y-91678571D02*
X151857142Y-90178571D01*
X151857142Y-90892857D02*
X151000000Y-90892857D01*
X151000000Y-91678571D02*
X151000000Y-90178571D01*
X149428571Y-91678571D02*
X149928571Y-90964285D01*
X150285714Y-91678571D02*
X150285714Y-90178571D01*
X149714285Y-90178571D01*
X149571428Y-90250000D01*
X149500000Y-90321428D01*
X149428571Y-90464285D01*
X149428571Y-90678571D01*
X149500000Y-90821428D01*
X149571428Y-90892857D01*
X149714285Y-90964285D01*
X150285714Y-90964285D01*
X148785714Y-91678571D02*
X148785714Y-90178571D01*
X148142857Y-91607142D02*
X147928571Y-91678571D01*
X147571428Y-91678571D01*
X147428571Y-91607142D01*
X147357142Y-91535714D01*
X147285714Y-91392857D01*
X147285714Y-91250000D01*
X147357142Y-91107142D01*
X147428571Y-91035714D01*
X147571428Y-90964285D01*
X147857142Y-90892857D01*
X148000000Y-90821428D01*
X148071428Y-90750000D01*
X148142857Y-90607142D01*
X148142857Y-90464285D01*
X148071428Y-90321428D01*
X148000000Y-90250000D01*
X147857142Y-90178571D01*
X147500000Y-90178571D01*
X147285714Y-90250000D01*
X146857142Y-90178571D02*
X146000000Y-90178571D01*
X146428571Y-91678571D02*
X146428571Y-90178571D01*
X145500000Y-91678571D02*
X145500000Y-90178571D01*
X145000000Y-91250000D01*
X144500000Y-90178571D01*
X144500000Y-91678571D01*
X143857142Y-91250000D02*
X143142857Y-91250000D01*
X144000000Y-91678571D02*
X143500000Y-90178571D01*
X143000000Y-91678571D01*
X142571428Y-91607142D02*
X142357142Y-91678571D01*
X142000000Y-91678571D01*
X141857142Y-91607142D01*
X141785714Y-91535714D01*
X141714285Y-91392857D01*
X141714285Y-91250000D01*
X141785714Y-91107142D01*
X141857142Y-91035714D01*
X142000000Y-90964285D01*
X142285714Y-90892857D01*
X142428571Y-90821428D01*
X142500000Y-90750000D01*
X142571428Y-90607142D01*
X142571428Y-90464285D01*
X142500000Y-90321428D01*
X142428571Y-90250000D01*
X142285714Y-90178571D01*
X141928571Y-90178571D01*
X141714285Y-90250000D01*
X139428571Y-90892857D02*
X139214285Y-90964285D01*
X139142857Y-91035714D01*
X139071428Y-91178571D01*
X139071428Y-91392857D01*
X139142857Y-91535714D01*
X139214285Y-91607142D01*
X139357142Y-91678571D01*
X139928571Y-91678571D01*
X139928571Y-90178571D01*
X139428571Y-90178571D01*
X139285714Y-90250000D01*
X139214285Y-90321428D01*
X139142857Y-90464285D01*
X139142857Y-90607142D01*
X139214285Y-90750000D01*
X139285714Y-90821428D01*
X139428571Y-90892857D01*
X139928571Y-90892857D01*
X138500000Y-91250000D02*
X137785714Y-91250000D01*
X138642857Y-91678571D02*
X138142857Y-90178571D01*
X137642857Y-91678571D01*
X137142857Y-91678571D02*
X137142857Y-90178571D01*
X136785714Y-90178571D01*
X136571428Y-90250000D01*
X136428571Y-90392857D01*
X136357142Y-90535714D01*
X136285714Y-90821428D01*
X136285714Y-91035714D01*
X136357142Y-91321428D01*
X136428571Y-91464285D01*
X136571428Y-91607142D01*
X136785714Y-91678571D01*
X137142857Y-91678571D01*
X134857142Y-90250000D02*
X135000000Y-90178571D01*
X135214285Y-90178571D01*
X135428571Y-90250000D01*
X135571428Y-90392857D01*
X135642857Y-90535714D01*
X135714285Y-90821428D01*
X135714285Y-91035714D01*
X135642857Y-91321428D01*
X135571428Y-91464285D01*
X135428571Y-91607142D01*
X135214285Y-91678571D01*
X135071428Y-91678571D01*
X134857142Y-91607142D01*
X134785714Y-91535714D01*
X134785714Y-91035714D01*
X135071428Y-91035714D01*
X134142857Y-90892857D02*
X133642857Y-90892857D01*
X133428571Y-91678571D02*
X134142857Y-91678571D01*
X134142857Y-90178571D01*
X133428571Y-90178571D01*
X130785714Y-91678571D02*
X131285714Y-90964285D01*
X131642857Y-91678571D02*
X131642857Y-90178571D01*
X131071428Y-90178571D01*
X130928571Y-90250000D01*
X130857142Y-90321428D01*
X130785714Y-90464285D01*
X130785714Y-90678571D01*
X130857142Y-90821428D01*
X130928571Y-90892857D01*
X131071428Y-90964285D01*
X131642857Y-90964285D01*
X130142857Y-90892857D02*
X129642857Y-90892857D01*
X129428571Y-91678571D02*
X130142857Y-91678571D01*
X130142857Y-90178571D01*
X129428571Y-90178571D01*
X129000000Y-90178571D02*
X128500000Y-91678571D01*
X128000000Y-90178571D01*
X125571428Y-91678571D02*
X126428571Y-91678571D01*
X126000000Y-91678571D02*
X126000000Y-90178571D01*
X126142857Y-90392857D01*
X126285714Y-90535714D01*
X126428571Y-90607142D01*
D11*
X149500000Y-87452380D02*
X149500000Y-86452380D01*
X149071428Y-87452380D02*
X149071428Y-86928571D01*
X149119047Y-86833333D01*
X149214285Y-86785714D01*
X149357142Y-86785714D01*
X149452380Y-86833333D01*
X149500000Y-86880952D01*
X148738095Y-86785714D02*
X148357142Y-86785714D01*
X148595238Y-86452380D02*
X148595238Y-87309523D01*
X148547619Y-87404761D01*
X148452380Y-87452380D01*
X148357142Y-87452380D01*
X148166666Y-86785714D02*
X147785714Y-86785714D01*
X148023809Y-86452380D02*
X148023809Y-87309523D01*
X147976190Y-87404761D01*
X147880952Y-87452380D01*
X147785714Y-87452380D01*
X147452380Y-86785714D02*
X147452380Y-87785714D01*
X147452380Y-86833333D02*
X147357142Y-86785714D01*
X147166666Y-86785714D01*
X147071428Y-86833333D01*
X147023809Y-86880952D01*
X146976190Y-86976190D01*
X146976190Y-87261904D01*
X147023809Y-87357142D01*
X147071428Y-87404761D01*
X147166666Y-87452380D01*
X147357142Y-87452380D01*
X147452380Y-87404761D01*
X146595238Y-87404761D02*
X146500000Y-87452380D01*
X146309523Y-87452380D01*
X146214285Y-87404761D01*
X146166666Y-87309523D01*
X146166666Y-87261904D01*
X146214285Y-87166666D01*
X146309523Y-87119047D01*
X146452380Y-87119047D01*
X146547619Y-87071428D01*
X146595238Y-86976190D01*
X146595238Y-86928571D01*
X146547619Y-86833333D01*
X146452380Y-86785714D01*
X146309523Y-86785714D01*
X146214285Y-86833333D01*
X145738095Y-87357142D02*
X145690476Y-87404761D01*
X145738095Y-87452380D01*
X145785714Y-87404761D01*
X145738095Y-87357142D01*
X145738095Y-87452380D01*
X145738095Y-86833333D02*
X145690476Y-86880952D01*
X145738095Y-86928571D01*
X145785714Y-86880952D01*
X145738095Y-86833333D01*
X145738095Y-86928571D01*
X144547619Y-86404761D02*
X145404761Y-87690476D01*
X143500000Y-86404761D02*
X144357142Y-87690476D01*
X143309523Y-86785714D02*
X142928571Y-86785714D01*
X143166666Y-86452380D02*
X143166666Y-87309523D01*
X143119047Y-87404761D01*
X143023809Y-87452380D01*
X142928571Y-87452380D01*
X142214285Y-87404761D02*
X142309523Y-87452380D01*
X142500000Y-87452380D01*
X142595238Y-87404761D01*
X142642857Y-87309523D01*
X142642857Y-86928571D01*
X142595238Y-86833333D01*
X142500000Y-86785714D01*
X142309523Y-86785714D01*
X142214285Y-86833333D01*
X142166666Y-86928571D01*
X142166666Y-87023809D01*
X142642857Y-87119047D01*
X141309523Y-87404761D02*
X141404761Y-87452380D01*
X141595238Y-87452380D01*
X141690476Y-87404761D01*
X141738095Y-87357142D01*
X141785714Y-87261904D01*
X141785714Y-86976190D01*
X141738095Y-86880952D01*
X141690476Y-86833333D01*
X141595238Y-86785714D01*
X141404761Y-86785714D01*
X141309523Y-86833333D01*
X140880952Y-87452380D02*
X140880952Y-86452380D01*
X140785714Y-87071428D02*
X140500000Y-87452380D01*
X140500000Y-86785714D02*
X140880952Y-87166666D01*
X140071428Y-86785714D02*
X140071428Y-87452380D01*
X140071428Y-86880952D02*
X140023809Y-86833333D01*
X139928571Y-86785714D01*
X139785714Y-86785714D01*
X139690476Y-86833333D01*
X139642857Y-86928571D01*
X139642857Y-87452380D01*
X139023809Y-87452380D02*
X139119047Y-87404761D01*
X139166666Y-87357142D01*
X139214285Y-87261904D01*
X139214285Y-86976190D01*
X139166666Y-86880952D01*
X139119047Y-86833333D01*
X139023809Y-86785714D01*
X138880952Y-86785714D01*
X138785714Y-86833333D01*
X138738095Y-86880952D01*
X138690476Y-86976190D01*
X138690476Y-87261904D01*
X138738095Y-87357142D01*
X138785714Y-87404761D01*
X138880952Y-87452380D01*
X139023809Y-87452380D01*
X138119047Y-87452380D02*
X138214285Y-87404761D01*
X138261904Y-87309523D01*
X138261904Y-86452380D01*
X137595238Y-87452380D02*
X137690476Y-87404761D01*
X137738095Y-87357142D01*
X137785714Y-87261904D01*
X137785714Y-86976190D01*
X137738095Y-86880952D01*
X137690476Y-86833333D01*
X137595238Y-86785714D01*
X137452380Y-86785714D01*
X137357142Y-86833333D01*
X137309523Y-86880952D01*
X137261904Y-86976190D01*
X137261904Y-87261904D01*
X137309523Y-87357142D01*
X137357142Y-87404761D01*
X137452380Y-87452380D01*
X137595238Y-87452380D01*
X136404761Y-86785714D02*
X136404761Y-87595238D01*
X136452380Y-87690476D01*
X136500000Y-87738095D01*
X136595238Y-87785714D01*
X136738095Y-87785714D01*
X136833333Y-87738095D01*
X136404761Y-87404761D02*
X136500000Y-87452380D01*
X136690476Y-87452380D01*
X136785714Y-87404761D01*
X136833333Y-87357142D01*
X136880952Y-87261904D01*
X136880952Y-86976190D01*
X136833333Y-86880952D01*
X136785714Y-86833333D01*
X136690476Y-86785714D01*
X136500000Y-86785714D01*
X136404761Y-86833333D01*
X135500000Y-86785714D02*
X135500000Y-87595238D01*
X135547619Y-87690476D01*
X135595238Y-87738095D01*
X135690476Y-87785714D01*
X135833333Y-87785714D01*
X135928571Y-87738095D01*
X135500000Y-87404761D02*
X135595238Y-87452380D01*
X135785714Y-87452380D01*
X135880952Y-87404761D01*
X135928571Y-87357142D01*
X135976190Y-87261904D01*
X135976190Y-86976190D01*
X135928571Y-86880952D01*
X135880952Y-86833333D01*
X135785714Y-86785714D01*
X135595238Y-86785714D01*
X135500000Y-86833333D01*
X135023809Y-87357142D02*
X134976190Y-87404761D01*
X135023809Y-87452380D01*
X135071428Y-87404761D01*
X135023809Y-87357142D01*
X135023809Y-87452380D01*
X134642857Y-86785714D02*
X134452380Y-87452380D01*
X134261904Y-86976190D01*
X134071428Y-87452380D01*
X133880952Y-86785714D01*
X133119047Y-87404761D02*
X133214285Y-87452380D01*
X133404761Y-87452380D01*
X133500000Y-87404761D01*
X133547619Y-87309523D01*
X133547619Y-86928571D01*
X133500000Y-86833333D01*
X133404761Y-86785714D01*
X133214285Y-86785714D01*
X133119047Y-86833333D01*
X133071428Y-86928571D01*
X133071428Y-87023809D01*
X133547619Y-87119047D01*
X132642857Y-87452380D02*
X132642857Y-86452380D01*
X132642857Y-86833333D02*
X132547619Y-86785714D01*
X132357142Y-86785714D01*
X132261904Y-86833333D01*
X132214285Y-86880952D01*
X132166666Y-86976190D01*
X132166666Y-87261904D01*
X132214285Y-87357142D01*
X132261904Y-87404761D01*
X132357142Y-87452380D01*
X132547619Y-87452380D01*
X132642857Y-87404761D01*
X131785714Y-87404761D02*
X131690476Y-87452380D01*
X131500000Y-87452380D01*
X131404761Y-87404761D01*
X131357142Y-87309523D01*
X131357142Y-87261904D01*
X131404761Y-87166666D01*
X131500000Y-87119047D01*
X131642857Y-87119047D01*
X131738095Y-87071428D01*
X131785714Y-86976190D01*
X131785714Y-86928571D01*
X131738095Y-86833333D01*
X131642857Y-86785714D01*
X131500000Y-86785714D01*
X131404761Y-86833333D01*
X130928571Y-87452380D02*
X130928571Y-86785714D01*
X130928571Y-86452380D02*
X130976190Y-86500000D01*
X130928571Y-86547619D01*
X130880952Y-86500000D01*
X130928571Y-86452380D01*
X130928571Y-86547619D01*
X130595238Y-86785714D02*
X130214285Y-86785714D01*
X130452380Y-86452380D02*
X130452380Y-87309523D01*
X130404761Y-87404761D01*
X130309523Y-87452380D01*
X130214285Y-87452380D01*
X129500000Y-87404761D02*
X129595238Y-87452380D01*
X129785714Y-87452380D01*
X129880952Y-87404761D01*
X129928571Y-87309523D01*
X129928571Y-86928571D01*
X129880952Y-86833333D01*
X129785714Y-86785714D01*
X129595238Y-86785714D01*
X129500000Y-86833333D01*
X129452380Y-86928571D01*
X129452380Y-87023809D01*
X129928571Y-87119047D01*
D12*
G04 #@! TO.C,REF\u002A\u002A*
G36*
X123896090Y-96242348D02*
G01*
X123817546Y-96242778D01*
X123760702Y-96243942D01*
X123721895Y-96246207D01*
X123697462Y-96249940D01*
X123683738Y-96255506D01*
X123677060Y-96263273D01*
X123673764Y-96273605D01*
X123673444Y-96274943D01*
X123668438Y-96299079D01*
X123659171Y-96346701D01*
X123646608Y-96412741D01*
X123631713Y-96492128D01*
X123615449Y-96579796D01*
X123614881Y-96582875D01*
X123598590Y-96668789D01*
X123583348Y-96744696D01*
X123570139Y-96806045D01*
X123559946Y-96848282D01*
X123553752Y-96866855D01*
X123553457Y-96867184D01*
X123535212Y-96876253D01*
X123497595Y-96891367D01*
X123448729Y-96909262D01*
X123448457Y-96909358D01*
X123386907Y-96932493D01*
X123314343Y-96961965D01*
X123245943Y-96991597D01*
X123242706Y-96993062D01*
X123131298Y-97043626D01*
X122884601Y-96875160D01*
X122808923Y-96823803D01*
X122740369Y-96777889D01*
X122682912Y-96740030D01*
X122640524Y-96712837D01*
X122617175Y-96698921D01*
X122614958Y-96697889D01*
X122597990Y-96702484D01*
X122566299Y-96724655D01*
X122518648Y-96765447D01*
X122453802Y-96825905D01*
X122387603Y-96890227D01*
X122323786Y-96953612D01*
X122266671Y-97011451D01*
X122219695Y-97060175D01*
X122186297Y-97096210D01*
X122169915Y-97115984D01*
X122169306Y-97117002D01*
X122167495Y-97130572D01*
X122174317Y-97152733D01*
X122191460Y-97186478D01*
X122220607Y-97234800D01*
X122263445Y-97300692D01*
X122320552Y-97385517D01*
X122371234Y-97460177D01*
X122416539Y-97527140D01*
X122453850Y-97582516D01*
X122480548Y-97622420D01*
X122494015Y-97642962D01*
X122494863Y-97644356D01*
X122493219Y-97664038D01*
X122480755Y-97702293D01*
X122459952Y-97751889D01*
X122452538Y-97767728D01*
X122420186Y-97838290D01*
X122385672Y-97918353D01*
X122357635Y-97987629D01*
X122337432Y-98039045D01*
X122321385Y-98078119D01*
X122312112Y-98098541D01*
X122310959Y-98100114D01*
X122293904Y-98102721D01*
X122253702Y-98109863D01*
X122195698Y-98120523D01*
X122125237Y-98133685D01*
X122047665Y-98148333D01*
X121968328Y-98163449D01*
X121892569Y-98178018D01*
X121825736Y-98191022D01*
X121773172Y-98201445D01*
X121740224Y-98208270D01*
X121732143Y-98210199D01*
X121723795Y-98214962D01*
X121717494Y-98225718D01*
X121712955Y-98246098D01*
X121709896Y-98279734D01*
X121708033Y-98330255D01*
X121707082Y-98401292D01*
X121706760Y-98496476D01*
X121706743Y-98535492D01*
X121706743Y-98852799D01*
X121782943Y-98867839D01*
X121825337Y-98875995D01*
X121888600Y-98887899D01*
X121965038Y-98902116D01*
X122046957Y-98917210D01*
X122069600Y-98921355D01*
X122145194Y-98936053D01*
X122211047Y-98950505D01*
X122261634Y-98963375D01*
X122291426Y-98973322D01*
X122296388Y-98976287D01*
X122308574Y-98997283D01*
X122326047Y-99037967D01*
X122345423Y-99090322D01*
X122349266Y-99101600D01*
X122374661Y-99171523D01*
X122406183Y-99250418D01*
X122437031Y-99321266D01*
X122437183Y-99321595D01*
X122488553Y-99432733D01*
X122319601Y-99681253D01*
X122150648Y-99929772D01*
X122367571Y-100147058D01*
X122433181Y-100211726D01*
X122493021Y-100268733D01*
X122543733Y-100315033D01*
X122581954Y-100347584D01*
X122604325Y-100363343D01*
X122607534Y-100364343D01*
X122626374Y-100356469D01*
X122664820Y-100334578D01*
X122718670Y-100301267D01*
X122783724Y-100259131D01*
X122854060Y-100211943D01*
X122925445Y-100163810D01*
X122989092Y-100121928D01*
X123040959Y-100088871D01*
X123077005Y-100067218D01*
X123093133Y-100059543D01*
X123112811Y-100066037D01*
X123150125Y-100083150D01*
X123197379Y-100107326D01*
X123202388Y-100110013D01*
X123266023Y-100141927D01*
X123309659Y-100157579D01*
X123336798Y-100157745D01*
X123350943Y-100143204D01*
X123351025Y-100143000D01*
X123358095Y-100125779D01*
X123374958Y-100084899D01*
X123400305Y-100023525D01*
X123432829Y-99944819D01*
X123471222Y-99851947D01*
X123514178Y-99748072D01*
X123555778Y-99647502D01*
X123601496Y-99536516D01*
X123643474Y-99433703D01*
X123680452Y-99342215D01*
X123711173Y-99265201D01*
X123734378Y-99205815D01*
X123748810Y-99167209D01*
X123753257Y-99152800D01*
X123742104Y-99136272D01*
X123712931Y-99109930D01*
X123674029Y-99080887D01*
X123563243Y-98989039D01*
X123476649Y-98883759D01*
X123415284Y-98767266D01*
X123380185Y-98641776D01*
X123372392Y-98509507D01*
X123378057Y-98448457D01*
X123408922Y-98321795D01*
X123462080Y-98209941D01*
X123534233Y-98114001D01*
X123622083Y-98035076D01*
X123722335Y-97974270D01*
X123831690Y-97932687D01*
X123946853Y-97911428D01*
X124064525Y-97911599D01*
X124181410Y-97934301D01*
X124294211Y-97980638D01*
X124399631Y-98051713D01*
X124443632Y-98091911D01*
X124528021Y-98195129D01*
X124586778Y-98307925D01*
X124620296Y-98427010D01*
X124628965Y-98549095D01*
X124613177Y-98670893D01*
X124573322Y-98789116D01*
X124509793Y-98900475D01*
X124422979Y-99001684D01*
X124325971Y-99080887D01*
X124285563Y-99111162D01*
X124257018Y-99137219D01*
X124246743Y-99152825D01*
X124252123Y-99169843D01*
X124267425Y-99210500D01*
X124291388Y-99271642D01*
X124322756Y-99350119D01*
X124360268Y-99442780D01*
X124402667Y-99546472D01*
X124444337Y-99647526D01*
X124490310Y-99758607D01*
X124532893Y-99861541D01*
X124570779Y-99953165D01*
X124602660Y-100030316D01*
X124627229Y-100089831D01*
X124643180Y-100128544D01*
X124649090Y-100143000D01*
X124663052Y-100157685D01*
X124690060Y-100157642D01*
X124733587Y-100142099D01*
X124797110Y-100110284D01*
X124797612Y-100110013D01*
X124845440Y-100085323D01*
X124884103Y-100067338D01*
X124905905Y-100059614D01*
X124906867Y-100059543D01*
X124923279Y-100067378D01*
X124959513Y-100089165D01*
X125011526Y-100122328D01*
X125075275Y-100164291D01*
X125145940Y-100211943D01*
X125217884Y-100260191D01*
X125282726Y-100302151D01*
X125336265Y-100335227D01*
X125374303Y-100356821D01*
X125392467Y-100364343D01*
X125409192Y-100354457D01*
X125442820Y-100326826D01*
X125489990Y-100284495D01*
X125547342Y-100230505D01*
X125611516Y-100167899D01*
X125632503Y-100146983D01*
X125849501Y-99929623D01*
X125684332Y-99687220D01*
X125634136Y-99612781D01*
X125590081Y-99545972D01*
X125554638Y-99490665D01*
X125530281Y-99450729D01*
X125519478Y-99430036D01*
X125519162Y-99428563D01*
X125524857Y-99409058D01*
X125540174Y-99369822D01*
X125562463Y-99317430D01*
X125578107Y-99282355D01*
X125607359Y-99215201D01*
X125634906Y-99147358D01*
X125656263Y-99090034D01*
X125662065Y-99072572D01*
X125678548Y-99025938D01*
X125694660Y-98989905D01*
X125703510Y-98976287D01*
X125723040Y-98967952D01*
X125765666Y-98956137D01*
X125825855Y-98942181D01*
X125898078Y-98927422D01*
X125930400Y-98921355D01*
X126012478Y-98906273D01*
X126091205Y-98891669D01*
X126158891Y-98878980D01*
X126207840Y-98869642D01*
X126217057Y-98867839D01*
X126293257Y-98852799D01*
X126293257Y-98535492D01*
X126293086Y-98431154D01*
X126292384Y-98352213D01*
X126290866Y-98295038D01*
X126288251Y-98255999D01*
X126284254Y-98231465D01*
X126278591Y-98217805D01*
X126270980Y-98211389D01*
X126267857Y-98210199D01*
X126249022Y-98205980D01*
X126207412Y-98197562D01*
X126148370Y-98185961D01*
X126077243Y-98172195D01*
X125999375Y-98157280D01*
X125920113Y-98142232D01*
X125844802Y-98128069D01*
X125778787Y-98115806D01*
X125727413Y-98106461D01*
X125696025Y-98101050D01*
X125689041Y-98100114D01*
X125682715Y-98087596D01*
X125668710Y-98054246D01*
X125649645Y-98006377D01*
X125642366Y-97987629D01*
X125613004Y-97915195D01*
X125578429Y-97835170D01*
X125547463Y-97767728D01*
X125524677Y-97716159D01*
X125509518Y-97673785D01*
X125504458Y-97647834D01*
X125505264Y-97644356D01*
X125515959Y-97627936D01*
X125540380Y-97591417D01*
X125575905Y-97538687D01*
X125619913Y-97473635D01*
X125669783Y-97400151D01*
X125679644Y-97385645D01*
X125737508Y-97299704D01*
X125780044Y-97234261D01*
X125808946Y-97186304D01*
X125825910Y-97152820D01*
X125832633Y-97130795D01*
X125830810Y-97117217D01*
X125830764Y-97117131D01*
X125816414Y-97099297D01*
X125784677Y-97064817D01*
X125738990Y-97017268D01*
X125682796Y-96960222D01*
X125619532Y-96897255D01*
X125612398Y-96890227D01*
X125532670Y-96813020D01*
X125471143Y-96756330D01*
X125426579Y-96719110D01*
X125397743Y-96700315D01*
X125385042Y-96697889D01*
X125366506Y-96708471D01*
X125328039Y-96732916D01*
X125273614Y-96768612D01*
X125207202Y-96812947D01*
X125132775Y-96863311D01*
X125115399Y-96875160D01*
X124868703Y-97043626D01*
X124757294Y-96993062D01*
X124689543Y-96963595D01*
X124616817Y-96933959D01*
X124554297Y-96910330D01*
X124551543Y-96909358D01*
X124502640Y-96891457D01*
X124464943Y-96876320D01*
X124446575Y-96867210D01*
X124446544Y-96867184D01*
X124440715Y-96850717D01*
X124430808Y-96810219D01*
X124417805Y-96750242D01*
X124402691Y-96675340D01*
X124386448Y-96590064D01*
X124385119Y-96582875D01*
X124368825Y-96495014D01*
X124353867Y-96415260D01*
X124341209Y-96348681D01*
X124331814Y-96300347D01*
X124326646Y-96275325D01*
X124326556Y-96274943D01*
X124323411Y-96264299D01*
X124317296Y-96256262D01*
X124304547Y-96250467D01*
X124281500Y-96246547D01*
X124244491Y-96244135D01*
X124189856Y-96242865D01*
X124113933Y-96242371D01*
X124013056Y-96242286D01*
X124000000Y-96242286D01*
X123896090Y-96242348D01*
G37*
X123896090Y-96242348D02*
X123817546Y-96242778D01*
X123760702Y-96243942D01*
X123721895Y-96246207D01*
X123697462Y-96249940D01*
X123683738Y-96255506D01*
X123677060Y-96263273D01*
X123673764Y-96273605D01*
X123673444Y-96274943D01*
X123668438Y-96299079D01*
X123659171Y-96346701D01*
X123646608Y-96412741D01*
X123631713Y-96492128D01*
X123615449Y-96579796D01*
X123614881Y-96582875D01*
X123598590Y-96668789D01*
X123583348Y-96744696D01*
X123570139Y-96806045D01*
X123559946Y-96848282D01*
X123553752Y-96866855D01*
X123553457Y-96867184D01*
X123535212Y-96876253D01*
X123497595Y-96891367D01*
X123448729Y-96909262D01*
X123448457Y-96909358D01*
X123386907Y-96932493D01*
X123314343Y-96961965D01*
X123245943Y-96991597D01*
X123242706Y-96993062D01*
X123131298Y-97043626D01*
X122884601Y-96875160D01*
X122808923Y-96823803D01*
X122740369Y-96777889D01*
X122682912Y-96740030D01*
X122640524Y-96712837D01*
X122617175Y-96698921D01*
X122614958Y-96697889D01*
X122597990Y-96702484D01*
X122566299Y-96724655D01*
X122518648Y-96765447D01*
X122453802Y-96825905D01*
X122387603Y-96890227D01*
X122323786Y-96953612D01*
X122266671Y-97011451D01*
X122219695Y-97060175D01*
X122186297Y-97096210D01*
X122169915Y-97115984D01*
X122169306Y-97117002D01*
X122167495Y-97130572D01*
X122174317Y-97152733D01*
X122191460Y-97186478D01*
X122220607Y-97234800D01*
X122263445Y-97300692D01*
X122320552Y-97385517D01*
X122371234Y-97460177D01*
X122416539Y-97527140D01*
X122453850Y-97582516D01*
X122480548Y-97622420D01*
X122494015Y-97642962D01*
X122494863Y-97644356D01*
X122493219Y-97664038D01*
X122480755Y-97702293D01*
X122459952Y-97751889D01*
X122452538Y-97767728D01*
X122420186Y-97838290D01*
X122385672Y-97918353D01*
X122357635Y-97987629D01*
X122337432Y-98039045D01*
X122321385Y-98078119D01*
X122312112Y-98098541D01*
X122310959Y-98100114D01*
X122293904Y-98102721D01*
X122253702Y-98109863D01*
X122195698Y-98120523D01*
X122125237Y-98133685D01*
X122047665Y-98148333D01*
X121968328Y-98163449D01*
X121892569Y-98178018D01*
X121825736Y-98191022D01*
X121773172Y-98201445D01*
X121740224Y-98208270D01*
X121732143Y-98210199D01*
X121723795Y-98214962D01*
X121717494Y-98225718D01*
X121712955Y-98246098D01*
X121709896Y-98279734D01*
X121708033Y-98330255D01*
X121707082Y-98401292D01*
X121706760Y-98496476D01*
X121706743Y-98535492D01*
X121706743Y-98852799D01*
X121782943Y-98867839D01*
X121825337Y-98875995D01*
X121888600Y-98887899D01*
X121965038Y-98902116D01*
X122046957Y-98917210D01*
X122069600Y-98921355D01*
X122145194Y-98936053D01*
X122211047Y-98950505D01*
X122261634Y-98963375D01*
X122291426Y-98973322D01*
X122296388Y-98976287D01*
X122308574Y-98997283D01*
X122326047Y-99037967D01*
X122345423Y-99090322D01*
X122349266Y-99101600D01*
X122374661Y-99171523D01*
X122406183Y-99250418D01*
X122437031Y-99321266D01*
X122437183Y-99321595D01*
X122488553Y-99432733D01*
X122319601Y-99681253D01*
X122150648Y-99929772D01*
X122367571Y-100147058D01*
X122433181Y-100211726D01*
X122493021Y-100268733D01*
X122543733Y-100315033D01*
X122581954Y-100347584D01*
X122604325Y-100363343D01*
X122607534Y-100364343D01*
X122626374Y-100356469D01*
X122664820Y-100334578D01*
X122718670Y-100301267D01*
X122783724Y-100259131D01*
X122854060Y-100211943D01*
X122925445Y-100163810D01*
X122989092Y-100121928D01*
X123040959Y-100088871D01*
X123077005Y-100067218D01*
X123093133Y-100059543D01*
X123112811Y-100066037D01*
X123150125Y-100083150D01*
X123197379Y-100107326D01*
X123202388Y-100110013D01*
X123266023Y-100141927D01*
X123309659Y-100157579D01*
X123336798Y-100157745D01*
X123350943Y-100143204D01*
X123351025Y-100143000D01*
X123358095Y-100125779D01*
X123374958Y-100084899D01*
X123400305Y-100023525D01*
X123432829Y-99944819D01*
X123471222Y-99851947D01*
X123514178Y-99748072D01*
X123555778Y-99647502D01*
X123601496Y-99536516D01*
X123643474Y-99433703D01*
X123680452Y-99342215D01*
X123711173Y-99265201D01*
X123734378Y-99205815D01*
X123748810Y-99167209D01*
X123753257Y-99152800D01*
X123742104Y-99136272D01*
X123712931Y-99109930D01*
X123674029Y-99080887D01*
X123563243Y-98989039D01*
X123476649Y-98883759D01*
X123415284Y-98767266D01*
X123380185Y-98641776D01*
X123372392Y-98509507D01*
X123378057Y-98448457D01*
X123408922Y-98321795D01*
X123462080Y-98209941D01*
X123534233Y-98114001D01*
X123622083Y-98035076D01*
X123722335Y-97974270D01*
X123831690Y-97932687D01*
X123946853Y-97911428D01*
X124064525Y-97911599D01*
X124181410Y-97934301D01*
X124294211Y-97980638D01*
X124399631Y-98051713D01*
X124443632Y-98091911D01*
X124528021Y-98195129D01*
X124586778Y-98307925D01*
X124620296Y-98427010D01*
X124628965Y-98549095D01*
X124613177Y-98670893D01*
X124573322Y-98789116D01*
X124509793Y-98900475D01*
X124422979Y-99001684D01*
X124325971Y-99080887D01*
X124285563Y-99111162D01*
X124257018Y-99137219D01*
X124246743Y-99152825D01*
X124252123Y-99169843D01*
X124267425Y-99210500D01*
X124291388Y-99271642D01*
X124322756Y-99350119D01*
X124360268Y-99442780D01*
X124402667Y-99546472D01*
X124444337Y-99647526D01*
X124490310Y-99758607D01*
X124532893Y-99861541D01*
X124570779Y-99953165D01*
X124602660Y-100030316D01*
X124627229Y-100089831D01*
X124643180Y-100128544D01*
X124649090Y-100143000D01*
X124663052Y-100157685D01*
X124690060Y-100157642D01*
X124733587Y-100142099D01*
X124797110Y-100110284D01*
X124797612Y-100110013D01*
X124845440Y-100085323D01*
X124884103Y-100067338D01*
X124905905Y-100059614D01*
X124906867Y-100059543D01*
X124923279Y-100067378D01*
X124959513Y-100089165D01*
X125011526Y-100122328D01*
X125075275Y-100164291D01*
X125145940Y-100211943D01*
X125217884Y-100260191D01*
X125282726Y-100302151D01*
X125336265Y-100335227D01*
X125374303Y-100356821D01*
X125392467Y-100364343D01*
X125409192Y-100354457D01*
X125442820Y-100326826D01*
X125489990Y-100284495D01*
X125547342Y-100230505D01*
X125611516Y-100167899D01*
X125632503Y-100146983D01*
X125849501Y-99929623D01*
X125684332Y-99687220D01*
X125634136Y-99612781D01*
X125590081Y-99545972D01*
X125554638Y-99490665D01*
X125530281Y-99450729D01*
X125519478Y-99430036D01*
X125519162Y-99428563D01*
X125524857Y-99409058D01*
X125540174Y-99369822D01*
X125562463Y-99317430D01*
X125578107Y-99282355D01*
X125607359Y-99215201D01*
X125634906Y-99147358D01*
X125656263Y-99090034D01*
X125662065Y-99072572D01*
X125678548Y-99025938D01*
X125694660Y-98989905D01*
X125703510Y-98976287D01*
X125723040Y-98967952D01*
X125765666Y-98956137D01*
X125825855Y-98942181D01*
X125898078Y-98927422D01*
X125930400Y-98921355D01*
X126012478Y-98906273D01*
X126091205Y-98891669D01*
X126158891Y-98878980D01*
X126207840Y-98869642D01*
X126217057Y-98867839D01*
X126293257Y-98852799D01*
X126293257Y-98535492D01*
X126293086Y-98431154D01*
X126292384Y-98352213D01*
X126290866Y-98295038D01*
X126288251Y-98255999D01*
X126284254Y-98231465D01*
X126278591Y-98217805D01*
X126270980Y-98211389D01*
X126267857Y-98210199D01*
X126249022Y-98205980D01*
X126207412Y-98197562D01*
X126148370Y-98185961D01*
X126077243Y-98172195D01*
X125999375Y-98157280D01*
X125920113Y-98142232D01*
X125844802Y-98128069D01*
X125778787Y-98115806D01*
X125727413Y-98106461D01*
X125696025Y-98101050D01*
X125689041Y-98100114D01*
X125682715Y-98087596D01*
X125668710Y-98054246D01*
X125649645Y-98006377D01*
X125642366Y-97987629D01*
X125613004Y-97915195D01*
X125578429Y-97835170D01*
X125547463Y-97767728D01*
X125524677Y-97716159D01*
X125509518Y-97673785D01*
X125504458Y-97647834D01*
X125505264Y-97644356D01*
X125515959Y-97627936D01*
X125540380Y-97591417D01*
X125575905Y-97538687D01*
X125619913Y-97473635D01*
X125669783Y-97400151D01*
X125679644Y-97385645D01*
X125737508Y-97299704D01*
X125780044Y-97234261D01*
X125808946Y-97186304D01*
X125825910Y-97152820D01*
X125832633Y-97130795D01*
X125830810Y-97117217D01*
X125830764Y-97117131D01*
X125816414Y-97099297D01*
X125784677Y-97064817D01*
X125738990Y-97017268D01*
X125682796Y-96960222D01*
X125619532Y-96897255D01*
X125612398Y-96890227D01*
X125532670Y-96813020D01*
X125471143Y-96756330D01*
X125426579Y-96719110D01*
X125397743Y-96700315D01*
X125385042Y-96697889D01*
X125366506Y-96708471D01*
X125328039Y-96732916D01*
X125273614Y-96768612D01*
X125207202Y-96812947D01*
X125132775Y-96863311D01*
X125115399Y-96875160D01*
X124868703Y-97043626D01*
X124757294Y-96993062D01*
X124689543Y-96963595D01*
X124616817Y-96933959D01*
X124554297Y-96910330D01*
X124551543Y-96909358D01*
X124502640Y-96891457D01*
X124464943Y-96876320D01*
X124446575Y-96867210D01*
X124446544Y-96867184D01*
X124440715Y-96850717D01*
X124430808Y-96810219D01*
X124417805Y-96750242D01*
X124402691Y-96675340D01*
X124386448Y-96590064D01*
X124385119Y-96582875D01*
X124368825Y-96495014D01*
X124353867Y-96415260D01*
X124341209Y-96348681D01*
X124331814Y-96300347D01*
X124326646Y-96275325D01*
X124326556Y-96274943D01*
X124323411Y-96264299D01*
X124317296Y-96256262D01*
X124304547Y-96250467D01*
X124281500Y-96246547D01*
X124244491Y-96244135D01*
X124189856Y-96242865D01*
X124113933Y-96242371D01*
X124013056Y-96242286D01*
X124000000Y-96242286D01*
X123896090Y-96242348D01*
G36*
X120846405Y-100966966D02*
G01*
X120788979Y-101004497D01*
X120761281Y-101038096D01*
X120739338Y-101099064D01*
X120737595Y-101147308D01*
X120741543Y-101211816D01*
X120890314Y-101276934D01*
X120962651Y-101310202D01*
X121009916Y-101336964D01*
X121034493Y-101360144D01*
X121038763Y-101382667D01*
X121025111Y-101407455D01*
X121010057Y-101423886D01*
X120966254Y-101450235D01*
X120918611Y-101452081D01*
X120874855Y-101431546D01*
X120842711Y-101390752D01*
X120836962Y-101376347D01*
X120809424Y-101331356D01*
X120777742Y-101312182D01*
X120734286Y-101295779D01*
X120734286Y-101357966D01*
X120738128Y-101400283D01*
X120753177Y-101435969D01*
X120784720Y-101476943D01*
X120789408Y-101482267D01*
X120824494Y-101518720D01*
X120854653Y-101538283D01*
X120892385Y-101547283D01*
X120923665Y-101550230D01*
X120979615Y-101550965D01*
X121019445Y-101541660D01*
X121044292Y-101527846D01*
X121083344Y-101497467D01*
X121110375Y-101464613D01*
X121127483Y-101423294D01*
X121136762Y-101367521D01*
X121140307Y-101291305D01*
X121140590Y-101252622D01*
X121139628Y-101206247D01*
X121051993Y-101206247D01*
X121050977Y-101231126D01*
X121048444Y-101235200D01*
X121031726Y-101229665D01*
X120995751Y-101215017D01*
X120947669Y-101194190D01*
X120937614Y-101189714D01*
X120876848Y-101158814D01*
X120843368Y-101131657D01*
X120836010Y-101106220D01*
X120853609Y-101080481D01*
X120868144Y-101069109D01*
X120920590Y-101046364D01*
X120969678Y-101050122D01*
X121010773Y-101077884D01*
X121039242Y-101127152D01*
X121048369Y-101166257D01*
X121051993Y-101206247D01*
X121139628Y-101206247D01*
X121138715Y-101162249D01*
X121131804Y-101095384D01*
X121118116Y-101046695D01*
X121095904Y-101010849D01*
X121063426Y-100982513D01*
X121049267Y-100973355D01*
X120984947Y-100949507D01*
X120914527Y-100948006D01*
X120846405Y-100966966D01*
G37*
X120846405Y-100966966D02*
X120788979Y-101004497D01*
X120761281Y-101038096D01*
X120739338Y-101099064D01*
X120737595Y-101147308D01*
X120741543Y-101211816D01*
X120890314Y-101276934D01*
X120962651Y-101310202D01*
X121009916Y-101336964D01*
X121034493Y-101360144D01*
X121038763Y-101382667D01*
X121025111Y-101407455D01*
X121010057Y-101423886D01*
X120966254Y-101450235D01*
X120918611Y-101452081D01*
X120874855Y-101431546D01*
X120842711Y-101390752D01*
X120836962Y-101376347D01*
X120809424Y-101331356D01*
X120777742Y-101312182D01*
X120734286Y-101295779D01*
X120734286Y-101357966D01*
X120738128Y-101400283D01*
X120753177Y-101435969D01*
X120784720Y-101476943D01*
X120789408Y-101482267D01*
X120824494Y-101518720D01*
X120854653Y-101538283D01*
X120892385Y-101547283D01*
X120923665Y-101550230D01*
X120979615Y-101550965D01*
X121019445Y-101541660D01*
X121044292Y-101527846D01*
X121083344Y-101497467D01*
X121110375Y-101464613D01*
X121127483Y-101423294D01*
X121136762Y-101367521D01*
X121140307Y-101291305D01*
X121140590Y-101252622D01*
X121139628Y-101206247D01*
X121051993Y-101206247D01*
X121050977Y-101231126D01*
X121048444Y-101235200D01*
X121031726Y-101229665D01*
X120995751Y-101215017D01*
X120947669Y-101194190D01*
X120937614Y-101189714D01*
X120876848Y-101158814D01*
X120843368Y-101131657D01*
X120836010Y-101106220D01*
X120853609Y-101080481D01*
X120868144Y-101069109D01*
X120920590Y-101046364D01*
X120969678Y-101050122D01*
X121010773Y-101077884D01*
X121039242Y-101127152D01*
X121048369Y-101166257D01*
X121051993Y-101206247D01*
X121139628Y-101206247D01*
X121138715Y-101162249D01*
X121131804Y-101095384D01*
X121118116Y-101046695D01*
X121095904Y-101010849D01*
X121063426Y-100982513D01*
X121049267Y-100973355D01*
X120984947Y-100949507D01*
X120914527Y-100948006D01*
X120846405Y-100966966D01*
G36*
X121347400Y-100958752D02*
G01*
X121330052Y-100966334D01*
X121288644Y-100999128D01*
X121253235Y-101046547D01*
X121231336Y-101097151D01*
X121227771Y-101122098D01*
X121239721Y-101156927D01*
X121265933Y-101175357D01*
X121294036Y-101186516D01*
X121306905Y-101188572D01*
X121313171Y-101173649D01*
X121325544Y-101141175D01*
X121330972Y-101126502D01*
X121361410Y-101075744D01*
X121405480Y-101050427D01*
X121461990Y-101051206D01*
X121466175Y-101052203D01*
X121496345Y-101066507D01*
X121518524Y-101094393D01*
X121533673Y-101139287D01*
X121542750Y-101204615D01*
X121546714Y-101293804D01*
X121547086Y-101341261D01*
X121547270Y-101416071D01*
X121548478Y-101467069D01*
X121551691Y-101499471D01*
X121557891Y-101518495D01*
X121568060Y-101529356D01*
X121583181Y-101537272D01*
X121584054Y-101537670D01*
X121613172Y-101549981D01*
X121627597Y-101554514D01*
X121629814Y-101540809D01*
X121631711Y-101502925D01*
X121633153Y-101445715D01*
X121634002Y-101374027D01*
X121634171Y-101321565D01*
X121633308Y-101220047D01*
X121629930Y-101143032D01*
X121622858Y-101086023D01*
X121610912Y-101044526D01*
X121592910Y-101014043D01*
X121567673Y-100990080D01*
X121542753Y-100973355D01*
X121482829Y-100951097D01*
X121413089Y-100946076D01*
X121347400Y-100958752D01*
G37*
X121347400Y-100958752D02*
X121330052Y-100966334D01*
X121288644Y-100999128D01*
X121253235Y-101046547D01*
X121231336Y-101097151D01*
X121227771Y-101122098D01*
X121239721Y-101156927D01*
X121265933Y-101175357D01*
X121294036Y-101186516D01*
X121306905Y-101188572D01*
X121313171Y-101173649D01*
X121325544Y-101141175D01*
X121330972Y-101126502D01*
X121361410Y-101075744D01*
X121405480Y-101050427D01*
X121461990Y-101051206D01*
X121466175Y-101052203D01*
X121496345Y-101066507D01*
X121518524Y-101094393D01*
X121533673Y-101139287D01*
X121542750Y-101204615D01*
X121546714Y-101293804D01*
X121547086Y-101341261D01*
X121547270Y-101416071D01*
X121548478Y-101467069D01*
X121551691Y-101499471D01*
X121557891Y-101518495D01*
X121568060Y-101529356D01*
X121583181Y-101537272D01*
X121584054Y-101537670D01*
X121613172Y-101549981D01*
X121627597Y-101554514D01*
X121629814Y-101540809D01*
X121631711Y-101502925D01*
X121633153Y-101445715D01*
X121634002Y-101374027D01*
X121634171Y-101321565D01*
X121633308Y-101220047D01*
X121629930Y-101143032D01*
X121622858Y-101086023D01*
X121610912Y-101044526D01*
X121592910Y-101014043D01*
X121567673Y-100990080D01*
X121542753Y-100973355D01*
X121482829Y-100951097D01*
X121413089Y-100946076D01*
X121347400Y-100958752D01*
G36*
X121855124Y-100956335D02*
G01*
X121813333Y-100975344D01*
X121780531Y-100998378D01*
X121756497Y-101024133D01*
X121739903Y-101057358D01*
X121729423Y-101102800D01*
X121723729Y-101165207D01*
X121721493Y-101249327D01*
X121721257Y-101304721D01*
X121721257Y-101520826D01*
X121758226Y-101537670D01*
X121787344Y-101549981D01*
X121801769Y-101554514D01*
X121804528Y-101541025D01*
X121806718Y-101504653D01*
X121808058Y-101451542D01*
X121808343Y-101409372D01*
X121809566Y-101348447D01*
X121812864Y-101300115D01*
X121817679Y-101270518D01*
X121821504Y-101264229D01*
X121847217Y-101270652D01*
X121887582Y-101287125D01*
X121934321Y-101309458D01*
X121979155Y-101333457D01*
X122013807Y-101354930D01*
X122029998Y-101369685D01*
X122030062Y-101369845D01*
X122028670Y-101397152D01*
X122016182Y-101423219D01*
X121994257Y-101444392D01*
X121962257Y-101451474D01*
X121934908Y-101450649D01*
X121896174Y-101450042D01*
X121875842Y-101459116D01*
X121863631Y-101483092D01*
X121862091Y-101487613D01*
X121856797Y-101521806D01*
X121870953Y-101542568D01*
X121907852Y-101552462D01*
X121947711Y-101554292D01*
X122019438Y-101540727D01*
X122056568Y-101521355D01*
X122102424Y-101475845D01*
X122126744Y-101419983D01*
X122128927Y-101360957D01*
X122108371Y-101305953D01*
X122077451Y-101271486D01*
X122046580Y-101252189D01*
X121998058Y-101227759D01*
X121941515Y-101202985D01*
X121932090Y-101199199D01*
X121869981Y-101171791D01*
X121834178Y-101147634D01*
X121822663Y-101123619D01*
X121833420Y-101096635D01*
X121851886Y-101075543D01*
X121895531Y-101049572D01*
X121943554Y-101047624D01*
X121987594Y-101067637D01*
X122019291Y-101107551D01*
X122023451Y-101117848D01*
X122047673Y-101155724D01*
X122083035Y-101183842D01*
X122127657Y-101206917D01*
X122127657Y-101141485D01*
X122125031Y-101101506D01*
X122113770Y-101069997D01*
X122088801Y-101036378D01*
X122064831Y-101010484D01*
X122027559Y-100973817D01*
X121998599Y-100954121D01*
X121967495Y-100946220D01*
X121932287Y-100944914D01*
X121855124Y-100956335D01*
G37*
X121855124Y-100956335D02*
X121813333Y-100975344D01*
X121780531Y-100998378D01*
X121756497Y-101024133D01*
X121739903Y-101057358D01*
X121729423Y-101102800D01*
X121723729Y-101165207D01*
X121721493Y-101249327D01*
X121721257Y-101304721D01*
X121721257Y-101520826D01*
X121758226Y-101537670D01*
X121787344Y-101549981D01*
X121801769Y-101554514D01*
X121804528Y-101541025D01*
X121806718Y-101504653D01*
X121808058Y-101451542D01*
X121808343Y-101409372D01*
X121809566Y-101348447D01*
X121812864Y-101300115D01*
X121817679Y-101270518D01*
X121821504Y-101264229D01*
X121847217Y-101270652D01*
X121887582Y-101287125D01*
X121934321Y-101309458D01*
X121979155Y-101333457D01*
X122013807Y-101354930D01*
X122029998Y-101369685D01*
X122030062Y-101369845D01*
X122028670Y-101397152D01*
X122016182Y-101423219D01*
X121994257Y-101444392D01*
X121962257Y-101451474D01*
X121934908Y-101450649D01*
X121896174Y-101450042D01*
X121875842Y-101459116D01*
X121863631Y-101483092D01*
X121862091Y-101487613D01*
X121856797Y-101521806D01*
X121870953Y-101542568D01*
X121907852Y-101552462D01*
X121947711Y-101554292D01*
X122019438Y-101540727D01*
X122056568Y-101521355D01*
X122102424Y-101475845D01*
X122126744Y-101419983D01*
X122128927Y-101360957D01*
X122108371Y-101305953D01*
X122077451Y-101271486D01*
X122046580Y-101252189D01*
X121998058Y-101227759D01*
X121941515Y-101202985D01*
X121932090Y-101199199D01*
X121869981Y-101171791D01*
X121834178Y-101147634D01*
X121822663Y-101123619D01*
X121833420Y-101096635D01*
X121851886Y-101075543D01*
X121895531Y-101049572D01*
X121943554Y-101047624D01*
X121987594Y-101067637D01*
X122019291Y-101107551D01*
X122023451Y-101117848D01*
X122047673Y-101155724D01*
X122083035Y-101183842D01*
X122127657Y-101206917D01*
X122127657Y-101141485D01*
X122125031Y-101101506D01*
X122113770Y-101069997D01*
X122088801Y-101036378D01*
X122064831Y-101010484D01*
X122027559Y-100973817D01*
X121998599Y-100954121D01*
X121967495Y-100946220D01*
X121932287Y-100944914D01*
X121855124Y-100956335D01*
G36*
X122220167Y-100958663D02*
G01*
X122217952Y-100996850D01*
X122216216Y-101054886D01*
X122215101Y-101128180D01*
X122214743Y-101205055D01*
X122214743Y-101465196D01*
X122260674Y-101511127D01*
X122292325Y-101539429D01*
X122320110Y-101550893D01*
X122358085Y-101550168D01*
X122373160Y-101548321D01*
X122420274Y-101542948D01*
X122459244Y-101539869D01*
X122468743Y-101539585D01*
X122500767Y-101541445D01*
X122546568Y-101546114D01*
X122564326Y-101548321D01*
X122607943Y-101551735D01*
X122637255Y-101544320D01*
X122666320Y-101521427D01*
X122676812Y-101511127D01*
X122722743Y-101465196D01*
X122722743Y-100978602D01*
X122685774Y-100961758D01*
X122653941Y-100949282D01*
X122635317Y-100944914D01*
X122630542Y-100958718D01*
X122626079Y-100997286D01*
X122622225Y-101056356D01*
X122619278Y-101131663D01*
X122617857Y-101195286D01*
X122613886Y-101445657D01*
X122579241Y-101450556D01*
X122547732Y-101447131D01*
X122532292Y-101436041D01*
X122527977Y-101415308D01*
X122524292Y-101371145D01*
X122521531Y-101309146D01*
X122519988Y-101234909D01*
X122519765Y-101196706D01*
X122519543Y-100976783D01*
X122473834Y-100960849D01*
X122441482Y-100950015D01*
X122423885Y-100944962D01*
X122423377Y-100944914D01*
X122421612Y-100958648D01*
X122419671Y-100996730D01*
X122417718Y-101054482D01*
X122415916Y-101127227D01*
X122414657Y-101195286D01*
X122410686Y-101445657D01*
X122323600Y-101445657D01*
X122319604Y-101217240D01*
X122315608Y-100988822D01*
X122273153Y-100966868D01*
X122241808Y-100951793D01*
X122223256Y-100944951D01*
X122222721Y-100944914D01*
X122220167Y-100958663D01*
G37*
X122220167Y-100958663D02*
X122217952Y-100996850D01*
X122216216Y-101054886D01*
X122215101Y-101128180D01*
X122214743Y-101205055D01*
X122214743Y-101465196D01*
X122260674Y-101511127D01*
X122292325Y-101539429D01*
X122320110Y-101550893D01*
X122358085Y-101550168D01*
X122373160Y-101548321D01*
X122420274Y-101542948D01*
X122459244Y-101539869D01*
X122468743Y-101539585D01*
X122500767Y-101541445D01*
X122546568Y-101546114D01*
X122564326Y-101548321D01*
X122607943Y-101551735D01*
X122637255Y-101544320D01*
X122666320Y-101521427D01*
X122676812Y-101511127D01*
X122722743Y-101465196D01*
X122722743Y-100978602D01*
X122685774Y-100961758D01*
X122653941Y-100949282D01*
X122635317Y-100944914D01*
X122630542Y-100958718D01*
X122626079Y-100997286D01*
X122622225Y-101056356D01*
X122619278Y-101131663D01*
X122617857Y-101195286D01*
X122613886Y-101445657D01*
X122579241Y-101450556D01*
X122547732Y-101447131D01*
X122532292Y-101436041D01*
X122527977Y-101415308D01*
X122524292Y-101371145D01*
X122521531Y-101309146D01*
X122519988Y-101234909D01*
X122519765Y-101196706D01*
X122519543Y-100976783D01*
X122473834Y-100960849D01*
X122441482Y-100950015D01*
X122423885Y-100944962D01*
X122423377Y-100944914D01*
X122421612Y-100958648D01*
X122419671Y-100996730D01*
X122417718Y-101054482D01*
X122415916Y-101127227D01*
X122414657Y-101195286D01*
X122410686Y-101445657D01*
X122323600Y-101445657D01*
X122319604Y-101217240D01*
X122315608Y-100988822D01*
X122273153Y-100966868D01*
X122241808Y-100951793D01*
X122223256Y-100944951D01*
X122222721Y-100944914D01*
X122220167Y-100958663D01*
G36*
X122809883Y-101065358D02*
G01*
X122810067Y-101173837D01*
X122810781Y-101257287D01*
X122812325Y-101319704D01*
X122814999Y-101365085D01*
X122819106Y-101397429D01*
X122824945Y-101420733D01*
X122832818Y-101438995D01*
X122838779Y-101449418D01*
X122888145Y-101505945D01*
X122950736Y-101541377D01*
X123019987Y-101554090D01*
X123089332Y-101542463D01*
X123130625Y-101521568D01*
X123173975Y-101485422D01*
X123203519Y-101441276D01*
X123221345Y-101383462D01*
X123229537Y-101306313D01*
X123230698Y-101249714D01*
X123230542Y-101245647D01*
X123129143Y-101245647D01*
X123128524Y-101310550D01*
X123125686Y-101353514D01*
X123119160Y-101381622D01*
X123107477Y-101401953D01*
X123093517Y-101417288D01*
X123046635Y-101446890D01*
X122996299Y-101449419D01*
X122948724Y-101424705D01*
X122945021Y-101421356D01*
X122929217Y-101403935D01*
X122919307Y-101383209D01*
X122913942Y-101352362D01*
X122911772Y-101304577D01*
X122911429Y-101251748D01*
X122912173Y-101185381D01*
X122915252Y-101141106D01*
X122921939Y-101112009D01*
X122933504Y-101091173D01*
X122942987Y-101080107D01*
X122987040Y-101052198D01*
X123037776Y-101048843D01*
X123086204Y-101070159D01*
X123095550Y-101078073D01*
X123111460Y-101095647D01*
X123121390Y-101116587D01*
X123126722Y-101147782D01*
X123128837Y-101196122D01*
X123129143Y-101245647D01*
X123230542Y-101245647D01*
X123227190Y-101158568D01*
X123215274Y-101090086D01*
X123192865Y-101038600D01*
X123157876Y-100998443D01*
X123130625Y-100977861D01*
X123081093Y-100955625D01*
X123023684Y-100945304D01*
X122970318Y-100948067D01*
X122940457Y-100959212D01*
X122928739Y-100962383D01*
X122920963Y-100950557D01*
X122915535Y-100918866D01*
X122911429Y-100870593D01*
X122906933Y-100816829D01*
X122900687Y-100784482D01*
X122889324Y-100765985D01*
X122869472Y-100753770D01*
X122857000Y-100748362D01*
X122809829Y-100728601D01*
X122809883Y-101065358D01*
G37*
X122809883Y-101065358D02*
X122810067Y-101173837D01*
X122810781Y-101257287D01*
X122812325Y-101319704D01*
X122814999Y-101365085D01*
X122819106Y-101397429D01*
X122824945Y-101420733D01*
X122832818Y-101438995D01*
X122838779Y-101449418D01*
X122888145Y-101505945D01*
X122950736Y-101541377D01*
X123019987Y-101554090D01*
X123089332Y-101542463D01*
X123130625Y-101521568D01*
X123173975Y-101485422D01*
X123203519Y-101441276D01*
X123221345Y-101383462D01*
X123229537Y-101306313D01*
X123230698Y-101249714D01*
X123230542Y-101245647D01*
X123129143Y-101245647D01*
X123128524Y-101310550D01*
X123125686Y-101353514D01*
X123119160Y-101381622D01*
X123107477Y-101401953D01*
X123093517Y-101417288D01*
X123046635Y-101446890D01*
X122996299Y-101449419D01*
X122948724Y-101424705D01*
X122945021Y-101421356D01*
X122929217Y-101403935D01*
X122919307Y-101383209D01*
X122913942Y-101352362D01*
X122911772Y-101304577D01*
X122911429Y-101251748D01*
X122912173Y-101185381D01*
X122915252Y-101141106D01*
X122921939Y-101112009D01*
X122933504Y-101091173D01*
X122942987Y-101080107D01*
X122987040Y-101052198D01*
X123037776Y-101048843D01*
X123086204Y-101070159D01*
X123095550Y-101078073D01*
X123111460Y-101095647D01*
X123121390Y-101116587D01*
X123126722Y-101147782D01*
X123128837Y-101196122D01*
X123129143Y-101245647D01*
X123230542Y-101245647D01*
X123227190Y-101158568D01*
X123215274Y-101090086D01*
X123192865Y-101038600D01*
X123157876Y-100998443D01*
X123130625Y-100977861D01*
X123081093Y-100955625D01*
X123023684Y-100945304D01*
X122970318Y-100948067D01*
X122940457Y-100959212D01*
X122928739Y-100962383D01*
X122920963Y-100950557D01*
X122915535Y-100918866D01*
X122911429Y-100870593D01*
X122906933Y-100816829D01*
X122900687Y-100784482D01*
X122889324Y-100765985D01*
X122869472Y-100753770D01*
X122857000Y-100748362D01*
X122809829Y-100728601D01*
X122809883Y-101065358D01*
G36*
X123470074Y-100949755D02*
G01*
X123404142Y-100974084D01*
X123350727Y-101017117D01*
X123329836Y-101047409D01*
X123307061Y-101102994D01*
X123307534Y-101143186D01*
X123331438Y-101170217D01*
X123340283Y-101174813D01*
X123378470Y-101189144D01*
X123397972Y-101185472D01*
X123404578Y-101161407D01*
X123404914Y-101148114D01*
X123417008Y-101099210D01*
X123448529Y-101064999D01*
X123492341Y-101048476D01*
X123541305Y-101052634D01*
X123581106Y-101074227D01*
X123594550Y-101086544D01*
X123604079Y-101101487D01*
X123610515Y-101124075D01*
X123614683Y-101159328D01*
X123617403Y-101212266D01*
X123619498Y-101287907D01*
X123620040Y-101311857D01*
X123622019Y-101393790D01*
X123624269Y-101451455D01*
X123627643Y-101489608D01*
X123632994Y-101513004D01*
X123641176Y-101526398D01*
X123653041Y-101534545D01*
X123660638Y-101538144D01*
X123692898Y-101550452D01*
X123711889Y-101554514D01*
X123718164Y-101540948D01*
X123721994Y-101499934D01*
X123723400Y-101430999D01*
X123722402Y-101333669D01*
X123722092Y-101318657D01*
X123719899Y-101229859D01*
X123717307Y-101165019D01*
X123713618Y-101119067D01*
X123708136Y-101086935D01*
X123700165Y-101063553D01*
X123689007Y-101043852D01*
X123683170Y-101035410D01*
X123649704Y-100998057D01*
X123612273Y-100969003D01*
X123607691Y-100966467D01*
X123540574Y-100946443D01*
X123470074Y-100949755D01*
G37*
X123470074Y-100949755D02*
X123404142Y-100974084D01*
X123350727Y-101017117D01*
X123329836Y-101047409D01*
X123307061Y-101102994D01*
X123307534Y-101143186D01*
X123331438Y-101170217D01*
X123340283Y-101174813D01*
X123378470Y-101189144D01*
X123397972Y-101185472D01*
X123404578Y-101161407D01*
X123404914Y-101148114D01*
X123417008Y-101099210D01*
X123448529Y-101064999D01*
X123492341Y-101048476D01*
X123541305Y-101052634D01*
X123581106Y-101074227D01*
X123594550Y-101086544D01*
X123604079Y-101101487D01*
X123610515Y-101124075D01*
X123614683Y-101159328D01*
X123617403Y-101212266D01*
X123619498Y-101287907D01*
X123620040Y-101311857D01*
X123622019Y-101393790D01*
X123624269Y-101451455D01*
X123627643Y-101489608D01*
X123632994Y-101513004D01*
X123641176Y-101526398D01*
X123653041Y-101534545D01*
X123660638Y-101538144D01*
X123692898Y-101550452D01*
X123711889Y-101554514D01*
X123718164Y-101540948D01*
X123721994Y-101499934D01*
X123723400Y-101430999D01*
X123722402Y-101333669D01*
X123722092Y-101318657D01*
X123719899Y-101229859D01*
X123717307Y-101165019D01*
X123713618Y-101119067D01*
X123708136Y-101086935D01*
X123700165Y-101063553D01*
X123689007Y-101043852D01*
X123683170Y-101035410D01*
X123649704Y-100998057D01*
X123612273Y-100969003D01*
X123607691Y-100966467D01*
X123540574Y-100946443D01*
X123470074Y-100949755D01*
G36*
X123960256Y-100950968D02*
G01*
X123903384Y-100972087D01*
X123902733Y-100972493D01*
X123867560Y-100998380D01*
X123841593Y-101028633D01*
X123823330Y-101068058D01*
X123811268Y-101121462D01*
X123803904Y-101193651D01*
X123799736Y-101289432D01*
X123799371Y-101303078D01*
X123794124Y-101508842D01*
X123838284Y-101531678D01*
X123870237Y-101547110D01*
X123889530Y-101554423D01*
X123890422Y-101554514D01*
X123893761Y-101541022D01*
X123896413Y-101504626D01*
X123898044Y-101451452D01*
X123898400Y-101408393D01*
X123898408Y-101338641D01*
X123901597Y-101294837D01*
X123912712Y-101273944D01*
X123936499Y-101272925D01*
X123977704Y-101288741D01*
X124039914Y-101317815D01*
X124085659Y-101341963D01*
X124109187Y-101362913D01*
X124116104Y-101385747D01*
X124116114Y-101386877D01*
X124104701Y-101426212D01*
X124070908Y-101447462D01*
X124019191Y-101450539D01*
X123981939Y-101450006D01*
X123962297Y-101460735D01*
X123950048Y-101486505D01*
X123942998Y-101519337D01*
X123953158Y-101537966D01*
X123956983Y-101540632D01*
X123992999Y-101551340D01*
X124043434Y-101552856D01*
X124095374Y-101545759D01*
X124132178Y-101532788D01*
X124183062Y-101489585D01*
X124211986Y-101429446D01*
X124217714Y-101382462D01*
X124213343Y-101340082D01*
X124197525Y-101305488D01*
X124166203Y-101274763D01*
X124115322Y-101243990D01*
X124040824Y-101209252D01*
X124036286Y-101207288D01*
X123969179Y-101176287D01*
X123927768Y-101150862D01*
X123910019Y-101128014D01*
X123913893Y-101104745D01*
X123937357Y-101078056D01*
X123944373Y-101071914D01*
X123991370Y-101048100D01*
X124040067Y-101049103D01*
X124082478Y-101072451D01*
X124110616Y-101115675D01*
X124113231Y-101124160D01*
X124138692Y-101165308D01*
X124170999Y-101185128D01*
X124217714Y-101204770D01*
X124217714Y-101153950D01*
X124203504Y-101080082D01*
X124161325Y-101012327D01*
X124139376Y-100989661D01*
X124089483Y-100960569D01*
X124026033Y-100947400D01*
X123960256Y-100950968D01*
G37*
X123960256Y-100950968D02*
X123903384Y-100972087D01*
X123902733Y-100972493D01*
X123867560Y-100998380D01*
X123841593Y-101028633D01*
X123823330Y-101068058D01*
X123811268Y-101121462D01*
X123803904Y-101193651D01*
X123799736Y-101289432D01*
X123799371Y-101303078D01*
X123794124Y-101508842D01*
X123838284Y-101531678D01*
X123870237Y-101547110D01*
X123889530Y-101554423D01*
X123890422Y-101554514D01*
X123893761Y-101541022D01*
X123896413Y-101504626D01*
X123898044Y-101451452D01*
X123898400Y-101408393D01*
X123898408Y-101338641D01*
X123901597Y-101294837D01*
X123912712Y-101273944D01*
X123936499Y-101272925D01*
X123977704Y-101288741D01*
X124039914Y-101317815D01*
X124085659Y-101341963D01*
X124109187Y-101362913D01*
X124116104Y-101385747D01*
X124116114Y-101386877D01*
X124104701Y-101426212D01*
X124070908Y-101447462D01*
X124019191Y-101450539D01*
X123981939Y-101450006D01*
X123962297Y-101460735D01*
X123950048Y-101486505D01*
X123942998Y-101519337D01*
X123953158Y-101537966D01*
X123956983Y-101540632D01*
X123992999Y-101551340D01*
X124043434Y-101552856D01*
X124095374Y-101545759D01*
X124132178Y-101532788D01*
X124183062Y-101489585D01*
X124211986Y-101429446D01*
X124217714Y-101382462D01*
X124213343Y-101340082D01*
X124197525Y-101305488D01*
X124166203Y-101274763D01*
X124115322Y-101243990D01*
X124040824Y-101209252D01*
X124036286Y-101207288D01*
X123969179Y-101176287D01*
X123927768Y-101150862D01*
X123910019Y-101128014D01*
X123913893Y-101104745D01*
X123937357Y-101078056D01*
X123944373Y-101071914D01*
X123991370Y-101048100D01*
X124040067Y-101049103D01*
X124082478Y-101072451D01*
X124110616Y-101115675D01*
X124113231Y-101124160D01*
X124138692Y-101165308D01*
X124170999Y-101185128D01*
X124217714Y-101204770D01*
X124217714Y-101153950D01*
X124203504Y-101080082D01*
X124161325Y-101012327D01*
X124139376Y-100989661D01*
X124089483Y-100960569D01*
X124026033Y-100947400D01*
X123960256Y-100950968D01*
G36*
X124624114Y-100851289D02*
G01*
X124619861Y-100910613D01*
X124614975Y-100945572D01*
X124608205Y-100960820D01*
X124598298Y-100961015D01*
X124595086Y-100959195D01*
X124552356Y-100946015D01*
X124496773Y-100946785D01*
X124440263Y-100960333D01*
X124404918Y-100977861D01*
X124368679Y-101005861D01*
X124342187Y-101037549D01*
X124324001Y-101077813D01*
X124312678Y-101131543D01*
X124306778Y-101203626D01*
X124304857Y-101298951D01*
X124304823Y-101317237D01*
X124304800Y-101522646D01*
X124350509Y-101538580D01*
X124382973Y-101549420D01*
X124400785Y-101554468D01*
X124401309Y-101554514D01*
X124403063Y-101540828D01*
X124404556Y-101503076D01*
X124405674Y-101446224D01*
X124406303Y-101375234D01*
X124406400Y-101332073D01*
X124406602Y-101246973D01*
X124407642Y-101185981D01*
X124410169Y-101144177D01*
X124414836Y-101116642D01*
X124422293Y-101098456D01*
X124433189Y-101084698D01*
X124439993Y-101078073D01*
X124486728Y-101051375D01*
X124537728Y-101049375D01*
X124583999Y-101071955D01*
X124592556Y-101080107D01*
X124605107Y-101095436D01*
X124613812Y-101113618D01*
X124619369Y-101139909D01*
X124622474Y-101179562D01*
X124623824Y-101237832D01*
X124624114Y-101318173D01*
X124624114Y-101522646D01*
X124669823Y-101538580D01*
X124702287Y-101549420D01*
X124720099Y-101554468D01*
X124720623Y-101554514D01*
X124721963Y-101540623D01*
X124723172Y-101501439D01*
X124724199Y-101440700D01*
X124724998Y-101362141D01*
X124725519Y-101269498D01*
X124725714Y-101166509D01*
X124725714Y-100769342D01*
X124678543Y-100749444D01*
X124631371Y-100729547D01*
X124624114Y-100851289D01*
G37*
X124624114Y-100851289D02*
X124619861Y-100910613D01*
X124614975Y-100945572D01*
X124608205Y-100960820D01*
X124598298Y-100961015D01*
X124595086Y-100959195D01*
X124552356Y-100946015D01*
X124496773Y-100946785D01*
X124440263Y-100960333D01*
X124404918Y-100977861D01*
X124368679Y-101005861D01*
X124342187Y-101037549D01*
X124324001Y-101077813D01*
X124312678Y-101131543D01*
X124306778Y-101203626D01*
X124304857Y-101298951D01*
X124304823Y-101317237D01*
X124304800Y-101522646D01*
X124350509Y-101538580D01*
X124382973Y-101549420D01*
X124400785Y-101554468D01*
X124401309Y-101554514D01*
X124403063Y-101540828D01*
X124404556Y-101503076D01*
X124405674Y-101446224D01*
X124406303Y-101375234D01*
X124406400Y-101332073D01*
X124406602Y-101246973D01*
X124407642Y-101185981D01*
X124410169Y-101144177D01*
X124414836Y-101116642D01*
X124422293Y-101098456D01*
X124433189Y-101084698D01*
X124439993Y-101078073D01*
X124486728Y-101051375D01*
X124537728Y-101049375D01*
X124583999Y-101071955D01*
X124592556Y-101080107D01*
X124605107Y-101095436D01*
X124613812Y-101113618D01*
X124619369Y-101139909D01*
X124622474Y-101179562D01*
X124623824Y-101237832D01*
X124624114Y-101318173D01*
X124624114Y-101522646D01*
X124669823Y-101538580D01*
X124702287Y-101549420D01*
X124720099Y-101554468D01*
X124720623Y-101554514D01*
X124721963Y-101540623D01*
X124723172Y-101501439D01*
X124724199Y-101440700D01*
X124724998Y-101362141D01*
X124725519Y-101269498D01*
X124725714Y-101166509D01*
X124725714Y-100769342D01*
X124678543Y-100749444D01*
X124631371Y-100729547D01*
X124624114Y-100851289D01*
G36*
X125831697Y-100931239D02*
G01*
X125774473Y-100969735D01*
X125730251Y-101025335D01*
X125703833Y-101096086D01*
X125698490Y-101148162D01*
X125699097Y-101169893D01*
X125704178Y-101186531D01*
X125718145Y-101201437D01*
X125745411Y-101217973D01*
X125790388Y-101239498D01*
X125857489Y-101269374D01*
X125857829Y-101269524D01*
X125919593Y-101297813D01*
X125970241Y-101322933D01*
X126004596Y-101342179D01*
X126017482Y-101352848D01*
X126017486Y-101352934D01*
X126006128Y-101376166D01*
X125979569Y-101401774D01*
X125949077Y-101420221D01*
X125933630Y-101423886D01*
X125891485Y-101411212D01*
X125855192Y-101379471D01*
X125837483Y-101344572D01*
X125820448Y-101318845D01*
X125787078Y-101289546D01*
X125747851Y-101264235D01*
X125713244Y-101250471D01*
X125706007Y-101249714D01*
X125697861Y-101262160D01*
X125697370Y-101293972D01*
X125703357Y-101336866D01*
X125714643Y-101382558D01*
X125730050Y-101422761D01*
X125730829Y-101424322D01*
X125777196Y-101489062D01*
X125837289Y-101533097D01*
X125905535Y-101554711D01*
X125976362Y-101552185D01*
X126044196Y-101523804D01*
X126047212Y-101521808D01*
X126100573Y-101473448D01*
X126135660Y-101410352D01*
X126155078Y-101327387D01*
X126157684Y-101304078D01*
X126162299Y-101194055D01*
X126156767Y-101142748D01*
X126017486Y-101142748D01*
X126015676Y-101174753D01*
X126005778Y-101184093D01*
X125981102Y-101177105D01*
X125942205Y-101160587D01*
X125898725Y-101139881D01*
X125897644Y-101139333D01*
X125860791Y-101119949D01*
X125846000Y-101107013D01*
X125849647Y-101093451D01*
X125865005Y-101075632D01*
X125904077Y-101049845D01*
X125946154Y-101047950D01*
X125983897Y-101066717D01*
X126009966Y-101102915D01*
X126017486Y-101142748D01*
X126156767Y-101142748D01*
X126152806Y-101106027D01*
X126128450Y-101036212D01*
X126094544Y-100987302D01*
X126033347Y-100937878D01*
X125965937Y-100913359D01*
X125897120Y-100911797D01*
X125831697Y-100931239D01*
G37*
X125831697Y-100931239D02*
X125774473Y-100969735D01*
X125730251Y-101025335D01*
X125703833Y-101096086D01*
X125698490Y-101148162D01*
X125699097Y-101169893D01*
X125704178Y-101186531D01*
X125718145Y-101201437D01*
X125745411Y-101217973D01*
X125790388Y-101239498D01*
X125857489Y-101269374D01*
X125857829Y-101269524D01*
X125919593Y-101297813D01*
X125970241Y-101322933D01*
X126004596Y-101342179D01*
X126017482Y-101352848D01*
X126017486Y-101352934D01*
X126006128Y-101376166D01*
X125979569Y-101401774D01*
X125949077Y-101420221D01*
X125933630Y-101423886D01*
X125891485Y-101411212D01*
X125855192Y-101379471D01*
X125837483Y-101344572D01*
X125820448Y-101318845D01*
X125787078Y-101289546D01*
X125747851Y-101264235D01*
X125713244Y-101250471D01*
X125706007Y-101249714D01*
X125697861Y-101262160D01*
X125697370Y-101293972D01*
X125703357Y-101336866D01*
X125714643Y-101382558D01*
X125730050Y-101422761D01*
X125730829Y-101424322D01*
X125777196Y-101489062D01*
X125837289Y-101533097D01*
X125905535Y-101554711D01*
X125976362Y-101552185D01*
X126044196Y-101523804D01*
X126047212Y-101521808D01*
X126100573Y-101473448D01*
X126135660Y-101410352D01*
X126155078Y-101327387D01*
X126157684Y-101304078D01*
X126162299Y-101194055D01*
X126156767Y-101142748D01*
X126017486Y-101142748D01*
X126015676Y-101174753D01*
X126005778Y-101184093D01*
X125981102Y-101177105D01*
X125942205Y-101160587D01*
X125898725Y-101139881D01*
X125897644Y-101139333D01*
X125860791Y-101119949D01*
X125846000Y-101107013D01*
X125849647Y-101093451D01*
X125865005Y-101075632D01*
X125904077Y-101049845D01*
X125946154Y-101047950D01*
X125983897Y-101066717D01*
X126009966Y-101102915D01*
X126017486Y-101142748D01*
X126156767Y-101142748D01*
X126152806Y-101106027D01*
X126128450Y-101036212D01*
X126094544Y-100987302D01*
X126033347Y-100937878D01*
X125965937Y-100913359D01*
X125897120Y-100911797D01*
X125831697Y-100931239D01*
G36*
X126958885Y-100921962D02*
G01*
X126890855Y-100957733D01*
X126840649Y-101015301D01*
X126822815Y-101052312D01*
X126808937Y-101107882D01*
X126801833Y-101178096D01*
X126801160Y-101254727D01*
X126806573Y-101329552D01*
X126817730Y-101394342D01*
X126834286Y-101440873D01*
X126839374Y-101448887D01*
X126899645Y-101508707D01*
X126971231Y-101544535D01*
X127048908Y-101555020D01*
X127127452Y-101538810D01*
X127149311Y-101529092D01*
X127191878Y-101499143D01*
X127229237Y-101459433D01*
X127232768Y-101454397D01*
X127247119Y-101430124D01*
X127256606Y-101404178D01*
X127262210Y-101370022D01*
X127264914Y-101321119D01*
X127265701Y-101250935D01*
X127265714Y-101235200D01*
X127265678Y-101230192D01*
X127120571Y-101230192D01*
X127119727Y-101296430D01*
X127116404Y-101340386D01*
X127109417Y-101368779D01*
X127097584Y-101388325D01*
X127091543Y-101394857D01*
X127056814Y-101419680D01*
X127023097Y-101418548D01*
X126989005Y-101397016D01*
X126968671Y-101374029D01*
X126956629Y-101340478D01*
X126949866Y-101287569D01*
X126949402Y-101281399D01*
X126948248Y-101185513D01*
X126960312Y-101114299D01*
X126985430Y-101068194D01*
X127023440Y-101047635D01*
X127037008Y-101046514D01*
X127072636Y-101052152D01*
X127097006Y-101071686D01*
X127111907Y-101109042D01*
X127119125Y-101168150D01*
X127120571Y-101230192D01*
X127265678Y-101230192D01*
X127265174Y-101160413D01*
X127262904Y-101108159D01*
X127257932Y-101071949D01*
X127249287Y-101045299D01*
X127235995Y-101021722D01*
X127233057Y-101017338D01*
X127183687Y-100958249D01*
X127129891Y-100923947D01*
X127064398Y-100910331D01*
X127042158Y-100909665D01*
X126958885Y-100921962D01*
G37*
X126958885Y-100921962D02*
X126890855Y-100957733D01*
X126840649Y-101015301D01*
X126822815Y-101052312D01*
X126808937Y-101107882D01*
X126801833Y-101178096D01*
X126801160Y-101254727D01*
X126806573Y-101329552D01*
X126817730Y-101394342D01*
X126834286Y-101440873D01*
X126839374Y-101448887D01*
X126899645Y-101508707D01*
X126971231Y-101544535D01*
X127048908Y-101555020D01*
X127127452Y-101538810D01*
X127149311Y-101529092D01*
X127191878Y-101499143D01*
X127229237Y-101459433D01*
X127232768Y-101454397D01*
X127247119Y-101430124D01*
X127256606Y-101404178D01*
X127262210Y-101370022D01*
X127264914Y-101321119D01*
X127265701Y-101250935D01*
X127265714Y-101235200D01*
X127265678Y-101230192D01*
X127120571Y-101230192D01*
X127119727Y-101296430D01*
X127116404Y-101340386D01*
X127109417Y-101368779D01*
X127097584Y-101388325D01*
X127091543Y-101394857D01*
X127056814Y-101419680D01*
X127023097Y-101418548D01*
X126989005Y-101397016D01*
X126968671Y-101374029D01*
X126956629Y-101340478D01*
X126949866Y-101287569D01*
X126949402Y-101281399D01*
X126948248Y-101185513D01*
X126960312Y-101114299D01*
X126985430Y-101068194D01*
X127023440Y-101047635D01*
X127037008Y-101046514D01*
X127072636Y-101052152D01*
X127097006Y-101071686D01*
X127111907Y-101109042D01*
X127119125Y-101168150D01*
X127120571Y-101230192D01*
X127265678Y-101230192D01*
X127265174Y-101160413D01*
X127262904Y-101108159D01*
X127257932Y-101071949D01*
X127249287Y-101045299D01*
X127235995Y-101021722D01*
X127233057Y-101017338D01*
X127183687Y-100958249D01*
X127129891Y-100923947D01*
X127064398Y-100910331D01*
X127042158Y-100909665D01*
X126958885Y-100921962D01*
G36*
X125283907Y-100927780D02*
G01*
X125237328Y-100954723D01*
X125204943Y-100981466D01*
X125181258Y-101009484D01*
X125164941Y-101043748D01*
X125154661Y-101089227D01*
X125149086Y-101150892D01*
X125146884Y-101233711D01*
X125146629Y-101293246D01*
X125146629Y-101512391D01*
X125208314Y-101540044D01*
X125270000Y-101567697D01*
X125277257Y-101327670D01*
X125280256Y-101238028D01*
X125283402Y-101172962D01*
X125287299Y-101128026D01*
X125292553Y-101098770D01*
X125299769Y-101080748D01*
X125309550Y-101069511D01*
X125312688Y-101067079D01*
X125360239Y-101048083D01*
X125408303Y-101055600D01*
X125436914Y-101075543D01*
X125448553Y-101089675D01*
X125456609Y-101108220D01*
X125461729Y-101136334D01*
X125464559Y-101179173D01*
X125465744Y-101241895D01*
X125465943Y-101307261D01*
X125465982Y-101389268D01*
X125467386Y-101447316D01*
X125472086Y-101486465D01*
X125482013Y-101511780D01*
X125499097Y-101528323D01*
X125525268Y-101541156D01*
X125560225Y-101554491D01*
X125598404Y-101569007D01*
X125593859Y-101311389D01*
X125592029Y-101218519D01*
X125589888Y-101149889D01*
X125586819Y-101100711D01*
X125582206Y-101066198D01*
X125575432Y-101041562D01*
X125565881Y-101022016D01*
X125554366Y-101004770D01*
X125498810Y-100949680D01*
X125431020Y-100917822D01*
X125357287Y-100910191D01*
X125283907Y-100927780D01*
G37*
X125283907Y-100927780D02*
X125237328Y-100954723D01*
X125204943Y-100981466D01*
X125181258Y-101009484D01*
X125164941Y-101043748D01*
X125154661Y-101089227D01*
X125149086Y-101150892D01*
X125146884Y-101233711D01*
X125146629Y-101293246D01*
X125146629Y-101512391D01*
X125208314Y-101540044D01*
X125270000Y-101567697D01*
X125277257Y-101327670D01*
X125280256Y-101238028D01*
X125283402Y-101172962D01*
X125287299Y-101128026D01*
X125292553Y-101098770D01*
X125299769Y-101080748D01*
X125309550Y-101069511D01*
X125312688Y-101067079D01*
X125360239Y-101048083D01*
X125408303Y-101055600D01*
X125436914Y-101075543D01*
X125448553Y-101089675D01*
X125456609Y-101108220D01*
X125461729Y-101136334D01*
X125464559Y-101179173D01*
X125465744Y-101241895D01*
X125465943Y-101307261D01*
X125465982Y-101389268D01*
X125467386Y-101447316D01*
X125472086Y-101486465D01*
X125482013Y-101511780D01*
X125499097Y-101528323D01*
X125525268Y-101541156D01*
X125560225Y-101554491D01*
X125598404Y-101569007D01*
X125593859Y-101311389D01*
X125592029Y-101218519D01*
X125589888Y-101149889D01*
X125586819Y-101100711D01*
X125582206Y-101066198D01*
X125575432Y-101041562D01*
X125565881Y-101022016D01*
X125554366Y-101004770D01*
X125498810Y-100949680D01*
X125431020Y-100917822D01*
X125357287Y-100910191D01*
X125283907Y-100927780D01*
G36*
X126400256Y-100919918D02*
G01*
X126344799Y-100947568D01*
X126295852Y-100998480D01*
X126282371Y-101017338D01*
X126267686Y-101042015D01*
X126258158Y-101068816D01*
X126252707Y-101104587D01*
X126250253Y-101156169D01*
X126249714Y-101224267D01*
X126252148Y-101317588D01*
X126260606Y-101387657D01*
X126276826Y-101439931D01*
X126302546Y-101479869D01*
X126339503Y-101512929D01*
X126342218Y-101514886D01*
X126378640Y-101534908D01*
X126422498Y-101544815D01*
X126478276Y-101547257D01*
X126568952Y-101547257D01*
X126568990Y-101635283D01*
X126569834Y-101684308D01*
X126574976Y-101713065D01*
X126588413Y-101730311D01*
X126614142Y-101744808D01*
X126620321Y-101747769D01*
X126649236Y-101761648D01*
X126671624Y-101770414D01*
X126688271Y-101771171D01*
X126699964Y-101761023D01*
X126707490Y-101737073D01*
X126711634Y-101696426D01*
X126713185Y-101636186D01*
X126712929Y-101553455D01*
X126711651Y-101445339D01*
X126711252Y-101413000D01*
X126709815Y-101301524D01*
X126708528Y-101228603D01*
X126569029Y-101228603D01*
X126568245Y-101290499D01*
X126564760Y-101330997D01*
X126556876Y-101357708D01*
X126542895Y-101378244D01*
X126533403Y-101388260D01*
X126494596Y-101417567D01*
X126460237Y-101419952D01*
X126424784Y-101395750D01*
X126423886Y-101394857D01*
X126409461Y-101376153D01*
X126400687Y-101350732D01*
X126396261Y-101311584D01*
X126394882Y-101251697D01*
X126394857Y-101238430D01*
X126398188Y-101155901D01*
X126409031Y-101098691D01*
X126428660Y-101063766D01*
X126458350Y-101048094D01*
X126475509Y-101046514D01*
X126516234Y-101053926D01*
X126544168Y-101078330D01*
X126560983Y-101122980D01*
X126568350Y-101191130D01*
X126569029Y-101228603D01*
X126708528Y-101228603D01*
X126708292Y-101215245D01*
X126706323Y-101150333D01*
X126703550Y-101102958D01*
X126699612Y-101069290D01*
X126694151Y-101045498D01*
X126686808Y-101027753D01*
X126677223Y-101012224D01*
X126673113Y-101006381D01*
X126618595Y-100951185D01*
X126549664Y-100919890D01*
X126469928Y-100911165D01*
X126400256Y-100919918D01*
G37*
X126400256Y-100919918D02*
X126344799Y-100947568D01*
X126295852Y-100998480D01*
X126282371Y-101017338D01*
X126267686Y-101042015D01*
X126258158Y-101068816D01*
X126252707Y-101104587D01*
X126250253Y-101156169D01*
X126249714Y-101224267D01*
X126252148Y-101317588D01*
X126260606Y-101387657D01*
X126276826Y-101439931D01*
X126302546Y-101479869D01*
X126339503Y-101512929D01*
X126342218Y-101514886D01*
X126378640Y-101534908D01*
X126422498Y-101544815D01*
X126478276Y-101547257D01*
X126568952Y-101547257D01*
X126568990Y-101635283D01*
X126569834Y-101684308D01*
X126574976Y-101713065D01*
X126588413Y-101730311D01*
X126614142Y-101744808D01*
X126620321Y-101747769D01*
X126649236Y-101761648D01*
X126671624Y-101770414D01*
X126688271Y-101771171D01*
X126699964Y-101761023D01*
X126707490Y-101737073D01*
X126711634Y-101696426D01*
X126713185Y-101636186D01*
X126712929Y-101553455D01*
X126711651Y-101445339D01*
X126711252Y-101413000D01*
X126709815Y-101301524D01*
X126708528Y-101228603D01*
X126569029Y-101228603D01*
X126568245Y-101290499D01*
X126564760Y-101330997D01*
X126556876Y-101357708D01*
X126542895Y-101378244D01*
X126533403Y-101388260D01*
X126494596Y-101417567D01*
X126460237Y-101419952D01*
X126424784Y-101395750D01*
X126423886Y-101394857D01*
X126409461Y-101376153D01*
X126400687Y-101350732D01*
X126396261Y-101311584D01*
X126394882Y-101251697D01*
X126394857Y-101238430D01*
X126398188Y-101155901D01*
X126409031Y-101098691D01*
X126428660Y-101063766D01*
X126458350Y-101048094D01*
X126475509Y-101046514D01*
X126516234Y-101053926D01*
X126544168Y-101078330D01*
X126560983Y-101122980D01*
X126568350Y-101191130D01*
X126569029Y-101228603D01*
X126708528Y-101228603D01*
X126708292Y-101215245D01*
X126706323Y-101150333D01*
X126703550Y-101102958D01*
X126699612Y-101069290D01*
X126694151Y-101045498D01*
X126686808Y-101027753D01*
X126677223Y-101012224D01*
X126673113Y-101006381D01*
X126618595Y-100951185D01*
X126549664Y-100919890D01*
X126469928Y-100911165D01*
X126400256Y-100919918D01*
D13*
G04 #@! TO.C,e*
G36*
X148867094Y-81787166D02*
G01*
X148566347Y-81855405D01*
X148299481Y-81987969D01*
X148073915Y-82174221D01*
X147897067Y-82403529D01*
X147776354Y-82665258D01*
X147719196Y-82948774D01*
X147733011Y-83243443D01*
X147762518Y-83370585D01*
X147808615Y-83508710D01*
X147857205Y-83623530D01*
X147883272Y-83669092D01*
X147915687Y-83704060D01*
X147950512Y-83705007D01*
X148001723Y-83663052D01*
X148083294Y-83569310D01*
X148130086Y-83512214D01*
X148243796Y-83366581D01*
X148304476Y-83271874D01*
X148315897Y-83220334D01*
X148281830Y-83204198D01*
X148279742Y-83204180D01*
X148235070Y-83179263D01*
X148245892Y-83112216D01*
X148306154Y-83014588D01*
X148409800Y-82897932D01*
X148469844Y-82841536D01*
X148587103Y-82732989D01*
X148649728Y-82661278D01*
X148667025Y-82612431D01*
X148648734Y-82572989D01*
X148631816Y-82534811D01*
X148642506Y-82480338D01*
X148687232Y-82396356D01*
X148772423Y-82269651D01*
X148846573Y-82166334D01*
X148950152Y-82021106D01*
X149032781Y-81900180D01*
X149084312Y-81818719D01*
X149096463Y-81792943D01*
X149059772Y-81780802D01*
X148964881Y-81779901D01*
X148867094Y-81787166D01*
G37*
G36*
X149185332Y-82044778D02*
G01*
X149148206Y-82098252D01*
X149080625Y-82195011D01*
X149017690Y-82284895D01*
X148941678Y-82406321D01*
X148915054Y-82481082D01*
X148925809Y-82500725D01*
X148973170Y-82548288D01*
X148952885Y-82633155D01*
X148867313Y-82750562D01*
X148739147Y-82877672D01*
X148624157Y-82988845D01*
X148559806Y-83068406D01*
X148552917Y-83107765D01*
X148555385Y-83109056D01*
X148601935Y-83158398D01*
X148584585Y-83246728D01*
X148502241Y-83377526D01*
X148450024Y-83443528D01*
X148333111Y-83589439D01*
X148262620Y-83687215D01*
X148242266Y-83731556D01*
X148246705Y-83733624D01*
X148285676Y-83714253D01*
X148376752Y-83664485D01*
X148501203Y-83594577D01*
X148517394Y-83585376D01*
X148657935Y-83498908D01*
X148728407Y-83438081D01*
X148734448Y-83397889D01*
X148731784Y-83394870D01*
X148694923Y-83338840D01*
X148706816Y-83282182D01*
X148775036Y-83215911D01*
X148907154Y-83131039D01*
X148996867Y-83080295D01*
X149144519Y-82997248D01*
X149230946Y-82941545D01*
X149267009Y-82902133D01*
X149263565Y-82867960D01*
X149237883Y-82834991D01*
X149195816Y-82762307D01*
X149197212Y-82716317D01*
X149243612Y-82677581D01*
X149343535Y-82612671D01*
X149478258Y-82533502D01*
X149527900Y-82505872D01*
X149665560Y-82427282D01*
X149770293Y-82361700D01*
X149825533Y-82319737D01*
X149830110Y-82312305D01*
X149794464Y-82278241D01*
X149704217Y-82228006D01*
X149580823Y-82170502D01*
X149445732Y-82114627D01*
X149320394Y-82069283D01*
X149226262Y-82043370D01*
X149185332Y-82044778D01*
G37*
G36*
X149772333Y-82597510D02*
G01*
X149632442Y-82679392D01*
X149561558Y-82739022D01*
X149552846Y-82784444D01*
X149586495Y-82816237D01*
X149626127Y-82866496D01*
X149599310Y-82931376D01*
X149502567Y-83014968D01*
X149332422Y-83121363D01*
X149322245Y-83127173D01*
X149171138Y-83217188D01*
X149084469Y-83280508D01*
X149052829Y-83325320D01*
X149061379Y-83354037D01*
X149088990Y-83405537D01*
X149076822Y-83457883D01*
X149016497Y-83519450D01*
X148899636Y-83598613D01*
X148717859Y-83703748D01*
X148703505Y-83711732D01*
X148497457Y-83826015D01*
X148355157Y-83907398D01*
X148269645Y-83963857D01*
X148233963Y-84003367D01*
X148241151Y-84033906D01*
X148284251Y-84063450D01*
X148356303Y-84099975D01*
X148362180Y-84102962D01*
X148524193Y-84160794D01*
X148726284Y-84198200D01*
X148937855Y-84212732D01*
X149128309Y-84201938D01*
X149244437Y-84173610D01*
X149525171Y-84024731D01*
X149757697Y-83826123D01*
X149936309Y-83589175D01*
X150055301Y-83325274D01*
X150108967Y-83045808D01*
X150091602Y-82762167D01*
X150040777Y-82584233D01*
X149999008Y-82474737D01*
X149772333Y-82597510D01*
G37*
G36*
X143216077Y-83081672D02*
G01*
X144073633Y-83081672D01*
X144073633Y-82795819D01*
X143216077Y-82795819D01*
X143216077Y-83081672D01*
G37*
G36*
X129045980Y-82466948D02*
G01*
X129648311Y-82478249D01*
X130250643Y-82489549D01*
X130262651Y-82857073D01*
X130269902Y-83078632D01*
X130266879Y-83231306D01*
X130241928Y-83327871D01*
X130183397Y-83381103D01*
X130079634Y-83403779D01*
X129918986Y-83408673D01*
X129759832Y-83408360D01*
X129290996Y-83408360D01*
X129290996Y-83081672D01*
X130026045Y-83081672D01*
X130026045Y-82795819D01*
X129564598Y-82795819D01*
X129319878Y-82800577D01*
X129152153Y-82814731D01*
X129063295Y-82838100D01*
X129054147Y-82844823D01*
X129027750Y-82914166D01*
X129010930Y-83052847D01*
X129005144Y-83245016D01*
X129011137Y-83440187D01*
X129028141Y-83577739D01*
X129054147Y-83645209D01*
X129114468Y-83665216D01*
X129238037Y-83680017D01*
X129406596Y-83689619D01*
X129601888Y-83694024D01*
X129805654Y-83693238D01*
X129999636Y-83687265D01*
X130165578Y-83676110D01*
X130285221Y-83659777D01*
X130332315Y-83644889D01*
X130402622Y-83598033D01*
X130452106Y-83541872D01*
X130484414Y-83462049D01*
X130503192Y-83344205D01*
X130512089Y-83173983D01*
X130514751Y-82937026D01*
X130514778Y-82926587D01*
X130514757Y-82706573D01*
X130511756Y-82552859D01*
X130503225Y-82450074D01*
X130486613Y-82382847D01*
X130459367Y-82335808D01*
X130418938Y-82293585D01*
X130408024Y-82283419D01*
X130363568Y-82245253D01*
X130316552Y-82218264D01*
X130252777Y-82200520D01*
X130158043Y-82190085D01*
X130018149Y-82185025D01*
X129818895Y-82183405D01*
X129672975Y-82183279D01*
X129045980Y-82183279D01*
X129045980Y-82466948D01*
G37*
G36*
X130809551Y-82315996D02*
G01*
X130822347Y-82448713D01*
X132027009Y-82471315D01*
X132027009Y-83408360D01*
X131087781Y-83408360D01*
X131087781Y-83084851D01*
X131445096Y-83073052D01*
X131802411Y-83061254D01*
X131815207Y-82928537D01*
X131828004Y-82795819D01*
X131379560Y-82795819D01*
X131190844Y-82797992D01*
X131028540Y-82803869D01*
X130912463Y-82812496D01*
X130866523Y-82820606D01*
X130834982Y-82847653D01*
X130815329Y-82909447D01*
X130805130Y-83021058D01*
X130801954Y-83197552D01*
X130801929Y-83220799D01*
X130807605Y-83427342D01*
X130823921Y-83571502D01*
X130849808Y-83644024D01*
X130850932Y-83645209D01*
X130915328Y-83668385D01*
X131042524Y-83684427D01*
X131213979Y-83693547D01*
X131411153Y-83695962D01*
X131615506Y-83691885D01*
X131808497Y-83681531D01*
X131971585Y-83665114D01*
X132086230Y-83642849D01*
X132117864Y-83630557D01*
X132195056Y-83579856D01*
X132249009Y-83515910D01*
X132283736Y-83424183D01*
X132303249Y-83290139D01*
X132311560Y-83099244D01*
X132312861Y-82924145D01*
X132311912Y-82715297D01*
X132307074Y-82570731D01*
X132295358Y-82473062D01*
X132273777Y-82404905D01*
X132239345Y-82348875D01*
X132207141Y-82308920D01*
X132101421Y-82183279D01*
X130796754Y-82183279D01*
X130809551Y-82315996D01*
G37*
G36*
X135457234Y-83408360D02*
G01*
X134354662Y-83408360D01*
X134354662Y-83694212D01*
X134999871Y-83694212D01*
X135282905Y-83691546D01*
X135489090Y-83683331D01*
X135623079Y-83669236D01*
X135689528Y-83648935D01*
X135694083Y-83645209D01*
X135714316Y-83592096D01*
X135728925Y-83475568D01*
X135738251Y-83290365D01*
X135742635Y-83031229D01*
X135743086Y-82889742D01*
X135743086Y-82183279D01*
X135457234Y-82183279D01*
X135457234Y-83408360D01*
G37*
G36*
X140398729Y-82938531D02*
G01*
X140000409Y-83314357D01*
X139602090Y-83690183D01*
X139807292Y-83692197D01*
X139900744Y-83690892D01*
X139973350Y-83677957D01*
X140042356Y-83643091D01*
X140125010Y-83575995D01*
X140238557Y-83466367D01*
X140316720Y-83387942D01*
X140492294Y-83221308D01*
X140623980Y-83118851D01*
X140710195Y-83081789D01*
X140713849Y-83081672D01*
X140777053Y-83069103D01*
X140802841Y-83015846D01*
X140806752Y-82938746D01*
X140798582Y-82841509D01*
X140763965Y-82801836D01*
X140713849Y-82795819D01*
X140630383Y-82762678D01*
X140501352Y-82664069D01*
X140328339Y-82501211D01*
X140316720Y-82489549D01*
X140178567Y-82352515D01*
X140080219Y-82263893D01*
X140004916Y-82213180D01*
X139935899Y-82189874D01*
X139856409Y-82183473D01*
X139827986Y-82183279D01*
X139643477Y-82183279D01*
X140398729Y-82938531D01*
G37*
G36*
X140929260Y-83694212D02*
G01*
X141216955Y-83694212D01*
X141205824Y-82948955D01*
X141194694Y-82203697D01*
X140929260Y-82178105D01*
X140929260Y-83694212D01*
G37*
G36*
X141480546Y-82448713D02*
G01*
X142022950Y-82460117D01*
X142565353Y-82471520D01*
X142542283Y-83387942D01*
X142001205Y-83399336D01*
X141460128Y-83410730D01*
X141460128Y-83694212D01*
X142001205Y-83692577D01*
X142262332Y-83688363D01*
X142451936Y-83676930D01*
X142579923Y-83657365D01*
X142648944Y-83632972D01*
X142731848Y-83571882D01*
X142789615Y-83484993D01*
X142825433Y-83359475D01*
X142842492Y-83182498D01*
X142843983Y-82941235D01*
X142841938Y-82856731D01*
X142835208Y-82652391D01*
X142826563Y-82512927D01*
X142812256Y-82421565D01*
X142788543Y-82361529D01*
X142751678Y-82316045D01*
X142713558Y-82281744D01*
X142663819Y-82242626D01*
X142611115Y-82215516D01*
X142540151Y-82198221D01*
X142435627Y-82188547D01*
X142282246Y-82184301D01*
X142064710Y-82183288D01*
X142026968Y-82183279D01*
X141454954Y-82183279D01*
X141480546Y-82448713D01*
G37*
G36*
X143093569Y-82469131D02*
G01*
X144196141Y-82469131D01*
X144196141Y-82874152D01*
X144193737Y-83053903D01*
X144187273Y-83207097D01*
X144177871Y-83312491D01*
X144171354Y-83343766D01*
X144149210Y-83370862D01*
X144098623Y-83389349D01*
X144006630Y-83400746D01*
X143860268Y-83406573D01*
X143646575Y-83408347D01*
X143620068Y-83408360D01*
X143093569Y-83408360D01*
X143093569Y-83694212D01*
X143614228Y-83691623D01*
X143819120Y-83688092D01*
X143999801Y-83680338D01*
X144137593Y-83669480D01*
X144213814Y-83656632D01*
X144216559Y-83655607D01*
X144298612Y-83616337D01*
X144357977Y-83567457D01*
X144397962Y-83496332D01*
X144421872Y-83390326D01*
X144433016Y-83236803D01*
X144434700Y-83023129D01*
X144432043Y-82832230D01*
X144420739Y-82203697D01*
X143757154Y-82192477D01*
X143093569Y-82181256D01*
X143093569Y-82469131D01*
G37*
G36*
X144665755Y-82448713D02*
G01*
X145257877Y-82472709D01*
X145257877Y-83694212D01*
X145543729Y-83694212D01*
X145543729Y-82472709D01*
X145839791Y-82460711D01*
X146135852Y-82448713D01*
X146161444Y-82183279D01*
X144640163Y-82183279D01*
X144665755Y-82448713D01*
G37*
G36*
X133112079Y-82181070D02*
G01*
X132896690Y-82239664D01*
X132742273Y-82345043D01*
X132642251Y-82503454D01*
X132590048Y-82721143D01*
X132578295Y-82938746D01*
X132594817Y-83191470D01*
X132648315Y-83382324D01*
X132744695Y-83524966D01*
X132874602Y-83624362D01*
X133017146Y-83677929D01*
X133208631Y-83711413D01*
X133418384Y-83722953D01*
X133615731Y-83710687D01*
X133756935Y-83677922D01*
X133963846Y-83561462D01*
X134111191Y-83390913D01*
X134197140Y-83169945D01*
X134219866Y-82902233D01*
X134218260Y-82882199D01*
X133935480Y-82882199D01*
X133931311Y-83104906D01*
X133885639Y-83264803D01*
X133790550Y-83369294D01*
X133638126Y-83425782D01*
X133420453Y-83441671D01*
X133339561Y-83439557D01*
X133179211Y-83429657D01*
X133076545Y-83411695D01*
X133007575Y-83378060D01*
X132948315Y-83321137D01*
X132941410Y-83313185D01*
X132872267Y-83186205D01*
X132840105Y-83025352D01*
X132842086Y-82851818D01*
X132875368Y-82686793D01*
X132937114Y-82551467D01*
X133024482Y-82467032D01*
X133056483Y-82454461D01*
X133145384Y-82441340D01*
X133284019Y-82432066D01*
X133423365Y-82428853D01*
X133583322Y-82433513D01*
X133689568Y-82452872D01*
X133769687Y-82493798D01*
X133809022Y-82524884D01*
X133873052Y-82591135D01*
X133909755Y-82668814D01*
X133928735Y-82785055D01*
X133935480Y-82882199D01*
X134218260Y-82882199D01*
X134209211Y-82769333D01*
X134160354Y-82543427D01*
X134072495Y-82376262D01*
X133937241Y-82261586D01*
X133746196Y-82193148D01*
X133490966Y-82164697D01*
X133395016Y-82163017D01*
X133112079Y-82181070D01*
G37*
G36*
X136542311Y-82181008D02*
G01*
X136326981Y-82239611D01*
X136172687Y-82344909D01*
X136072869Y-82503145D01*
X136020965Y-82720559D01*
X136009525Y-82938746D01*
X136024845Y-83183695D01*
X136074484Y-83367885D01*
X136165474Y-83507532D01*
X136304247Y-83618484D01*
X136427371Y-83666949D01*
X136602435Y-83702164D01*
X136800382Y-83721346D01*
X136992153Y-83721714D01*
X137148692Y-83700485D01*
X137151929Y-83699647D01*
X137355577Y-83618501D01*
X137501009Y-83493329D01*
X137593112Y-83316544D01*
X137636771Y-83080558D01*
X137641961Y-82938746D01*
X137641092Y-82926518D01*
X137376527Y-82926518D01*
X137362119Y-83134877D01*
X137312340Y-83281996D01*
X137217353Y-83376229D01*
X137067321Y-83425926D01*
X136852410Y-83439443D01*
X136774555Y-83437717D01*
X136607585Y-83427214D01*
X136498632Y-83406051D01*
X136424166Y-83368058D01*
X136387959Y-83336334D01*
X136335189Y-83265727D01*
X136303108Y-83168779D01*
X136284932Y-83021673D01*
X136280981Y-82960765D01*
X136274697Y-82808457D01*
X136281781Y-82711320D01*
X136309158Y-82643106D01*
X136363755Y-82577570D01*
X136388792Y-82552192D01*
X136457953Y-82488864D01*
X136524257Y-82451817D01*
X136612332Y-82434060D01*
X136746803Y-82428602D01*
X136825241Y-82428295D01*
X136987732Y-82430706D01*
X137093023Y-82442441D01*
X137165546Y-82470252D01*
X137229733Y-82520890D01*
X137257160Y-82547662D01*
X137323859Y-82623429D01*
X137359834Y-82699939D01*
X137374284Y-82806379D01*
X137376527Y-82926518D01*
X137641092Y-82926518D01*
X137622841Y-82669934D01*
X137561093Y-82465309D01*
X137450135Y-82318617D01*
X137283386Y-82223606D01*
X137054264Y-82174023D01*
X136825241Y-82162861D01*
X136542311Y-82181008D01*
G37*
G36*
X139279445Y-82163051D02*
G01*
X139229115Y-82189930D01*
X139159532Y-82246135D01*
X139062013Y-82338858D01*
X138927877Y-82475288D01*
X138748440Y-82662616D01*
X138703697Y-82709613D01*
X138213665Y-83224598D01*
X138202271Y-82703938D01*
X138190877Y-82183279D01*
X137907395Y-82183279D01*
X137907395Y-82894993D01*
X137908504Y-83160991D01*
X137912476Y-83357029D01*
X137920277Y-83494794D01*
X137932874Y-83585975D01*
X137951234Y-83642262D01*
X137971566Y-83670877D01*
X138033924Y-83722500D01*
X138063447Y-83735941D01*
X138099296Y-83708210D01*
X138181962Y-83630633D01*
X138301964Y-83512532D01*
X138449818Y-83363226D01*
X138603493Y-83205073D01*
X138768784Y-83035086D01*
X138915100Y-82887591D01*
X139032933Y-82771929D01*
X139112777Y-82697442D01*
X139144570Y-82673311D01*
X139155458Y-82711567D01*
X139164453Y-82816027D01*
X139170686Y-82971229D01*
X139173285Y-83161712D01*
X139173311Y-83183762D01*
X139173311Y-83694212D01*
X139418328Y-83694212D01*
X139418328Y-82943115D01*
X139417389Y-82671938D01*
X139414014Y-82471806D01*
X139407364Y-82332106D01*
X139396600Y-82242225D01*
X139380881Y-82191553D01*
X139359369Y-82169477D01*
X139357074Y-82168512D01*
X139319204Y-82158308D01*
X139279445Y-82163051D01*
G37*
G36*
X127439094Y-84515842D02*
G01*
X127386222Y-84535489D01*
X127378391Y-84577247D01*
X127379286Y-84582395D01*
X127411242Y-84630382D01*
X127495565Y-84657061D01*
X127586460Y-84666305D01*
X127780064Y-84678751D01*
X127780064Y-84901112D01*
X127785664Y-85035797D01*
X127805291Y-85104781D01*
X127841318Y-85123472D01*
X127875757Y-85105681D01*
X127894855Y-85042142D01*
X127902151Y-84917606D01*
X127902572Y-84859475D01*
X127893805Y-84689982D01*
X127857312Y-84585869D01*
X127777801Y-84531794D01*
X127639981Y-84512418D01*
X127555156Y-84510932D01*
X127439094Y-84515842D01*
G37*
G36*
X128220829Y-84518768D02*
G01*
X128104067Y-84553205D01*
X128044612Y-84625276D01*
X128025132Y-84732280D01*
X128049239Y-84836019D01*
X128074083Y-84870289D01*
X128145202Y-84905097D01*
X128249460Y-84920137D01*
X128358166Y-84916286D01*
X128442626Y-84894424D01*
X128474276Y-84858038D01*
X128442714Y-84812374D01*
X128342560Y-84796837D01*
X128333760Y-84796784D01*
X128222999Y-84781624D01*
X128162687Y-84743690D01*
X128165286Y-84694300D01*
X128193401Y-84669281D01*
X128273168Y-84645919D01*
X128372186Y-84643220D01*
X128450018Y-84657526D01*
X128488157Y-84698578D01*
X128504336Y-84790561D01*
X128507251Y-84827411D01*
X128519808Y-85000964D01*
X128354116Y-85000964D01*
X128239656Y-85010794D01*
X128191834Y-85043489D01*
X128188424Y-85062218D01*
X128223409Y-85102889D01*
X128310256Y-85123122D01*
X128421800Y-85123101D01*
X128530879Y-85103013D01*
X128610330Y-85063044D01*
X128614285Y-85059301D01*
X128663447Y-84962284D01*
X128679207Y-84827487D01*
X128662352Y-84690920D01*
X128613670Y-84588589D01*
X128603778Y-84578515D01*
X128506932Y-84532878D01*
X128367415Y-84512361D01*
X128220829Y-84518768D01*
G37*
G36*
X128787265Y-84516468D02*
G01*
X128775789Y-84534486D01*
X128816012Y-84580288D01*
X128900454Y-84656254D01*
X129061197Y-84798175D01*
X128902375Y-84960824D01*
X128814217Y-85053134D01*
X128778717Y-85101614D01*
X128790958Y-85120361D01*
X128845643Y-85123472D01*
X128951552Y-85087481D01*
X129082331Y-84983577D01*
X129109156Y-84956702D01*
X129270578Y-84789932D01*
X129110640Y-84650432D01*
X128982550Y-84558852D01*
X128869805Y-84514642D01*
X128845206Y-84512632D01*
X128787265Y-84516468D01*
G37*
G36*
X129336233Y-84271292D02*
G01*
X129312603Y-84297047D01*
X129299027Y-84357620D01*
X129292755Y-84467451D01*
X129291037Y-84640979D01*
X129290996Y-84694694D01*
X129292020Y-84885978D01*
X129296926Y-85010037D01*
X129308464Y-85081310D01*
X129329384Y-85114238D01*
X129362437Y-85123260D01*
X129372668Y-85123472D01*
X129409103Y-85118096D01*
X129432734Y-85092341D01*
X129446310Y-85031768D01*
X129452582Y-84921937D01*
X129454300Y-84748409D01*
X129454340Y-84694694D01*
X129453316Y-84503411D01*
X129448411Y-84379352D01*
X129436873Y-84308078D01*
X129415953Y-84275150D01*
X129382900Y-84266128D01*
X129372668Y-84265916D01*
X129336233Y-84271292D01*
G37*
G36*
X129737624Y-84522399D02*
G01*
X129639132Y-84566172D01*
X129590507Y-84656306D01*
X129576878Y-84806858D01*
X129576848Y-84817202D01*
X129588274Y-84968832D01*
X129632452Y-85061403D01*
X129724233Y-85108368D01*
X129878468Y-85123182D01*
X129914941Y-85123472D01*
X130064352Y-85106294D01*
X130161284Y-85049887D01*
X130169121Y-85041634D01*
X130218059Y-84942898D01*
X130198483Y-84848576D01*
X130123096Y-84771665D01*
X130004603Y-84725163D01*
X129856645Y-84721937D01*
X129774034Y-84752356D01*
X129759651Y-84798591D01*
X129806957Y-84843597D01*
X129909408Y-84870331D01*
X129913746Y-84870712D01*
X130028362Y-84895082D01*
X130066871Y-84943522D01*
X130066881Y-84944523D01*
X130046225Y-84983322D01*
X129973126Y-84996174D01*
X129893328Y-84993103D01*
X129783713Y-84980267D01*
X129731093Y-84949632D01*
X129710820Y-84881245D01*
X129706536Y-84841902D01*
X129713127Y-84725501D01*
X129768987Y-84660441D01*
X129886478Y-84635437D01*
X129934164Y-84634065D01*
X130036001Y-84617882D01*
X130066881Y-84572186D01*
X130040346Y-84529911D01*
X129952041Y-84512214D01*
X129900852Y-84510932D01*
X129737624Y-84522399D01*
G37*
G36*
X131157902Y-84351673D02*
G01*
X131083695Y-84449861D01*
X130986531Y-84606052D01*
X130906869Y-84734593D01*
X130842668Y-84830457D01*
X130805447Y-84876646D01*
X130801929Y-84878456D01*
X130772493Y-84846010D01*
X130713445Y-84760003D01*
X130636302Y-84637433D01*
X130617327Y-84606052D01*
X130514468Y-84441309D01*
X130442080Y-84347808D01*
X130394938Y-84327635D01*
X130367817Y-84382875D01*
X130355494Y-84515616D01*
X130352733Y-84711709D01*
X130354888Y-84904293D01*
X130362596Y-85028253D01*
X130377718Y-85096558D01*
X130402115Y-85122173D01*
X130411853Y-85123472D01*
X130451146Y-85095685D01*
X130474755Y-85004937D01*
X130483316Y-84909083D01*
X130495659Y-84694694D01*
X130577331Y-84831883D01*
X130651780Y-84947988D01*
X130724593Y-85048453D01*
X130731098Y-85056481D01*
X130785802Y-85116011D01*
X130822664Y-85113830D01*
X130867140Y-85062218D01*
X130927970Y-84976097D01*
X131003392Y-84858658D01*
X131028577Y-84817202D01*
X131126068Y-84653858D01*
X131127342Y-84888665D01*
X131133254Y-85027776D01*
X131151778Y-85100932D01*
X131186979Y-85123402D01*
X131189871Y-85123472D01*
X131218333Y-85110039D01*
X131236649Y-85060811D01*
X131246808Y-84962397D01*
X131250805Y-84801406D01*
X131251125Y-84711709D01*
X131247911Y-84504610D01*
X131234785Y-84376961D01*
X131206524Y-84326678D01*
X131157902Y-84351673D01*
G37*
G36*
X131924742Y-84519723D02*
G01*
X131847853Y-84554495D01*
X131798656Y-84613022D01*
X131755717Y-84692288D01*
X131762155Y-84754840D01*
X131800118Y-84819433D01*
X131859011Y-84887478D01*
X131935489Y-84912990D01*
X132036447Y-84911314D01*
X132158915Y-84889929D01*
X132216162Y-84855861D01*
X132204225Y-84820079D01*
X132119138Y-84793555D01*
X132080585Y-84789191D01*
X131965169Y-84765366D01*
X131925014Y-84718198D01*
X131924919Y-84715112D01*
X131951892Y-84672520D01*
X132041303Y-84654970D01*
X132088263Y-84653858D01*
X132251607Y-84653858D01*
X132251607Y-84817202D01*
X132246912Y-84922248D01*
X132218069Y-84971094D01*
X132142939Y-84989185D01*
X132098472Y-84993220D01*
X131984529Y-85017551D01*
X131945338Y-85064401D01*
X131945337Y-85064683D01*
X131980578Y-85101351D01*
X132067140Y-85121175D01*
X132176285Y-85123453D01*
X132279272Y-85107482D01*
X132345530Y-85074469D01*
X132373483Y-85007847D01*
X132391226Y-84891231D01*
X132394533Y-84810472D01*
X132382915Y-84662951D01*
X132338262Y-84572457D01*
X132245873Y-84526171D01*
X132091050Y-84511273D01*
X132051053Y-84510932D01*
X131924742Y-84519723D01*
G37*
G36*
X132585967Y-84516276D02*
G01*
X132531664Y-84538465D01*
X132517111Y-84586737D01*
X132517041Y-84592604D01*
X132529065Y-84643643D01*
X132578991Y-84667777D01*
X132687602Y-84674245D01*
X132700803Y-84674276D01*
X132884565Y-84674276D01*
X132884565Y-84898874D01*
X132888110Y-85028669D01*
X132903437Y-85096285D01*
X132937585Y-85121077D01*
X132966238Y-85123472D01*
X133013436Y-85113724D01*
X133038023Y-85071574D01*
X133047038Y-84977669D01*
X133047910Y-84898874D01*
X133029943Y-84713701D01*
X132970363Y-84593674D01*
X132860651Y-84529269D01*
X132700803Y-84510932D01*
X132585967Y-84516276D01*
G37*
G36*
X133423668Y-84512724D02*
G01*
X133310855Y-84532427D01*
X133229268Y-84568894D01*
X133176208Y-84650539D01*
X133150567Y-84776479D01*
X133153927Y-84913530D01*
X133187870Y-85028508D01*
X133206045Y-85055942D01*
X133292394Y-85105754D01*
X133423654Y-85126844D01*
X133568586Y-85120015D01*
X133695951Y-85086069D01*
X133762690Y-85041634D01*
X133811628Y-84942898D01*
X133792052Y-84848576D01*
X133716665Y-84771665D01*
X133598172Y-84725163D01*
X133450214Y-84721937D01*
X133367603Y-84752356D01*
X133353220Y-84798591D01*
X133400526Y-84843597D01*
X133502977Y-84870331D01*
X133507315Y-84870712D01*
X133621931Y-84895082D01*
X133660440Y-84943522D01*
X133660450Y-84944523D01*
X133639794Y-84983322D01*
X133566695Y-84996174D01*
X133486897Y-84993103D01*
X133378199Y-84981577D01*
X133328185Y-84952675D01*
X133314066Y-84883302D01*
X133313344Y-84817202D01*
X133317234Y-84714617D01*
X133344097Y-84665602D01*
X133416722Y-84647058D01*
X133486897Y-84641301D01*
X133610800Y-84620168D01*
X133659373Y-84579174D01*
X133660450Y-84569838D01*
X133625222Y-84531488D01*
X133537376Y-84512430D01*
X133423668Y-84512724D01*
G37*
G36*
X133825173Y-84537093D02*
G01*
X133823794Y-84555057D01*
X133847813Y-84621483D01*
X133909243Y-84727165D01*
X133992143Y-84849522D01*
X134080574Y-84965972D01*
X134158594Y-85053933D01*
X134199188Y-85086848D01*
X134303317Y-85114295D01*
X134370644Y-85070106D01*
X134395469Y-84958166D01*
X134395498Y-84953122D01*
X134395498Y-84821045D01*
X134550355Y-84972259D01*
X134650080Y-85066705D01*
X134710308Y-85111804D01*
X134748250Y-85116985D01*
X134776634Y-85096248D01*
X134790329Y-85044424D01*
X134800106Y-84934661D01*
X134803858Y-84790673D01*
X134803858Y-84789978D01*
X134801549Y-84641922D01*
X134791178Y-84557834D01*
X134767578Y-84520062D01*
X134725583Y-84510953D01*
X134722186Y-84510932D01*
X134669987Y-84523750D01*
X134646043Y-84576278D01*
X134640404Y-84684485D01*
X134640293Y-84858038D01*
X134480562Y-84674276D01*
X134374262Y-84565616D01*
X134301805Y-84529936D01*
X134256269Y-84569443D01*
X134230734Y-84686344D01*
X134224523Y-84755948D01*
X134211736Y-84939710D01*
X134079396Y-84725321D01*
X133994331Y-84607202D01*
X133915622Y-84531140D01*
X133855244Y-84505112D01*
X133825173Y-84537093D01*
G37*
G36*
X134968961Y-84272152D02*
G01*
X134944803Y-84301307D01*
X134932021Y-84369056D01*
X134927071Y-84491070D01*
X134926366Y-84627111D01*
X134932318Y-84836669D01*
X134956427Y-84978023D01*
X135008071Y-85064169D01*
X135096628Y-85108100D01*
X135231476Y-85122812D01*
X135284581Y-85123472D01*
X135420400Y-85116113D01*
X135502742Y-85087959D01*
X135557009Y-85032714D01*
X135604284Y-84923647D01*
X135620578Y-84817202D01*
X135592907Y-84657886D01*
X135508619Y-84557226D01*
X135365798Y-84513321D01*
X135311993Y-84510932D01*
X135198042Y-84516419D01*
X135144525Y-84539140D01*
X135130580Y-84588485D01*
X135130546Y-84592604D01*
X135144244Y-84646037D01*
X135199608Y-84669652D01*
X135293890Y-84674276D01*
X135398477Y-84678620D01*
X135444956Y-84705311D01*
X135456871Y-84774837D01*
X135457234Y-84816424D01*
X135446166Y-84918412D01*
X135401939Y-84968291D01*
X135358091Y-84983455D01*
X135244811Y-84992573D01*
X135174329Y-84981482D01*
X135132836Y-84960944D01*
X135107615Y-84920067D01*
X135094698Y-84841443D01*
X135090116Y-84707661D01*
X135089710Y-84610270D01*
X135088167Y-84442296D01*
X135081004Y-84339945D01*
X135064419Y-84287186D01*
X135034610Y-84267992D01*
X135008038Y-84265916D01*
X134968961Y-84272152D01*
G37*
G36*
X135765592Y-84516874D02*
G01*
X135714395Y-84541272D01*
X135702250Y-84592604D01*
X135714274Y-84643643D01*
X135764200Y-84667777D01*
X135872811Y-84674245D01*
X135886012Y-84674276D01*
X136069774Y-84674276D01*
X136069774Y-84898874D01*
X136073319Y-85028669D01*
X136088646Y-85096285D01*
X136122794Y-85121077D01*
X136151447Y-85123472D01*
X136197232Y-85114448D01*
X136221878Y-85074875D01*
X136231692Y-84986000D01*
X136233119Y-84880772D01*
X136216984Y-84702531D01*
X136161135Y-84589214D01*
X136054400Y-84529222D01*
X135885611Y-84510959D01*
X135876926Y-84510932D01*
X135765592Y-84516874D01*
G37*
G36*
X136516402Y-84522399D02*
G01*
X136417910Y-84566172D01*
X136369285Y-84656306D01*
X136355656Y-84806858D01*
X136355627Y-84817202D01*
X136361884Y-84955638D01*
X136385167Y-85035667D01*
X136432243Y-85079909D01*
X136434614Y-85081199D01*
X136546491Y-85114374D01*
X136688294Y-85123031D01*
X136826634Y-85108604D01*
X136928122Y-85072526D01*
X136944832Y-85059301D01*
X137001972Y-84959487D01*
X136989021Y-84861060D01*
X136916510Y-84778450D01*
X136794971Y-84726090D01*
X136693646Y-84715112D01*
X136599003Y-84725664D01*
X136562781Y-84766075D01*
X136559807Y-84796784D01*
X136575795Y-84853074D01*
X136638210Y-84875786D01*
X136702733Y-84878456D01*
X136806912Y-84890925D01*
X136844908Y-84931932D01*
X136845659Y-84942058D01*
X136826923Y-84982248D01*
X136758789Y-84996170D01*
X136672106Y-84993103D01*
X136562491Y-84980267D01*
X136509872Y-84949632D01*
X136489598Y-84881245D01*
X136485314Y-84841902D01*
X136491905Y-84725501D01*
X136547766Y-84660441D01*
X136665256Y-84635437D01*
X136712942Y-84634065D01*
X136814779Y-84617882D01*
X136845659Y-84572186D01*
X136819124Y-84529911D01*
X136730819Y-84512214D01*
X136679630Y-84510932D01*
X136516402Y-84522399D01*
G37*
G36*
X137261792Y-84533273D02*
G01*
X137158705Y-84605763D01*
X137104128Y-84736600D01*
X137090675Y-84898874D01*
X137094220Y-85028669D01*
X137109547Y-85096285D01*
X137143694Y-85121077D01*
X137172347Y-85123472D01*
X137219749Y-85113614D01*
X137244324Y-85071080D01*
X137253218Y-84976431D01*
X137254019Y-84901339D01*
X137254019Y-84679206D01*
X137406814Y-84666532D01*
X137523200Y-84641476D01*
X137571833Y-84588225D01*
X137573153Y-84582395D01*
X137567416Y-84536047D01*
X137514439Y-84515140D01*
X137420357Y-84510932D01*
X137261792Y-84533273D01*
G37*
G36*
X137666780Y-84271292D02*
G01*
X137643150Y-84297047D01*
X137629574Y-84357620D01*
X137623302Y-84467451D01*
X137621583Y-84640979D01*
X137621543Y-84694694D01*
X137622567Y-84885978D01*
X137627473Y-85010037D01*
X137639010Y-85081310D01*
X137659931Y-85114238D01*
X137692984Y-85123260D01*
X137703215Y-85123472D01*
X137739650Y-85118096D01*
X137763280Y-85092341D01*
X137776856Y-85031768D01*
X137783128Y-84921937D01*
X137784847Y-84748409D01*
X137784887Y-84694694D01*
X137783863Y-84503411D01*
X137778957Y-84379352D01*
X137767420Y-84308078D01*
X137746499Y-84275150D01*
X137713446Y-84266128D01*
X137703215Y-84265916D01*
X137666780Y-84271292D01*
G37*
G36*
X138415288Y-84520481D02*
G01*
X138337620Y-84556456D01*
X138297671Y-84603729D01*
X138251424Y-84725453D01*
X138276947Y-84824550D01*
X138365392Y-84891462D01*
X138507910Y-84916629D01*
X138583315Y-84912272D01*
X138685380Y-84884482D01*
X138711838Y-84844235D01*
X138663905Y-84806800D01*
X138573511Y-84789191D01*
X138458095Y-84765366D01*
X138417940Y-84718198D01*
X138417845Y-84715112D01*
X138444818Y-84672520D01*
X138534229Y-84654970D01*
X138581189Y-84653858D01*
X138744533Y-84653858D01*
X138744533Y-84817202D01*
X138739838Y-84922248D01*
X138710995Y-84971094D01*
X138635865Y-84989185D01*
X138591398Y-84993220D01*
X138477455Y-85017551D01*
X138438264Y-85064401D01*
X138438263Y-85064683D01*
X138473504Y-85101351D01*
X138560066Y-85121175D01*
X138669211Y-85123453D01*
X138772198Y-85107482D01*
X138838456Y-85074469D01*
X138866409Y-85007847D01*
X138884152Y-84891231D01*
X138887459Y-84810472D01*
X138875841Y-84662951D01*
X138831188Y-84572457D01*
X138738799Y-84526171D01*
X138583976Y-84511273D01*
X138543979Y-84510932D01*
X138415288Y-84520481D01*
G37*
G36*
X139116608Y-84513969D02*
G01*
X139043372Y-84527286D01*
X139014206Y-84557193D01*
X139009967Y-84592604D01*
X139019716Y-84639802D01*
X139061865Y-84664390D01*
X139155770Y-84673405D01*
X139234565Y-84674276D01*
X139459164Y-84674276D01*
X139459164Y-84812833D01*
X139446527Y-84912471D01*
X139397952Y-84970059D01*
X139297444Y-84996002D01*
X139169972Y-85000964D01*
X139057655Y-85011509D01*
X139012338Y-85046283D01*
X139009967Y-85062218D01*
X139028923Y-85097932D01*
X139096050Y-85117024D01*
X139226739Y-85123378D01*
X139252668Y-85123472D01*
X139396804Y-85118533D01*
X139484381Y-85098820D01*
X139540173Y-85056994D01*
X139558938Y-85032714D01*
X139606213Y-84923647D01*
X139622508Y-84817202D01*
X139601324Y-84694183D01*
X139558938Y-84601690D01*
X139508883Y-84549084D01*
X139436847Y-84521498D01*
X139318056Y-84511590D01*
X139252668Y-84510932D01*
X139116608Y-84513969D01*
G37*
G36*
X139773105Y-84516276D02*
G01*
X139718802Y-84538465D01*
X139704250Y-84586737D01*
X139704180Y-84592604D01*
X139716203Y-84643643D01*
X139766129Y-84667777D01*
X139874741Y-84674245D01*
X139887942Y-84674276D01*
X140071704Y-84674276D01*
X140071704Y-84898874D01*
X140075249Y-85028669D01*
X140090576Y-85096285D01*
X140124723Y-85121077D01*
X140153376Y-85123472D01*
X140200574Y-85113724D01*
X140225161Y-85071574D01*
X140234177Y-84977669D01*
X140235048Y-84898874D01*
X140217081Y-84713701D01*
X140157501Y-84593674D01*
X140047789Y-84529269D01*
X139887942Y-84510932D01*
X139773105Y-84516276D01*
G37*
G36*
X140911037Y-84532926D02*
G01*
X140892244Y-84608992D01*
X140888424Y-84713675D01*
X140871591Y-84867603D01*
X140813625Y-84957883D01*
X140703327Y-84996857D01*
X140627712Y-85000964D01*
X140569436Y-84994838D01*
X140537063Y-84963437D01*
X140521014Y-84887226D01*
X140512729Y-84766554D01*
X140500239Y-84627525D01*
X140477009Y-84551633D01*
X140436694Y-84520463D01*
X140427162Y-84518186D01*
X140389713Y-84518860D01*
X140369065Y-84549470D01*
X140361774Y-84626057D01*
X140364400Y-84764663D01*
X140365908Y-84803641D01*
X140377974Y-85103054D01*
X140602572Y-85114616D01*
X140785476Y-85109251D01*
X140906999Y-85069173D01*
X140919051Y-85061256D01*
X140972252Y-85010719D01*
X141000159Y-84939033D01*
X141010228Y-84821232D01*
X141010932Y-84753633D01*
X141006148Y-84612126D01*
X140989206Y-84536481D01*
X140956222Y-84511306D01*
X140949678Y-84510932D01*
X140911037Y-84532926D01*
G37*
G36*
X141318032Y-84533891D02*
G01*
X141200961Y-84605668D01*
X141142475Y-84730614D01*
X141133440Y-84831291D01*
X141155627Y-84976767D01*
X141228130Y-85068858D01*
X141359862Y-85114834D01*
X141491655Y-85123472D01*
X141627474Y-85116113D01*
X141709816Y-85087959D01*
X141764083Y-85032714D01*
X141811358Y-84923647D01*
X141827652Y-84817202D01*
X141827098Y-84813799D01*
X141664308Y-84813799D01*
X141634741Y-84933846D01*
X141551961Y-84996081D01*
X141424850Y-84995741D01*
X141361378Y-84976177D01*
X141311013Y-84914884D01*
X141296784Y-84812833D01*
X141300960Y-84727693D01*
X141328302Y-84687376D01*
X141401034Y-84675125D01*
X141480546Y-84674276D01*
X141593462Y-84677403D01*
X141646932Y-84698032D01*
X141663180Y-84753037D01*
X141664308Y-84813799D01*
X141827098Y-84813799D01*
X141802096Y-84660346D01*
X141721914Y-84561440D01*
X141581832Y-84515575D01*
X141498649Y-84510932D01*
X141318032Y-84533891D01*
G37*
G36*
X142071242Y-84515333D02*
G01*
X142010919Y-84533973D01*
X141991739Y-84575002D01*
X141990996Y-84592604D01*
X142003085Y-84643079D01*
X142052863Y-84668824D01*
X142160596Y-84678944D01*
X142184967Y-84679732D01*
X142378938Y-84685189D01*
X142195176Y-84711419D01*
X142042896Y-84740160D01*
X141955641Y-84780151D01*
X141916770Y-84843550D01*
X141909324Y-84920265D01*
X141932114Y-85022453D01*
X142007006Y-85086536D01*
X142143786Y-85117967D01*
X142274164Y-85123472D01*
X142403505Y-85117073D01*
X142467166Y-85094873D01*
X142481029Y-85062218D01*
X142455357Y-85020635D01*
X142369297Y-85002296D01*
X142307475Y-85000339D01*
X142182023Y-84991186D01*
X142088220Y-84968922D01*
X142041174Y-84939863D01*
X142055994Y-84910325D01*
X142073813Y-84902645D01*
X142155093Y-84884621D01*
X142268397Y-84870152D01*
X142272214Y-84869821D01*
X142403626Y-84833270D01*
X142478719Y-84759695D01*
X142487720Y-84663260D01*
X142457755Y-84600919D01*
X142399215Y-84543485D01*
X142311412Y-84516677D01*
X142192861Y-84510932D01*
X142071242Y-84515333D01*
G37*
G36*
X143227282Y-84525320D02*
G01*
X143100380Y-84574173D01*
X143023763Y-84676421D01*
X142985063Y-84842623D01*
X142980135Y-84892090D01*
X142971845Y-85023175D01*
X142978555Y-85092506D01*
X143005739Y-85119440D01*
X143045542Y-85123472D01*
X143096065Y-85112723D01*
X143124109Y-85067379D01*
X143138558Y-84967791D01*
X143142480Y-84909083D01*
X143154823Y-84694694D01*
X143501929Y-84669580D01*
X143501929Y-84896526D01*
X143505301Y-85026964D01*
X143520169Y-85095223D01*
X143553658Y-85120681D01*
X143585390Y-85123472D01*
X143628252Y-85117186D01*
X143652034Y-85086805D01*
X143660907Y-85015044D01*
X143659045Y-84884618D01*
X143656853Y-84827411D01*
X143644855Y-84531350D01*
X143416838Y-84519306D01*
X143227282Y-84525320D01*
G37*
G36*
X143909093Y-84534906D02*
G01*
X143801652Y-84597972D01*
X143749597Y-84686846D01*
X143762619Y-84788244D01*
X143811116Y-84855121D01*
X143887052Y-84897003D01*
X143991526Y-84917821D01*
X144096373Y-84917173D01*
X144173431Y-84894655D01*
X144196141Y-84860625D01*
X144158527Y-84813142D01*
X144063424Y-84789162D01*
X143957616Y-84762355D01*
X143923505Y-84720296D01*
X143957421Y-84679197D01*
X144055695Y-84655271D01*
X144094051Y-84653858D01*
X144257395Y-84653858D01*
X144257395Y-84817202D01*
X144252700Y-84922248D01*
X144223857Y-84971094D01*
X144148726Y-84989185D01*
X144104260Y-84993220D01*
X143990317Y-85017551D01*
X143951126Y-85064401D01*
X143951125Y-85064683D01*
X143986366Y-85101351D01*
X144072928Y-85121175D01*
X144182073Y-85123453D01*
X144285060Y-85107482D01*
X144351318Y-85074469D01*
X144379271Y-85007847D01*
X144397013Y-84891231D01*
X144400321Y-84810472D01*
X144388441Y-84661980D01*
X144342992Y-84571283D01*
X144249262Y-84525345D01*
X144092539Y-84511133D01*
X144062229Y-84510932D01*
X143909093Y-84534906D01*
G37*
G36*
X145580225Y-84325799D02*
G01*
X145452139Y-84387528D01*
X145447147Y-84391388D01*
X145385402Y-84450193D01*
X145352973Y-84519938D01*
X145340841Y-84628008D01*
X145339549Y-84718076D01*
X145353338Y-84905222D01*
X145402948Y-85026549D01*
X145500744Y-85094470D01*
X145659090Y-85121398D01*
X145743386Y-85123472D01*
X145920835Y-85111738D01*
X146039332Y-85073607D01*
X146075337Y-85049413D01*
X146141925Y-84964253D01*
X146179075Y-84830139D01*
X146186966Y-84765435D01*
X146189449Y-84721361D01*
X146035166Y-84721361D01*
X146021797Y-84844460D01*
X145985014Y-84937084D01*
X145962299Y-84959197D01*
X145872729Y-84984649D01*
X145748666Y-84987446D01*
X145622529Y-84970779D01*
X145526738Y-84937841D01*
X145498468Y-84913530D01*
X145470065Y-84821918D01*
X145464379Y-84699383D01*
X145480189Y-84584180D01*
X145511061Y-84519099D01*
X145579375Y-84489418D01*
X145694155Y-84472006D01*
X145747910Y-84470096D01*
X145871765Y-84480174D01*
X145963912Y-84505575D01*
X145984758Y-84519099D01*
X146023396Y-84601628D01*
X146035166Y-84721361D01*
X146189449Y-84721361D01*
X146194320Y-84634926D01*
X146177393Y-84549908D01*
X146125248Y-84475297D01*
X146082754Y-84431134D01*
X145988950Y-84351929D01*
X145892489Y-84315460D01*
X145756558Y-84306752D01*
X145580225Y-84325799D01*
G37*
G36*
X144681741Y-84532553D02*
G01*
X144578197Y-84602609D01*
X144529329Y-84728886D01*
X144522829Y-84824297D01*
X144548040Y-84979172D01*
X144627457Y-85075833D01*
X144766752Y-85119591D01*
X144842524Y-85123472D01*
X144958717Y-85114170D01*
X145008507Y-85083030D01*
X145012861Y-85062218D01*
X144977548Y-85012842D01*
X144914111Y-85000964D01*
X144780496Y-84986133D01*
X144709567Y-84933453D01*
X144686444Y-84830642D01*
X144686173Y-84812833D01*
X144690349Y-84727693D01*
X144717691Y-84687376D01*
X144790423Y-84675125D01*
X144869935Y-84674276D01*
X145053697Y-84674276D01*
X145053697Y-85000964D01*
X145056468Y-85167937D01*
X145066666Y-85268158D01*
X145087124Y-85316418D01*
X145116233Y-85327652D01*
X145184236Y-85294592D01*
X145202482Y-85265855D01*
X145212131Y-85195884D01*
X145214838Y-85071151D01*
X145210048Y-84918315D01*
X145209823Y-84914297D01*
X145190000Y-84727506D01*
X145147631Y-84607840D01*
X145070226Y-84541377D01*
X144945298Y-84514191D01*
X144848041Y-84510932D01*
X144681741Y-84532553D01*
G37*
G36*
X148713731Y-80245714D02*
G01*
X148577168Y-80254180D01*
X148483811Y-80272015D01*
X148414459Y-80302263D01*
X148374618Y-80328940D01*
X148265990Y-80456251D01*
X148184092Y-80658235D01*
X148134399Y-80893723D01*
X148070474Y-81063070D01*
X147946797Y-81202566D01*
X147784955Y-81289744D01*
X147743866Y-81300181D01*
X147597355Y-81300021D01*
X147393454Y-81254687D01*
X147340349Y-81238315D01*
X147138404Y-81186407D01*
X146975122Y-81180392D01*
X146838162Y-81227062D01*
X146715183Y-81333209D01*
X146593845Y-81505622D01*
X146482162Y-81710566D01*
X146400570Y-81874710D01*
X146352010Y-81987008D01*
X146331366Y-82067830D01*
X146333519Y-82137543D01*
X146353351Y-82216518D01*
X146354264Y-82219573D01*
X146434046Y-82374999D01*
X146584530Y-82533023D01*
X146603491Y-82549150D01*
X146772019Y-82721290D01*
X146860952Y-82891702D01*
X146870192Y-83064549D01*
X146799638Y-83243994D01*
X146649193Y-83434200D01*
X146580802Y-83501151D01*
X146435305Y-83650853D01*
X146352960Y-83782054D01*
X146330418Y-83915429D01*
X146364330Y-84071655D01*
X146451348Y-84271405D01*
X146454883Y-84278568D01*
X146585320Y-84516669D01*
X146708445Y-84682863D01*
X146832820Y-84785358D01*
X146967012Y-84832360D01*
X147038263Y-84837620D01*
X147197937Y-84820893D01*
X147359433Y-84779778D01*
X147382289Y-84771226D01*
X147593385Y-84721659D01*
X147786912Y-84741623D01*
X147949755Y-84825420D01*
X148068802Y-84967356D01*
X148117085Y-85090400D01*
X148156098Y-85241367D01*
X148196357Y-85396863D01*
X148198808Y-85406315D01*
X148267961Y-85557562D01*
X148365285Y-85671749D01*
X148429654Y-85720730D01*
X148495076Y-85751407D01*
X148582106Y-85767832D01*
X148711295Y-85774058D01*
X148885207Y-85774260D01*
X149066179Y-85769601D01*
X149223834Y-85759252D01*
X149335059Y-85745018D01*
X149367058Y-85736607D01*
X149483671Y-85649884D01*
X149582256Y-85500850D01*
X149651485Y-85308590D01*
X149667345Y-85230614D01*
X149709195Y-85041334D01*
X149769292Y-84911263D01*
X149859950Y-84818154D01*
X149916127Y-84781123D01*
X150091606Y-84723236D01*
X150305572Y-84729352D01*
X150484887Y-84776366D01*
X150690606Y-84829921D01*
X150861812Y-84826881D01*
X151009581Y-84761606D01*
X151144985Y-84628458D01*
X151279100Y-84421797D01*
X151316377Y-84352948D01*
X151416331Y-84133686D01*
X151461353Y-83957565D01*
X151464951Y-83899066D01*
X151458956Y-83806686D01*
X151432961Y-83728588D01*
X151374949Y-83643647D01*
X151272903Y-83530734D01*
X151230418Y-83486717D01*
X151062019Y-83292335D01*
X150966532Y-83122658D01*
X150943872Y-82965759D01*
X150993957Y-82809710D01*
X151116701Y-82642583D01*
X151223718Y-82533427D01*
X151344228Y-82415268D01*
X151416176Y-82330206D01*
X151451960Y-82256984D01*
X151463978Y-82174346D01*
X151464951Y-82119840D01*
X151462000Y-82101135D01*
X151179099Y-82101135D01*
X151151076Y-82148325D01*
X151077100Y-82232665D01*
X150972310Y-82337102D01*
X150956208Y-82352202D01*
X150794718Y-82523955D01*
X150697969Y-82688702D01*
X150655627Y-82871589D01*
X150656175Y-83082182D01*
X150707989Y-83331844D01*
X150826351Y-83536072D01*
X151000482Y-83692002D01*
X151105473Y-83777939D01*
X151153996Y-83864707D01*
X151147794Y-83970792D01*
X151088608Y-84114680D01*
X151047596Y-84192241D01*
X150952433Y-84355453D01*
X150873634Y-84454427D01*
X150794055Y-84499408D01*
X150696552Y-84500639D01*
X150578472Y-84472570D01*
X150304199Y-84410820D01*
X150078271Y-84401593D01*
X149884682Y-84447120D01*
X149707428Y-84549628D01*
X149642160Y-84602989D01*
X149499574Y-84754449D01*
X149411179Y-84922242D01*
X149361983Y-85123472D01*
X149327035Y-85288663D01*
X149280596Y-85389331D01*
X149210801Y-85442627D01*
X149127035Y-85463115D01*
X148991059Y-85471601D01*
X148837401Y-85466396D01*
X148690676Y-85450243D01*
X148575499Y-85425887D01*
X148516482Y-85396071D01*
X148515741Y-85394970D01*
X148492165Y-85328024D01*
X148467575Y-85214915D01*
X148459330Y-85164308D01*
X148386141Y-84892523D01*
X148255181Y-84677692D01*
X148067290Y-84520918D01*
X147916130Y-84451058D01*
X147712524Y-84398698D01*
X147523393Y-84399107D01*
X147314463Y-84453259D01*
X147270511Y-84469395D01*
X147142814Y-84510647D01*
X147040967Y-84530620D01*
X147001239Y-84528704D01*
X146951624Y-84482644D01*
X146880053Y-84385731D01*
X146800164Y-84260620D01*
X146725596Y-84129965D01*
X146669987Y-84016421D01*
X146646976Y-83942642D01*
X146646927Y-83940157D01*
X146658963Y-83873098D01*
X146703516Y-83808198D01*
X146795496Y-83727034D01*
X146858635Y-83678565D01*
X147022337Y-83507303D01*
X147129113Y-83292545D01*
X147174436Y-83053441D01*
X147153777Y-82809143D01*
X147101132Y-82652893D01*
X147026128Y-82533755D01*
X146914003Y-82404723D01*
X146836595Y-82333680D01*
X146734763Y-82239448D01*
X146665902Y-82155001D01*
X146646789Y-82109082D01*
X146668555Y-82029818D01*
X146723744Y-81909037D01*
X146798256Y-81771649D01*
X146877994Y-81642561D01*
X146948860Y-81546680D01*
X146983725Y-81513813D01*
X147058371Y-81495820D01*
X147175639Y-81518193D01*
X147246681Y-81541754D01*
X147513037Y-81603476D01*
X147768988Y-81599526D01*
X148000537Y-81533220D01*
X148193686Y-81407876D01*
X148293855Y-81293660D01*
X148360371Y-81169661D01*
X148423681Y-81006194D01*
X148459652Y-80880238D01*
X148498649Y-80740621D01*
X148540579Y-80633488D01*
X148573698Y-80584803D01*
X148649286Y-80563349D01*
X148775315Y-80551916D01*
X148926779Y-80549908D01*
X149078672Y-80556731D01*
X149205991Y-80571790D01*
X149283730Y-80594492D01*
X149293017Y-80601905D01*
X149322867Y-80670375D01*
X149351619Y-80788071D01*
X149364583Y-80867719D01*
X149435042Y-81128800D01*
X149566193Y-81339984D01*
X149750658Y-81494728D01*
X149981059Y-81586487D01*
X150201719Y-81610128D01*
X150348382Y-81598557D01*
X150476492Y-81570646D01*
X150525723Y-81550321D01*
X150683339Y-81493322D01*
X150819634Y-81510921D01*
X150925970Y-81601366D01*
X150997535Y-81713784D01*
X151070777Y-81845631D01*
X151133161Y-81972153D01*
X151172147Y-82068598D01*
X151179099Y-82101135D01*
X151462000Y-82101135D01*
X151436102Y-81937021D01*
X151357727Y-81726863D01*
X151242086Y-81515442D01*
X151101437Y-81328831D01*
X151084290Y-81310220D01*
X150959808Y-81208169D01*
X150823390Y-81163979D01*
X150658389Y-81175966D01*
X150448161Y-81242442D01*
X150441358Y-81245113D01*
X150245228Y-81301918D01*
X150091012Y-81301498D01*
X149928703Y-81233365D01*
X149792182Y-81107971D01*
X149704888Y-80949614D01*
X149689393Y-80885147D01*
X149629972Y-80620286D01*
X149542515Y-80429111D01*
X149450783Y-80328940D01*
X149386691Y-80289348D01*
X149310639Y-80264082D01*
X149203428Y-80250094D01*
X149045857Y-80244339D01*
X148912701Y-80243569D01*
X148713731Y-80245714D01*
G37*
D14*
G04 #@! TO.C,BT1*
X149945000Y-102790000D02*
X148337910Y-102790000D01*
X149945000Y-104675000D02*
X149945000Y-102790000D01*
X129005000Y-104675000D02*
X129005000Y-102790000D01*
X149945000Y-110675000D02*
X149945000Y-112560000D01*
X129005000Y-110675000D02*
X129005000Y-112560000D01*
X129005000Y-102790000D02*
X130612090Y-102790000D01*
X149945000Y-112560000D02*
X148337910Y-112560000D01*
X129005000Y-112560000D02*
X130612090Y-112560000D01*
X130609979Y-112556168D02*
G75*
G03*
X148337910Y-112560000I8865021J4881168D01*
G01*
X148337910Y-102790000D02*
G75*
G03*
X130612090Y-102790000I-8862910J-4885000D01*
G01*
G04 #@! TD*
M02*
