G04 #@! TF.GenerationSoftware,KiCad,Pcbnew,(5.1.6)-1*
G04 #@! TF.CreationDate,2020-11-21T22:09:05+04:00*
G04 #@! TF.ProjectId,christmas-pcb-badge,63687269-7374-46d6-9173-2d7063622d62,rev?*
G04 #@! TF.SameCoordinates,Original*
G04 #@! TF.FileFunction,Paste,Top*
G04 #@! TF.FilePolarity,Positive*
%FSLAX46Y46*%
G04 Gerber Fmt 4.6, Leading zero omitted, Abs format (unit mm)*
G04 Created by KiCad (PCBNEW (5.1.6)-1) date 2020-11-21 22:09:05*
%MOMM*%
%LPD*%
G01*
G04 APERTURE LIST*
%ADD10C,0.010000*%
G04 APERTURE END LIST*
D10*
G04 #@! TO.C,G\u002A\u002A\u002A*
G36*
X147122850Y-109383319D02*
G01*
X147205610Y-109453969D01*
X147238980Y-109579736D01*
X147239000Y-109583334D01*
X147220519Y-109686570D01*
X147188200Y-109744200D01*
X147094393Y-109789900D01*
X146980070Y-109788794D01*
X146884829Y-109744627D01*
X146859490Y-109713117D01*
X146818570Y-109587457D01*
X146825308Y-109567083D01*
X146999385Y-109567083D01*
X147006167Y-109583334D01*
X147062246Y-109624086D01*
X147074664Y-109625667D01*
X147097615Y-109599584D01*
X147090834Y-109583334D01*
X147034754Y-109542581D01*
X147022337Y-109541000D01*
X146999385Y-109567083D01*
X146825308Y-109567083D01*
X146852190Y-109485808D01*
X146893084Y-109441728D01*
X147011681Y-109376376D01*
X147122850Y-109383319D01*
G37*
X147122850Y-109383319D02*
X147205610Y-109453969D01*
X147238980Y-109579736D01*
X147239000Y-109583334D01*
X147220519Y-109686570D01*
X147188200Y-109744200D01*
X147094393Y-109789900D01*
X146980070Y-109788794D01*
X146884829Y-109744627D01*
X146859490Y-109713117D01*
X146818570Y-109587457D01*
X146825308Y-109567083D01*
X146999385Y-109567083D01*
X147006167Y-109583334D01*
X147062246Y-109624086D01*
X147074664Y-109625667D01*
X147097615Y-109599584D01*
X147090834Y-109583334D01*
X147034754Y-109542581D01*
X147022337Y-109541000D01*
X146999385Y-109567083D01*
X146825308Y-109567083D01*
X146852190Y-109485808D01*
X146893084Y-109441728D01*
X147011681Y-109376376D01*
X147122850Y-109383319D01*
G36*
X128647341Y-107924692D02*
G01*
X128660947Y-107950378D01*
X128689545Y-108091466D01*
X128641750Y-108230427D01*
X128514552Y-108373995D01*
X128446623Y-108429738D01*
X128355728Y-108502680D01*
X128290190Y-108570083D01*
X128244677Y-108647868D01*
X128213859Y-108751957D01*
X128192406Y-108898271D01*
X128174988Y-109102732D01*
X128163168Y-109276417D01*
X128134563Y-109710334D01*
X128748061Y-109710334D01*
X129001229Y-109708355D01*
X129255801Y-109702945D01*
X129484534Y-109694893D01*
X129660185Y-109684989D01*
X129681435Y-109683294D01*
X130001311Y-109656255D01*
X130051076Y-109315906D01*
X130122236Y-108967113D01*
X130223922Y-108671055D01*
X130351948Y-108435016D01*
X130502126Y-108266279D01*
X130670268Y-108172130D01*
X130714918Y-108161045D01*
X130838705Y-108155527D01*
X130953929Y-108178269D01*
X131035729Y-108220799D01*
X131059246Y-108274645D01*
X131058261Y-108278052D01*
X131011096Y-108315341D01*
X130908404Y-108357362D01*
X130834199Y-108379036D01*
X130650692Y-108456759D01*
X130505848Y-108590553D01*
X130396013Y-108786795D01*
X130317532Y-109051861D01*
X130269666Y-109363993D01*
X130238042Y-109659962D01*
X130512065Y-109689307D01*
X130697283Y-109711798D01*
X130813093Y-109734439D01*
X130874614Y-109762259D01*
X130896965Y-109800287D01*
X130898334Y-109817787D01*
X130866437Y-109851380D01*
X130765831Y-109878401D01*
X130589140Y-109900693D01*
X130553675Y-109903913D01*
X130209017Y-109933978D01*
X130234761Y-110319572D01*
X130258526Y-110548162D01*
X130297592Y-110796919D01*
X130344114Y-111017000D01*
X130351067Y-111043834D01*
X130408504Y-111259907D01*
X130445746Y-111407336D01*
X130464577Y-111499238D01*
X130466780Y-111548733D01*
X130454139Y-111568940D01*
X130428436Y-111572978D01*
X130422996Y-111573000D01*
X130348277Y-111543846D01*
X130291232Y-111495772D01*
X130233269Y-111394274D01*
X130174828Y-111226397D01*
X130120057Y-111010304D01*
X130073104Y-110764156D01*
X130038120Y-110506115D01*
X130022433Y-110319147D01*
X129997207Y-109890793D01*
X129230687Y-109911607D01*
X128971736Y-109919876D01*
X128730792Y-109929848D01*
X128525277Y-109940630D01*
X128372617Y-109951326D01*
X128298835Y-109959449D01*
X128133502Y-109986477D01*
X128016586Y-110361538D01*
X127873724Y-110725316D01*
X127694071Y-111023260D01*
X127481319Y-111251284D01*
X127239164Y-111405299D01*
X127009930Y-111475492D01*
X126602357Y-111510661D01*
X126224261Y-111474698D01*
X125883306Y-111369051D01*
X125607602Y-111210514D01*
X125421249Y-111059456D01*
X125313208Y-110938025D01*
X125282819Y-110845320D01*
X125305889Y-110798511D01*
X125359044Y-110787217D01*
X125450941Y-110831366D01*
X125532061Y-110888358D01*
X125875091Y-111105730D01*
X126217776Y-111243473D01*
X126555554Y-111300236D01*
X126855218Y-111280302D01*
X127085668Y-111222507D01*
X127263566Y-111137198D01*
X127420246Y-111008315D01*
X127454187Y-110973362D01*
X127635766Y-110724340D01*
X127778692Y-110403043D01*
X127868505Y-110080750D01*
X127894280Y-109964334D01*
X127615203Y-109964334D01*
X127465197Y-109961592D01*
X127382692Y-109950187D01*
X127350610Y-109925342D01*
X127350201Y-109890250D01*
X127382004Y-109843195D01*
X127466798Y-109808440D01*
X127620182Y-109779684D01*
X127626084Y-109778837D01*
X127766254Y-109751221D01*
X127869090Y-109716699D01*
X127908675Y-109687343D01*
X127919173Y-109625676D01*
X127932254Y-109498247D01*
X127946227Y-109323855D01*
X127959013Y-109127930D01*
X127988566Y-108622682D01*
X127866533Y-108640219D01*
X127781602Y-108640466D01*
X127631808Y-108629145D01*
X127435883Y-108608109D01*
X127212563Y-108579210D01*
X127130667Y-108567473D01*
X126710926Y-108512040D01*
X126364507Y-108481362D01*
X126083497Y-108476325D01*
X125859988Y-108497812D01*
X125686067Y-108546710D01*
X125553825Y-108623901D01*
X125455350Y-108730271D01*
X125438001Y-108756754D01*
X125364310Y-108933441D01*
X125369855Y-109106269D01*
X125455569Y-109287896D01*
X125479667Y-109322615D01*
X125559446Y-109449025D01*
X125602996Y-109552005D01*
X125604504Y-109614577D01*
X125583398Y-109625667D01*
X125479954Y-109591660D01*
X125364720Y-109504764D01*
X125264072Y-109387664D01*
X125223270Y-109315943D01*
X125152051Y-109072538D01*
X125160866Y-108841528D01*
X125247807Y-108632511D01*
X125391169Y-108471220D01*
X125545753Y-108373647D01*
X125744163Y-108307851D01*
X125993476Y-108273359D01*
X126300767Y-108269699D01*
X126673113Y-108296397D01*
X127117590Y-108352980D01*
X127130667Y-108354919D01*
X127356136Y-108386759D01*
X127565187Y-108413200D01*
X127736563Y-108431760D01*
X127849006Y-108439955D01*
X127860204Y-108440139D01*
X127954963Y-108433847D01*
X128018272Y-108401954D01*
X128074366Y-108325369D01*
X128099693Y-108277561D01*
X128316000Y-108277561D01*
X128328643Y-108311067D01*
X128369725Y-108274601D01*
X128423518Y-108196917D01*
X128498440Y-108080500D01*
X128407220Y-108161145D01*
X128340987Y-108230936D01*
X128316000Y-108277561D01*
X128099693Y-108277561D01*
X128123384Y-108232843D01*
X128233319Y-108055235D01*
X128351358Y-107930006D01*
X128466825Y-107862766D01*
X128569044Y-107859125D01*
X128647341Y-107924692D01*
G37*
X128647341Y-107924692D02*
X128660947Y-107950378D01*
X128689545Y-108091466D01*
X128641750Y-108230427D01*
X128514552Y-108373995D01*
X128446623Y-108429738D01*
X128355728Y-108502680D01*
X128290190Y-108570083D01*
X128244677Y-108647868D01*
X128213859Y-108751957D01*
X128192406Y-108898271D01*
X128174988Y-109102732D01*
X128163168Y-109276417D01*
X128134563Y-109710334D01*
X128748061Y-109710334D01*
X129001229Y-109708355D01*
X129255801Y-109702945D01*
X129484534Y-109694893D01*
X129660185Y-109684989D01*
X129681435Y-109683294D01*
X130001311Y-109656255D01*
X130051076Y-109315906D01*
X130122236Y-108967113D01*
X130223922Y-108671055D01*
X130351948Y-108435016D01*
X130502126Y-108266279D01*
X130670268Y-108172130D01*
X130714918Y-108161045D01*
X130838705Y-108155527D01*
X130953929Y-108178269D01*
X131035729Y-108220799D01*
X131059246Y-108274645D01*
X131058261Y-108278052D01*
X131011096Y-108315341D01*
X130908404Y-108357362D01*
X130834199Y-108379036D01*
X130650692Y-108456759D01*
X130505848Y-108590553D01*
X130396013Y-108786795D01*
X130317532Y-109051861D01*
X130269666Y-109363993D01*
X130238042Y-109659962D01*
X130512065Y-109689307D01*
X130697283Y-109711798D01*
X130813093Y-109734439D01*
X130874614Y-109762259D01*
X130896965Y-109800287D01*
X130898334Y-109817787D01*
X130866437Y-109851380D01*
X130765831Y-109878401D01*
X130589140Y-109900693D01*
X130553675Y-109903913D01*
X130209017Y-109933978D01*
X130234761Y-110319572D01*
X130258526Y-110548162D01*
X130297592Y-110796919D01*
X130344114Y-111017000D01*
X130351067Y-111043834D01*
X130408504Y-111259907D01*
X130445746Y-111407336D01*
X130464577Y-111499238D01*
X130466780Y-111548733D01*
X130454139Y-111568940D01*
X130428436Y-111572978D01*
X130422996Y-111573000D01*
X130348277Y-111543846D01*
X130291232Y-111495772D01*
X130233269Y-111394274D01*
X130174828Y-111226397D01*
X130120057Y-111010304D01*
X130073104Y-110764156D01*
X130038120Y-110506115D01*
X130022433Y-110319147D01*
X129997207Y-109890793D01*
X129230687Y-109911607D01*
X128971736Y-109919876D01*
X128730792Y-109929848D01*
X128525277Y-109940630D01*
X128372617Y-109951326D01*
X128298835Y-109959449D01*
X128133502Y-109986477D01*
X128016586Y-110361538D01*
X127873724Y-110725316D01*
X127694071Y-111023260D01*
X127481319Y-111251284D01*
X127239164Y-111405299D01*
X127009930Y-111475492D01*
X126602357Y-111510661D01*
X126224261Y-111474698D01*
X125883306Y-111369051D01*
X125607602Y-111210514D01*
X125421249Y-111059456D01*
X125313208Y-110938025D01*
X125282819Y-110845320D01*
X125305889Y-110798511D01*
X125359044Y-110787217D01*
X125450941Y-110831366D01*
X125532061Y-110888358D01*
X125875091Y-111105730D01*
X126217776Y-111243473D01*
X126555554Y-111300236D01*
X126855218Y-111280302D01*
X127085668Y-111222507D01*
X127263566Y-111137198D01*
X127420246Y-111008315D01*
X127454187Y-110973362D01*
X127635766Y-110724340D01*
X127778692Y-110403043D01*
X127868505Y-110080750D01*
X127894280Y-109964334D01*
X127615203Y-109964334D01*
X127465197Y-109961592D01*
X127382692Y-109950187D01*
X127350610Y-109925342D01*
X127350201Y-109890250D01*
X127382004Y-109843195D01*
X127466798Y-109808440D01*
X127620182Y-109779684D01*
X127626084Y-109778837D01*
X127766254Y-109751221D01*
X127869090Y-109716699D01*
X127908675Y-109687343D01*
X127919173Y-109625676D01*
X127932254Y-109498247D01*
X127946227Y-109323855D01*
X127959013Y-109127930D01*
X127988566Y-108622682D01*
X127866533Y-108640219D01*
X127781602Y-108640466D01*
X127631808Y-108629145D01*
X127435883Y-108608109D01*
X127212563Y-108579210D01*
X127130667Y-108567473D01*
X126710926Y-108512040D01*
X126364507Y-108481362D01*
X126083497Y-108476325D01*
X125859988Y-108497812D01*
X125686067Y-108546710D01*
X125553825Y-108623901D01*
X125455350Y-108730271D01*
X125438001Y-108756754D01*
X125364310Y-108933441D01*
X125369855Y-109106269D01*
X125455569Y-109287896D01*
X125479667Y-109322615D01*
X125559446Y-109449025D01*
X125602996Y-109552005D01*
X125604504Y-109614577D01*
X125583398Y-109625667D01*
X125479954Y-109591660D01*
X125364720Y-109504764D01*
X125264072Y-109387664D01*
X125223270Y-109315943D01*
X125152051Y-109072538D01*
X125160866Y-108841528D01*
X125247807Y-108632511D01*
X125391169Y-108471220D01*
X125545753Y-108373647D01*
X125744163Y-108307851D01*
X125993476Y-108273359D01*
X126300767Y-108269699D01*
X126673113Y-108296397D01*
X127117590Y-108352980D01*
X127130667Y-108354919D01*
X127356136Y-108386759D01*
X127565187Y-108413200D01*
X127736563Y-108431760D01*
X127849006Y-108439955D01*
X127860204Y-108440139D01*
X127954963Y-108433847D01*
X128018272Y-108401954D01*
X128074366Y-108325369D01*
X128099693Y-108277561D01*
X128316000Y-108277561D01*
X128328643Y-108311067D01*
X128369725Y-108274601D01*
X128423518Y-108196917D01*
X128498440Y-108080500D01*
X128407220Y-108161145D01*
X128340987Y-108230936D01*
X128316000Y-108277561D01*
X128099693Y-108277561D01*
X128123384Y-108232843D01*
X128233319Y-108055235D01*
X128351358Y-107930006D01*
X128466825Y-107862766D01*
X128569044Y-107859125D01*
X128647341Y-107924692D01*
G36*
X132888539Y-110006834D02*
G01*
X132924773Y-110127559D01*
X132952381Y-110310590D01*
X132980925Y-110556529D01*
X133153749Y-110408598D01*
X133266058Y-110324624D01*
X133365038Y-110271023D01*
X133406403Y-110260667D01*
X133553534Y-110297991D01*
X133667074Y-110399935D01*
X133742108Y-110551454D01*
X133773718Y-110737505D01*
X133756989Y-110943044D01*
X133693474Y-111139084D01*
X133651548Y-111244154D01*
X133636798Y-111308965D01*
X133642243Y-111319000D01*
X133693068Y-111297131D01*
X133784696Y-111242175D01*
X133825257Y-111215321D01*
X134016240Y-111038969D01*
X134184475Y-110788418D01*
X134325086Y-110472231D01*
X134412858Y-110183931D01*
X134452819Y-110064861D01*
X134498752Y-110016443D01*
X134530763Y-110015007D01*
X134568710Y-110037783D01*
X134594384Y-110099562D01*
X134612045Y-110216479D01*
X134623667Y-110366909D01*
X134644834Y-110705167D01*
X134720972Y-110565711D01*
X134816480Y-110442171D01*
X134945945Y-110337119D01*
X135079590Y-110271940D01*
X135145507Y-110260825D01*
X135223120Y-110289155D01*
X135320447Y-110359816D01*
X135346590Y-110384410D01*
X135416529Y-110464198D01*
X135453815Y-110545073D01*
X135468365Y-110658019D01*
X135470334Y-110770997D01*
X135457711Y-110967908D01*
X135415331Y-111114464D01*
X135382214Y-111176420D01*
X135328829Y-111273321D01*
X135328845Y-111311816D01*
X135387142Y-111294436D01*
X135492563Y-111233676D01*
X135668265Y-111085959D01*
X135831488Y-110865523D01*
X135980734Y-110579658D01*
X136048403Y-110440486D01*
X136109028Y-110333213D01*
X136149732Y-110280574D01*
X136150367Y-110280165D01*
X136212412Y-110266715D01*
X136242390Y-110324633D01*
X136240635Y-110456344D01*
X136207480Y-110664275D01*
X136204989Y-110676790D01*
X136168336Y-110919188D01*
X136170985Y-111090147D01*
X136213716Y-111193624D01*
X136297305Y-111233573D01*
X136314566Y-111234334D01*
X136381302Y-111201791D01*
X136466649Y-111121889D01*
X136547987Y-111021221D01*
X136602698Y-110926376D01*
X136613334Y-110883104D01*
X136630121Y-110814417D01*
X136672004Y-110708697D01*
X136726263Y-110592519D01*
X136780177Y-110492458D01*
X136821027Y-110435087D01*
X136830213Y-110430000D01*
X136845022Y-110469502D01*
X136857024Y-110576707D01*
X136864890Y-110734663D01*
X136867334Y-110903046D01*
X136867334Y-111376092D01*
X136977750Y-111273463D01*
X137057567Y-111187588D01*
X137163040Y-111058824D01*
X137272083Y-110914203D01*
X137277799Y-110906250D01*
X137402753Y-110747504D01*
X137496997Y-110661715D01*
X137558646Y-110649889D01*
X137585815Y-110713032D01*
X137587000Y-110741149D01*
X137554258Y-110853969D01*
X137457437Y-111016500D01*
X137298643Y-111225649D01*
X137098766Y-111457541D01*
X136878657Y-111701915D01*
X136850200Y-112283041D01*
X136831437Y-112610866D01*
X136809217Y-112866804D01*
X136780579Y-113063635D01*
X136742561Y-113214137D01*
X136692199Y-113331090D01*
X136626534Y-113427272D01*
X136570888Y-113488073D01*
X136467494Y-113578517D01*
X136376645Y-113636220D01*
X136338914Y-113647334D01*
X136267368Y-113618988D01*
X136169534Y-113547204D01*
X136122267Y-113503400D01*
X136021087Y-113379652D01*
X135980870Y-113261450D01*
X135978334Y-113215961D01*
X135983763Y-113167409D01*
X136196134Y-113167409D01*
X136209956Y-113250743D01*
X136224074Y-113286279D01*
X136289677Y-113371474D01*
X136368478Y-113374692D01*
X136456357Y-113296829D01*
X136503869Y-113225290D01*
X136543084Y-113142006D01*
X136571189Y-113036855D01*
X136591081Y-112891955D01*
X136605656Y-112689424D01*
X136611994Y-112557739D01*
X136620253Y-112341215D01*
X136622258Y-112198431D01*
X136617161Y-112118636D01*
X136604112Y-112091075D01*
X136582261Y-112104997D01*
X136576761Y-112111811D01*
X136493197Y-112248020D01*
X136403037Y-112439974D01*
X136317706Y-112660693D01*
X136248630Y-112883197D01*
X136246209Y-112892354D01*
X136207728Y-113056675D01*
X136196134Y-113167409D01*
X135983763Y-113167409D01*
X136004233Y-112984360D01*
X136076906Y-112708331D01*
X136188817Y-112408397D01*
X136332427Y-112105081D01*
X136479807Y-111850462D01*
X136567602Y-111683288D01*
X136610838Y-111535366D01*
X136613334Y-111500406D01*
X136607599Y-111406431D01*
X136576015Y-111376811D01*
X136497011Y-111391343D01*
X136496917Y-111391368D01*
X136292880Y-111417085D01*
X136128017Y-111376612D01*
X136011367Y-111273438D01*
X135969974Y-111188089D01*
X135934290Y-111188003D01*
X135859444Y-111237115D01*
X135803297Y-111285991D01*
X135584648Y-111440230D01*
X135345472Y-111515676D01*
X135096811Y-111510609D01*
X134866286Y-111431913D01*
X134671223Y-111333160D01*
X134647389Y-111590663D01*
X134635079Y-111731359D01*
X134618519Y-111931288D01*
X134599757Y-112165254D01*
X134580838Y-112408056D01*
X134578331Y-112440834D01*
X134550363Y-112772456D01*
X134521065Y-113032401D01*
X134487231Y-113233639D01*
X134445656Y-113389138D01*
X134393134Y-113511868D01*
X134326462Y-113614797D01*
X134272331Y-113679084D01*
X134155005Y-113757598D01*
X134020861Y-113775485D01*
X133898904Y-113733151D01*
X133839541Y-113672978D01*
X133776510Y-113538578D01*
X133749646Y-113373240D01*
X133755424Y-113227528D01*
X133988774Y-113227528D01*
X133992718Y-113374091D01*
X134003133Y-113485019D01*
X134016889Y-113534445D01*
X134087246Y-113561985D01*
X134157623Y-113506519D01*
X134217329Y-113391415D01*
X134273501Y-113208010D01*
X134319228Y-112961784D01*
X134355417Y-112646113D01*
X134382980Y-112254376D01*
X134388595Y-112144500D01*
X134412903Y-111636500D01*
X134303098Y-111911667D01*
X134192960Y-112218527D01*
X134101143Y-112534856D01*
X134033306Y-112836955D01*
X133995113Y-113101124D01*
X133988774Y-113227528D01*
X133755424Y-113227528D01*
X133758062Y-113161007D01*
X133796909Y-112906828D01*
X133829127Y-112749751D01*
X133869090Y-112586838D01*
X133920909Y-112404779D01*
X133988701Y-112190265D01*
X134076577Y-111929986D01*
X134188653Y-111610632D01*
X134254983Y-111424834D01*
X134330502Y-111211872D01*
X134375881Y-111072281D01*
X134381435Y-111043834D01*
X134708806Y-111043834D01*
X134743161Y-111096060D01*
X134825138Y-111155884D01*
X134922151Y-111203792D01*
X135001612Y-111220272D01*
X135003178Y-111220102D01*
X135064609Y-111182543D01*
X135140992Y-111098335D01*
X135161928Y-111069030D01*
X135227720Y-110932661D01*
X135255254Y-110790669D01*
X135248194Y-110660245D01*
X135210207Y-110558582D01*
X135144958Y-110502870D01*
X135056112Y-110510301D01*
X135044068Y-110516236D01*
X134983966Y-110573086D01*
X134904079Y-110678358D01*
X134821070Y-110805829D01*
X134751602Y-110929275D01*
X134712340Y-111022473D01*
X134708806Y-111043834D01*
X134381435Y-111043834D01*
X134390013Y-110999900D01*
X134371792Y-110988566D01*
X134320114Y-111032118D01*
X134233870Y-111124394D01*
X134206489Y-111154676D01*
X134004289Y-111350603D01*
X133814586Y-111472237D01*
X133625532Y-111526377D01*
X133551108Y-111530667D01*
X133370885Y-111507335D01*
X133203833Y-111445207D01*
X133069677Y-111356083D01*
X132988142Y-111251762D01*
X132972667Y-111184621D01*
X132991959Y-111121153D01*
X133055310Y-111116272D01*
X133170930Y-111169809D01*
X133188696Y-111180144D01*
X133273318Y-111224369D01*
X133330605Y-111221799D01*
X133398539Y-111166192D01*
X133423329Y-111141580D01*
X133502393Y-111024254D01*
X133550586Y-110877425D01*
X133564091Y-110729135D01*
X133539088Y-110607426D01*
X133502812Y-110557812D01*
X133439024Y-110524885D01*
X133371287Y-110539623D01*
X133288978Y-110609583D01*
X133181471Y-110742324D01*
X133116167Y-110832872D01*
X132942167Y-111079626D01*
X132912139Y-111801540D01*
X132888499Y-112276382D01*
X132860303Y-112670389D01*
X132827192Y-112987288D01*
X132788802Y-113230808D01*
X132762418Y-113345733D01*
X132690563Y-113517644D01*
X132586088Y-113651799D01*
X132463632Y-113740316D01*
X132337833Y-113775314D01*
X132223329Y-113748911D01*
X132148407Y-113676333D01*
X132080632Y-113520870D01*
X132056112Y-113343309D01*
X132295514Y-113343309D01*
X132309552Y-113475260D01*
X132337461Y-113551251D01*
X132357858Y-113562667D01*
X132425547Y-113530219D01*
X132484417Y-113464937D01*
X132530637Y-113364578D01*
X132573482Y-113223811D01*
X132587914Y-113158021D01*
X132607941Y-113028350D01*
X132629640Y-112849348D01*
X132651549Y-112638589D01*
X132672205Y-112413646D01*
X132690146Y-112192092D01*
X132703911Y-111991502D01*
X132712037Y-111829449D01*
X132713061Y-111723507D01*
X132709701Y-111694313D01*
X132690708Y-111707808D01*
X132653633Y-111787147D01*
X132603704Y-111916777D01*
X132546149Y-112081148D01*
X132486195Y-112264707D01*
X132429070Y-112451903D01*
X132380001Y-112627185D01*
X132344217Y-112775001D01*
X132340656Y-112792167D01*
X132310663Y-112983716D01*
X132295750Y-113173445D01*
X132295514Y-113343309D01*
X132056112Y-113343309D01*
X132052702Y-113318616D01*
X132065360Y-113065385D01*
X132119351Y-112756990D01*
X132215419Y-112389244D01*
X132354306Y-111957959D01*
X132536758Y-111458947D01*
X132547133Y-111431897D01*
X132615581Y-111247367D01*
X132669098Y-111090668D01*
X132702062Y-110979151D01*
X132709358Y-110931240D01*
X132679952Y-110938917D01*
X132618390Y-111002284D01*
X132558565Y-111079642D01*
X132389524Y-111271327D01*
X132212478Y-111392961D01*
X132036223Y-111441601D01*
X131869559Y-111414304D01*
X131761059Y-111346511D01*
X131645396Y-111247022D01*
X131494115Y-111350065D01*
X131329652Y-111421945D01*
X131160793Y-111428495D01*
X131014545Y-111369256D01*
X131000693Y-111358451D01*
X130917369Y-111238530D01*
X130881126Y-111072359D01*
X130890632Y-110883146D01*
X130944557Y-110694098D01*
X131041569Y-110528426D01*
X131048817Y-110519633D01*
X131178258Y-110404938D01*
X131331978Y-110326715D01*
X131492996Y-110285731D01*
X131644330Y-110282754D01*
X131768999Y-110318551D01*
X131850020Y-110393888D01*
X131872000Y-110482452D01*
X131869990Y-110525619D01*
X131852389Y-110546733D01*
X131801843Y-110546255D01*
X131700997Y-110524644D01*
X131565082Y-110490588D01*
X131437285Y-110497955D01*
X131310739Y-110569821D01*
X131199480Y-110686988D01*
X131117547Y-110830261D01*
X131078976Y-110980442D01*
X131097806Y-111118335D01*
X131100884Y-111125397D01*
X131171122Y-111213822D01*
X131261767Y-111223835D01*
X131368315Y-111157944D01*
X131486262Y-111018655D01*
X131586297Y-110855156D01*
X131646718Y-110770487D01*
X131701271Y-110734831D01*
X131709729Y-110735743D01*
X131742069Y-110778404D01*
X131789684Y-110874372D01*
X131841283Y-110996560D01*
X131885577Y-111117883D01*
X131911276Y-111211256D01*
X131913141Y-111223750D01*
X131950434Y-111236395D01*
X132032879Y-111230026D01*
X132124334Y-111209290D01*
X132170926Y-111190612D01*
X132269744Y-111105093D01*
X132379941Y-110956894D01*
X132490431Y-110764965D01*
X132590124Y-110548260D01*
X132658614Y-110357045D01*
X132731060Y-110144174D01*
X132792791Y-110014966D01*
X132844914Y-109969244D01*
X132888539Y-110006834D01*
G37*
X132888539Y-110006834D02*
X132924773Y-110127559D01*
X132952381Y-110310590D01*
X132980925Y-110556529D01*
X133153749Y-110408598D01*
X133266058Y-110324624D01*
X133365038Y-110271023D01*
X133406403Y-110260667D01*
X133553534Y-110297991D01*
X133667074Y-110399935D01*
X133742108Y-110551454D01*
X133773718Y-110737505D01*
X133756989Y-110943044D01*
X133693474Y-111139084D01*
X133651548Y-111244154D01*
X133636798Y-111308965D01*
X133642243Y-111319000D01*
X133693068Y-111297131D01*
X133784696Y-111242175D01*
X133825257Y-111215321D01*
X134016240Y-111038969D01*
X134184475Y-110788418D01*
X134325086Y-110472231D01*
X134412858Y-110183931D01*
X134452819Y-110064861D01*
X134498752Y-110016443D01*
X134530763Y-110015007D01*
X134568710Y-110037783D01*
X134594384Y-110099562D01*
X134612045Y-110216479D01*
X134623667Y-110366909D01*
X134644834Y-110705167D01*
X134720972Y-110565711D01*
X134816480Y-110442171D01*
X134945945Y-110337119D01*
X135079590Y-110271940D01*
X135145507Y-110260825D01*
X135223120Y-110289155D01*
X135320447Y-110359816D01*
X135346590Y-110384410D01*
X135416529Y-110464198D01*
X135453815Y-110545073D01*
X135468365Y-110658019D01*
X135470334Y-110770997D01*
X135457711Y-110967908D01*
X135415331Y-111114464D01*
X135382214Y-111176420D01*
X135328829Y-111273321D01*
X135328845Y-111311816D01*
X135387142Y-111294436D01*
X135492563Y-111233676D01*
X135668265Y-111085959D01*
X135831488Y-110865523D01*
X135980734Y-110579658D01*
X136048403Y-110440486D01*
X136109028Y-110333213D01*
X136149732Y-110280574D01*
X136150367Y-110280165D01*
X136212412Y-110266715D01*
X136242390Y-110324633D01*
X136240635Y-110456344D01*
X136207480Y-110664275D01*
X136204989Y-110676790D01*
X136168336Y-110919188D01*
X136170985Y-111090147D01*
X136213716Y-111193624D01*
X136297305Y-111233573D01*
X136314566Y-111234334D01*
X136381302Y-111201791D01*
X136466649Y-111121889D01*
X136547987Y-111021221D01*
X136602698Y-110926376D01*
X136613334Y-110883104D01*
X136630121Y-110814417D01*
X136672004Y-110708697D01*
X136726263Y-110592519D01*
X136780177Y-110492458D01*
X136821027Y-110435087D01*
X136830213Y-110430000D01*
X136845022Y-110469502D01*
X136857024Y-110576707D01*
X136864890Y-110734663D01*
X136867334Y-110903046D01*
X136867334Y-111376092D01*
X136977750Y-111273463D01*
X137057567Y-111187588D01*
X137163040Y-111058824D01*
X137272083Y-110914203D01*
X137277799Y-110906250D01*
X137402753Y-110747504D01*
X137496997Y-110661715D01*
X137558646Y-110649889D01*
X137585815Y-110713032D01*
X137587000Y-110741149D01*
X137554258Y-110853969D01*
X137457437Y-111016500D01*
X137298643Y-111225649D01*
X137098766Y-111457541D01*
X136878657Y-111701915D01*
X136850200Y-112283041D01*
X136831437Y-112610866D01*
X136809217Y-112866804D01*
X136780579Y-113063635D01*
X136742561Y-113214137D01*
X136692199Y-113331090D01*
X136626534Y-113427272D01*
X136570888Y-113488073D01*
X136467494Y-113578517D01*
X136376645Y-113636220D01*
X136338914Y-113647334D01*
X136267368Y-113618988D01*
X136169534Y-113547204D01*
X136122267Y-113503400D01*
X136021087Y-113379652D01*
X135980870Y-113261450D01*
X135978334Y-113215961D01*
X135983763Y-113167409D01*
X136196134Y-113167409D01*
X136209956Y-113250743D01*
X136224074Y-113286279D01*
X136289677Y-113371474D01*
X136368478Y-113374692D01*
X136456357Y-113296829D01*
X136503869Y-113225290D01*
X136543084Y-113142006D01*
X136571189Y-113036855D01*
X136591081Y-112891955D01*
X136605656Y-112689424D01*
X136611994Y-112557739D01*
X136620253Y-112341215D01*
X136622258Y-112198431D01*
X136617161Y-112118636D01*
X136604112Y-112091075D01*
X136582261Y-112104997D01*
X136576761Y-112111811D01*
X136493197Y-112248020D01*
X136403037Y-112439974D01*
X136317706Y-112660693D01*
X136248630Y-112883197D01*
X136246209Y-112892354D01*
X136207728Y-113056675D01*
X136196134Y-113167409D01*
X135983763Y-113167409D01*
X136004233Y-112984360D01*
X136076906Y-112708331D01*
X136188817Y-112408397D01*
X136332427Y-112105081D01*
X136479807Y-111850462D01*
X136567602Y-111683288D01*
X136610838Y-111535366D01*
X136613334Y-111500406D01*
X136607599Y-111406431D01*
X136576015Y-111376811D01*
X136497011Y-111391343D01*
X136496917Y-111391368D01*
X136292880Y-111417085D01*
X136128017Y-111376612D01*
X136011367Y-111273438D01*
X135969974Y-111188089D01*
X135934290Y-111188003D01*
X135859444Y-111237115D01*
X135803297Y-111285991D01*
X135584648Y-111440230D01*
X135345472Y-111515676D01*
X135096811Y-111510609D01*
X134866286Y-111431913D01*
X134671223Y-111333160D01*
X134647389Y-111590663D01*
X134635079Y-111731359D01*
X134618519Y-111931288D01*
X134599757Y-112165254D01*
X134580838Y-112408056D01*
X134578331Y-112440834D01*
X134550363Y-112772456D01*
X134521065Y-113032401D01*
X134487231Y-113233639D01*
X134445656Y-113389138D01*
X134393134Y-113511868D01*
X134326462Y-113614797D01*
X134272331Y-113679084D01*
X134155005Y-113757598D01*
X134020861Y-113775485D01*
X133898904Y-113733151D01*
X133839541Y-113672978D01*
X133776510Y-113538578D01*
X133749646Y-113373240D01*
X133755424Y-113227528D01*
X133988774Y-113227528D01*
X133992718Y-113374091D01*
X134003133Y-113485019D01*
X134016889Y-113534445D01*
X134087246Y-113561985D01*
X134157623Y-113506519D01*
X134217329Y-113391415D01*
X134273501Y-113208010D01*
X134319228Y-112961784D01*
X134355417Y-112646113D01*
X134382980Y-112254376D01*
X134388595Y-112144500D01*
X134412903Y-111636500D01*
X134303098Y-111911667D01*
X134192960Y-112218527D01*
X134101143Y-112534856D01*
X134033306Y-112836955D01*
X133995113Y-113101124D01*
X133988774Y-113227528D01*
X133755424Y-113227528D01*
X133758062Y-113161007D01*
X133796909Y-112906828D01*
X133829127Y-112749751D01*
X133869090Y-112586838D01*
X133920909Y-112404779D01*
X133988701Y-112190265D01*
X134076577Y-111929986D01*
X134188653Y-111610632D01*
X134254983Y-111424834D01*
X134330502Y-111211872D01*
X134375881Y-111072281D01*
X134381435Y-111043834D01*
X134708806Y-111043834D01*
X134743161Y-111096060D01*
X134825138Y-111155884D01*
X134922151Y-111203792D01*
X135001612Y-111220272D01*
X135003178Y-111220102D01*
X135064609Y-111182543D01*
X135140992Y-111098335D01*
X135161928Y-111069030D01*
X135227720Y-110932661D01*
X135255254Y-110790669D01*
X135248194Y-110660245D01*
X135210207Y-110558582D01*
X135144958Y-110502870D01*
X135056112Y-110510301D01*
X135044068Y-110516236D01*
X134983966Y-110573086D01*
X134904079Y-110678358D01*
X134821070Y-110805829D01*
X134751602Y-110929275D01*
X134712340Y-111022473D01*
X134708806Y-111043834D01*
X134381435Y-111043834D01*
X134390013Y-110999900D01*
X134371792Y-110988566D01*
X134320114Y-111032118D01*
X134233870Y-111124394D01*
X134206489Y-111154676D01*
X134004289Y-111350603D01*
X133814586Y-111472237D01*
X133625532Y-111526377D01*
X133551108Y-111530667D01*
X133370885Y-111507335D01*
X133203833Y-111445207D01*
X133069677Y-111356083D01*
X132988142Y-111251762D01*
X132972667Y-111184621D01*
X132991959Y-111121153D01*
X133055310Y-111116272D01*
X133170930Y-111169809D01*
X133188696Y-111180144D01*
X133273318Y-111224369D01*
X133330605Y-111221799D01*
X133398539Y-111166192D01*
X133423329Y-111141580D01*
X133502393Y-111024254D01*
X133550586Y-110877425D01*
X133564091Y-110729135D01*
X133539088Y-110607426D01*
X133502812Y-110557812D01*
X133439024Y-110524885D01*
X133371287Y-110539623D01*
X133288978Y-110609583D01*
X133181471Y-110742324D01*
X133116167Y-110832872D01*
X132942167Y-111079626D01*
X132912139Y-111801540D01*
X132888499Y-112276382D01*
X132860303Y-112670389D01*
X132827192Y-112987288D01*
X132788802Y-113230808D01*
X132762418Y-113345733D01*
X132690563Y-113517644D01*
X132586088Y-113651799D01*
X132463632Y-113740316D01*
X132337833Y-113775314D01*
X132223329Y-113748911D01*
X132148407Y-113676333D01*
X132080632Y-113520870D01*
X132056112Y-113343309D01*
X132295514Y-113343309D01*
X132309552Y-113475260D01*
X132337461Y-113551251D01*
X132357858Y-113562667D01*
X132425547Y-113530219D01*
X132484417Y-113464937D01*
X132530637Y-113364578D01*
X132573482Y-113223811D01*
X132587914Y-113158021D01*
X132607941Y-113028350D01*
X132629640Y-112849348D01*
X132651549Y-112638589D01*
X132672205Y-112413646D01*
X132690146Y-112192092D01*
X132703911Y-111991502D01*
X132712037Y-111829449D01*
X132713061Y-111723507D01*
X132709701Y-111694313D01*
X132690708Y-111707808D01*
X132653633Y-111787147D01*
X132603704Y-111916777D01*
X132546149Y-112081148D01*
X132486195Y-112264707D01*
X132429070Y-112451903D01*
X132380001Y-112627185D01*
X132344217Y-112775001D01*
X132340656Y-112792167D01*
X132310663Y-112983716D01*
X132295750Y-113173445D01*
X132295514Y-113343309D01*
X132056112Y-113343309D01*
X132052702Y-113318616D01*
X132065360Y-113065385D01*
X132119351Y-112756990D01*
X132215419Y-112389244D01*
X132354306Y-111957959D01*
X132536758Y-111458947D01*
X132547133Y-111431897D01*
X132615581Y-111247367D01*
X132669098Y-111090668D01*
X132702062Y-110979151D01*
X132709358Y-110931240D01*
X132679952Y-110938917D01*
X132618390Y-111002284D01*
X132558565Y-111079642D01*
X132389524Y-111271327D01*
X132212478Y-111392961D01*
X132036223Y-111441601D01*
X131869559Y-111414304D01*
X131761059Y-111346511D01*
X131645396Y-111247022D01*
X131494115Y-111350065D01*
X131329652Y-111421945D01*
X131160793Y-111428495D01*
X131014545Y-111369256D01*
X131000693Y-111358451D01*
X130917369Y-111238530D01*
X130881126Y-111072359D01*
X130890632Y-110883146D01*
X130944557Y-110694098D01*
X131041569Y-110528426D01*
X131048817Y-110519633D01*
X131178258Y-110404938D01*
X131331978Y-110326715D01*
X131492996Y-110285731D01*
X131644330Y-110282754D01*
X131768999Y-110318551D01*
X131850020Y-110393888D01*
X131872000Y-110482452D01*
X131869990Y-110525619D01*
X131852389Y-110546733D01*
X131801843Y-110546255D01*
X131700997Y-110524644D01*
X131565082Y-110490588D01*
X131437285Y-110497955D01*
X131310739Y-110569821D01*
X131199480Y-110686988D01*
X131117547Y-110830261D01*
X131078976Y-110980442D01*
X131097806Y-111118335D01*
X131100884Y-111125397D01*
X131171122Y-111213822D01*
X131261767Y-111223835D01*
X131368315Y-111157944D01*
X131486262Y-111018655D01*
X131586297Y-110855156D01*
X131646718Y-110770487D01*
X131701271Y-110734831D01*
X131709729Y-110735743D01*
X131742069Y-110778404D01*
X131789684Y-110874372D01*
X131841283Y-110996560D01*
X131885577Y-111117883D01*
X131911276Y-111211256D01*
X131913141Y-111223750D01*
X131950434Y-111236395D01*
X132032879Y-111230026D01*
X132124334Y-111209290D01*
X132170926Y-111190612D01*
X132269744Y-111105093D01*
X132379941Y-110956894D01*
X132490431Y-110764965D01*
X132590124Y-110548260D01*
X132658614Y-110357045D01*
X132731060Y-110144174D01*
X132792791Y-110014966D01*
X132844914Y-109969244D01*
X132888539Y-110006834D01*
G36*
X146358580Y-108047532D02*
G01*
X146467631Y-108158269D01*
X146498808Y-108214830D01*
X146533738Y-108304967D01*
X146553002Y-108407226D01*
X146558500Y-108543734D01*
X146552135Y-108736617D01*
X146548848Y-108797372D01*
X146526107Y-109060803D01*
X146485793Y-109306522D01*
X146422203Y-109555820D01*
X146329637Y-109829989D01*
X146202391Y-110150322D01*
X146159058Y-110252858D01*
X145959211Y-110720961D01*
X146027446Y-110921222D01*
X146111372Y-111118827D01*
X146203255Y-111234296D01*
X146308069Y-111270107D01*
X146430791Y-111228737D01*
X146517942Y-111165508D01*
X146676120Y-110982860D01*
X146799968Y-110736346D01*
X146875203Y-110472334D01*
X146907924Y-110335180D01*
X146944420Y-110261392D01*
X146997054Y-110230109D01*
X147021573Y-110225341D01*
X147121645Y-110211181D01*
X147094172Y-110627507D01*
X147084892Y-110879139D01*
X147097561Y-111058688D01*
X147135294Y-111176615D01*
X147201211Y-111243385D01*
X147285069Y-111268140D01*
X147396899Y-111244804D01*
X147524814Y-111148128D01*
X147672261Y-110975093D01*
X147700587Y-110934960D01*
X148053994Y-110934960D01*
X148063756Y-111095650D01*
X148087156Y-111152450D01*
X148158123Y-111224198D01*
X148250197Y-111214060D01*
X148363086Y-111122069D01*
X148363143Y-111122008D01*
X148442436Y-111005513D01*
X148509522Y-110853437D01*
X148554668Y-110695959D01*
X148568139Y-110563259D01*
X148559299Y-110513805D01*
X148534499Y-110462746D01*
X148496164Y-110454249D01*
X148417596Y-110486927D01*
X148382100Y-110504597D01*
X148222250Y-110619480D01*
X148109853Y-110769585D01*
X148053994Y-110934960D01*
X147700587Y-110934960D01*
X147758199Y-110853334D01*
X147948756Y-110599858D01*
X148132322Y-110420031D01*
X148318558Y-110304490D01*
X148329084Y-110299808D01*
X148509000Y-110221342D01*
X148509000Y-109710442D01*
X148721320Y-109710442D01*
X148723120Y-109902617D01*
X148730379Y-110062661D01*
X148743159Y-110173518D01*
X148761521Y-110218132D01*
X148763000Y-110218334D01*
X148804230Y-110203275D01*
X148805334Y-110198863D01*
X148814958Y-110152134D01*
X148840907Y-110041705D01*
X148878795Y-109885970D01*
X148908798Y-109764946D01*
X148982836Y-109430207D01*
X149029458Y-109133656D01*
X149047568Y-108886750D01*
X149036066Y-108700949D01*
X149017459Y-108630834D01*
X148968090Y-108503834D01*
X148891208Y-108598221D01*
X148843139Y-108689783D01*
X148796546Y-108831460D01*
X148767496Y-108961522D01*
X148748068Y-109111674D01*
X148733855Y-109297915D01*
X148724919Y-109503189D01*
X148721320Y-109710442D01*
X148509000Y-109710442D01*
X148509000Y-109698446D01*
X148521512Y-109299752D01*
X148558065Y-108960807D01*
X148617185Y-108685670D01*
X148697395Y-108478401D01*
X148797221Y-108343056D01*
X148915189Y-108283696D01*
X149019727Y-108293032D01*
X149126286Y-108357097D01*
X149196527Y-108475432D01*
X149233882Y-108657090D01*
X149242248Y-108879798D01*
X149229517Y-109172307D01*
X149194366Y-109455777D01*
X149132226Y-109755061D01*
X149038528Y-110095012D01*
X148990163Y-110251185D01*
X148914357Y-110508448D01*
X148872917Y-110704652D01*
X148865633Y-110856024D01*
X148892294Y-110978788D01*
X148952690Y-111089172D01*
X148978852Y-111124206D01*
X149059798Y-111200761D01*
X149136279Y-111234273D01*
X149138768Y-111234334D01*
X149226415Y-111197143D01*
X149345062Y-111089520D01*
X149489132Y-110917391D01*
X149649569Y-110691889D01*
X149818197Y-110472407D01*
X149980783Y-110333117D01*
X150144934Y-110270653D01*
X150318258Y-110281648D01*
X150456334Y-110334816D01*
X150553261Y-110400267D01*
X150600572Y-110465499D01*
X150592621Y-110513452D01*
X150523759Y-110527063D01*
X150519834Y-110526671D01*
X150314849Y-110508385D01*
X150172813Y-110508731D01*
X150073311Y-110531543D01*
X149995929Y-110580654D01*
X149941760Y-110635222D01*
X149853698Y-110763147D01*
X149822952Y-110904822D01*
X149821982Y-110949251D01*
X149834095Y-111112895D01*
X149873200Y-111202879D01*
X149945646Y-111227655D01*
X150018700Y-111211043D01*
X150122528Y-111139494D01*
X150222612Y-110994934D01*
X150247313Y-110947651D01*
X150312449Y-110822333D01*
X150365744Y-110728701D01*
X150389583Y-110694307D01*
X150433866Y-110695013D01*
X150484178Y-110752826D01*
X150525039Y-110842964D01*
X150541000Y-110936672D01*
X150570752Y-111073464D01*
X150647087Y-111180402D01*
X150750627Y-111232637D01*
X150773152Y-111234334D01*
X150878249Y-111194103D01*
X151001483Y-111076184D01*
X151139313Y-110884730D01*
X151280613Y-110638403D01*
X151381150Y-110456885D01*
X151458126Y-110344531D01*
X151520083Y-110292159D01*
X151575562Y-110290588D01*
X151595097Y-110300382D01*
X151621849Y-110335291D01*
X151618286Y-110401982D01*
X151582083Y-110519672D01*
X151561927Y-110574715D01*
X151493853Y-110804018D01*
X151473307Y-110993104D01*
X151499127Y-111133226D01*
X151570153Y-111215639D01*
X151649533Y-111234334D01*
X151726975Y-111195795D01*
X151814922Y-111090441D01*
X151903622Y-110933663D01*
X151983321Y-110740854D01*
X152006102Y-110671562D01*
X152053641Y-110533124D01*
X152095027Y-110460687D01*
X152141955Y-110437489D01*
X152168566Y-110438729D01*
X152205066Y-110444396D01*
X152229469Y-110458125D01*
X152242860Y-110493423D01*
X152246328Y-110563799D01*
X152240960Y-110682761D01*
X152227842Y-110863819D01*
X152215562Y-111022667D01*
X152187795Y-111382500D01*
X152383693Y-111173681D01*
X152553420Y-110962111D01*
X152698799Y-110723147D01*
X152804299Y-110485265D01*
X152848450Y-110321552D01*
X152878691Y-110160263D01*
X152907535Y-110065640D01*
X152944133Y-110020343D01*
X152997633Y-110007030D01*
X153014599Y-110006667D01*
X153078626Y-110019803D01*
X153114599Y-110073974D01*
X153136917Y-110186584D01*
X153167157Y-110324029D01*
X153219847Y-110496088D01*
X153269672Y-110630242D01*
X153339642Y-110840695D01*
X153372796Y-111029744D01*
X153367544Y-111179529D01*
X153326534Y-111268200D01*
X153297575Y-111310059D01*
X153328636Y-111319000D01*
X153454342Y-111283260D01*
X153599514Y-111186075D01*
X153747338Y-111042503D01*
X153881000Y-110867597D01*
X153936281Y-110774921D01*
X154001171Y-110686047D01*
X154065889Y-110642543D01*
X154073865Y-110641667D01*
X154125540Y-110674780D01*
X154136937Y-110758007D01*
X154108405Y-110867179D01*
X154069577Y-110939164D01*
X153970318Y-111068328D01*
X153841339Y-111210186D01*
X153705548Y-111341828D01*
X153585854Y-111440346D01*
X153538186Y-111470562D01*
X153377301Y-111519959D01*
X153190625Y-111525264D01*
X153005519Y-111491192D01*
X152849343Y-111422458D01*
X152756807Y-111335893D01*
X152714642Y-111234619D01*
X152741497Y-111177813D01*
X152829929Y-111173581D01*
X152889321Y-111191552D01*
X153000625Y-111214058D01*
X153100066Y-111176011D01*
X153107881Y-111170982D01*
X153175924Y-111116140D01*
X153200832Y-111054573D01*
X153183482Y-110963999D01*
X153124755Y-110822137D01*
X153121891Y-110815814D01*
X153037640Y-110630128D01*
X152875046Y-110881693D01*
X152764118Y-111038093D01*
X152621640Y-111218348D01*
X152476104Y-111386621D01*
X152458167Y-111406046D01*
X152203882Y-111678834D01*
X152174804Y-112335000D01*
X152155663Y-112668289D01*
X152129195Y-112929535D01*
X152092175Y-113131263D01*
X152041382Y-113286000D01*
X151973591Y-113406268D01*
X151885580Y-113504593D01*
X151870281Y-113518360D01*
X151739550Y-113614376D01*
X151633159Y-113639016D01*
X151529842Y-113592237D01*
X151448504Y-113517541D01*
X151378788Y-113435746D01*
X151342522Y-113356440D01*
X151330327Y-113248255D01*
X151331319Y-113137949D01*
X151526347Y-113137949D01*
X151548316Y-113285138D01*
X151550710Y-113290601D01*
X151615551Y-113372893D01*
X151694535Y-113373746D01*
X151782999Y-113294276D01*
X151829863Y-113223862D01*
X151868765Y-113144467D01*
X151895285Y-113050471D01*
X151912198Y-112923116D01*
X151922282Y-112743646D01*
X151926947Y-112567834D01*
X151937085Y-112059834D01*
X151770273Y-112392260D01*
X151639277Y-112683521D01*
X151557318Y-112934746D01*
X151526347Y-113137949D01*
X151331319Y-113137949D01*
X151331427Y-113125958D01*
X151372357Y-112816108D01*
X151480296Y-112478162D01*
X151657793Y-112104219D01*
X151666249Y-112088634D01*
X151750690Y-111933329D01*
X151827107Y-111792169D01*
X151879673Y-111694396D01*
X151881631Y-111690721D01*
X151930573Y-111567774D01*
X151966401Y-111425184D01*
X151967984Y-111415555D01*
X151993069Y-111255500D01*
X151898653Y-111339205D01*
X151758379Y-111412868D01*
X151596671Y-111423828D01*
X151444751Y-111373939D01*
X151364038Y-111307455D01*
X151291275Y-111231105D01*
X151241056Y-111192983D01*
X151236536Y-111192000D01*
X151190467Y-111217592D01*
X151106779Y-111282239D01*
X151063699Y-111319000D01*
X150894825Y-111423525D01*
X150724733Y-111447248D01*
X150563302Y-111389939D01*
X150490685Y-111332520D01*
X150372237Y-111219039D01*
X150276702Y-111308215D01*
X150133440Y-111397152D01*
X149972195Y-111429375D01*
X149817187Y-111406389D01*
X149692638Y-111329701D01*
X149647967Y-111269130D01*
X149616041Y-111221851D01*
X149577803Y-111220525D01*
X149509055Y-111269434D01*
X149472054Y-111300267D01*
X149359881Y-111383119D01*
X149254008Y-111443778D01*
X149238087Y-111450466D01*
X149106146Y-111459308D01*
X148963757Y-111404859D01*
X148836291Y-111300546D01*
X148767710Y-111201539D01*
X148691622Y-111053228D01*
X148575776Y-111205109D01*
X148429313Y-111345566D01*
X148263369Y-111419496D01*
X148095603Y-111420342D01*
X148042252Y-111403219D01*
X147946734Y-111342691D01*
X147893722Y-111272114D01*
X147856145Y-111203699D01*
X147801581Y-111208020D01*
X147721811Y-111281172D01*
X147587657Y-111393140D01*
X147427677Y-111474745D01*
X147272611Y-111512730D01*
X147193815Y-111508874D01*
X147091780Y-111458288D01*
X146991287Y-111366921D01*
X146919332Y-111263553D01*
X146900334Y-111196048D01*
X146879340Y-111151681D01*
X146827335Y-111171179D01*
X146760778Y-111248301D01*
X146760206Y-111249172D01*
X146653817Y-111353137D01*
X146500276Y-111437860D01*
X146337097Y-111484496D01*
X146284131Y-111488334D01*
X146184238Y-111456115D01*
X146066627Y-111374498D01*
X145954761Y-111266044D01*
X145872103Y-111153311D01*
X145842000Y-111063218D01*
X145829406Y-111000690D01*
X145782628Y-110986136D01*
X145688179Y-111019655D01*
X145599057Y-111065000D01*
X145473914Y-111119333D01*
X145361031Y-111148229D01*
X145339758Y-111149667D01*
X145249610Y-111177365D01*
X145135040Y-111248013D01*
X145077073Y-111295441D01*
X144883671Y-111426527D01*
X144687807Y-111480981D01*
X144501683Y-111460426D01*
X144337500Y-111366487D01*
X144207458Y-111200786D01*
X144195730Y-111178184D01*
X144137682Y-111050363D01*
X144117321Y-110957601D01*
X144129744Y-110861782D01*
X144147050Y-110799703D01*
X144206087Y-110669101D01*
X144296961Y-110537335D01*
X144400669Y-110426152D01*
X144498205Y-110357302D01*
X144544102Y-110345334D01*
X144617128Y-110365047D01*
X144622948Y-110426423D01*
X144561093Y-110532815D01*
X144508513Y-110599318D01*
X144408367Y-110740729D01*
X144365348Y-110866457D01*
X144360982Y-110931422D01*
X144373171Y-111073283D01*
X144420883Y-111164434D01*
X144523073Y-111237192D01*
X144548138Y-111250529D01*
X144646431Y-111290244D01*
X144727669Y-111281082D01*
X144787903Y-111253309D01*
X144897862Y-111183550D01*
X144931083Y-111115800D01*
X144892489Y-111029703D01*
X144853839Y-110980542D01*
X144740319Y-110806304D01*
X144685674Y-110633361D01*
X144686757Y-110599613D01*
X144900547Y-110599613D01*
X144910271Y-110640288D01*
X144947377Y-110748396D01*
X144981347Y-110820205D01*
X145011781Y-110839390D01*
X145028414Y-110799600D01*
X145029525Y-110725657D01*
X145013395Y-110642387D01*
X144996502Y-110601517D01*
X144939180Y-110524757D01*
X144902606Y-110526185D01*
X144900547Y-110599613D01*
X144686757Y-110599613D01*
X144690673Y-110477597D01*
X144756084Y-110354897D01*
X144821202Y-110305568D01*
X144937754Y-110283779D01*
X145049138Y-110333636D01*
X145144921Y-110442282D01*
X145214665Y-110596859D01*
X145247935Y-110784512D01*
X145249334Y-110833024D01*
X145264017Y-110939174D01*
X145311550Y-110976544D01*
X145397158Y-110945072D01*
X145526063Y-110844691D01*
X145543104Y-110829446D01*
X145710119Y-110678558D01*
X145686155Y-110099196D01*
X145682856Y-109798632D01*
X145903413Y-109798632D01*
X145905083Y-109982158D01*
X145913828Y-110120545D01*
X145929244Y-110200207D01*
X145948358Y-110210603D01*
X145969040Y-110167735D01*
X146012406Y-110065476D01*
X146070275Y-109923276D01*
X146090147Y-109873455D01*
X146180664Y-109612566D01*
X146253326Y-109338001D01*
X146306436Y-109064669D01*
X146338294Y-108807481D01*
X146347205Y-108581345D01*
X146331469Y-108401170D01*
X146289389Y-108281866D01*
X146273616Y-108262349D01*
X146208120Y-108238231D01*
X146143750Y-108292199D01*
X146082626Y-108417678D01*
X146026867Y-108608094D01*
X145978591Y-108856872D01*
X145939918Y-109157436D01*
X145922902Y-109350500D01*
X145909218Y-109583551D01*
X145903413Y-109798632D01*
X145682856Y-109798632D01*
X145680948Y-109624856D01*
X145705207Y-109193715D01*
X145757580Y-108814580D01*
X145836713Y-108496260D01*
X145941251Y-108247564D01*
X145980681Y-108182885D01*
X146100955Y-108058967D01*
X146231638Y-108014140D01*
X146358580Y-108047532D01*
G37*
X146358580Y-108047532D02*
X146467631Y-108158269D01*
X146498808Y-108214830D01*
X146533738Y-108304967D01*
X146553002Y-108407226D01*
X146558500Y-108543734D01*
X146552135Y-108736617D01*
X146548848Y-108797372D01*
X146526107Y-109060803D01*
X146485793Y-109306522D01*
X146422203Y-109555820D01*
X146329637Y-109829989D01*
X146202391Y-110150322D01*
X146159058Y-110252858D01*
X145959211Y-110720961D01*
X146027446Y-110921222D01*
X146111372Y-111118827D01*
X146203255Y-111234296D01*
X146308069Y-111270107D01*
X146430791Y-111228737D01*
X146517942Y-111165508D01*
X146676120Y-110982860D01*
X146799968Y-110736346D01*
X146875203Y-110472334D01*
X146907924Y-110335180D01*
X146944420Y-110261392D01*
X146997054Y-110230109D01*
X147021573Y-110225341D01*
X147121645Y-110211181D01*
X147094172Y-110627507D01*
X147084892Y-110879139D01*
X147097561Y-111058688D01*
X147135294Y-111176615D01*
X147201211Y-111243385D01*
X147285069Y-111268140D01*
X147396899Y-111244804D01*
X147524814Y-111148128D01*
X147672261Y-110975093D01*
X147700587Y-110934960D01*
X148053994Y-110934960D01*
X148063756Y-111095650D01*
X148087156Y-111152450D01*
X148158123Y-111224198D01*
X148250197Y-111214060D01*
X148363086Y-111122069D01*
X148363143Y-111122008D01*
X148442436Y-111005513D01*
X148509522Y-110853437D01*
X148554668Y-110695959D01*
X148568139Y-110563259D01*
X148559299Y-110513805D01*
X148534499Y-110462746D01*
X148496164Y-110454249D01*
X148417596Y-110486927D01*
X148382100Y-110504597D01*
X148222250Y-110619480D01*
X148109853Y-110769585D01*
X148053994Y-110934960D01*
X147700587Y-110934960D01*
X147758199Y-110853334D01*
X147948756Y-110599858D01*
X148132322Y-110420031D01*
X148318558Y-110304490D01*
X148329084Y-110299808D01*
X148509000Y-110221342D01*
X148509000Y-109710442D01*
X148721320Y-109710442D01*
X148723120Y-109902617D01*
X148730379Y-110062661D01*
X148743159Y-110173518D01*
X148761521Y-110218132D01*
X148763000Y-110218334D01*
X148804230Y-110203275D01*
X148805334Y-110198863D01*
X148814958Y-110152134D01*
X148840907Y-110041705D01*
X148878795Y-109885970D01*
X148908798Y-109764946D01*
X148982836Y-109430207D01*
X149029458Y-109133656D01*
X149047568Y-108886750D01*
X149036066Y-108700949D01*
X149017459Y-108630834D01*
X148968090Y-108503834D01*
X148891208Y-108598221D01*
X148843139Y-108689783D01*
X148796546Y-108831460D01*
X148767496Y-108961522D01*
X148748068Y-109111674D01*
X148733855Y-109297915D01*
X148724919Y-109503189D01*
X148721320Y-109710442D01*
X148509000Y-109710442D01*
X148509000Y-109698446D01*
X148521512Y-109299752D01*
X148558065Y-108960807D01*
X148617185Y-108685670D01*
X148697395Y-108478401D01*
X148797221Y-108343056D01*
X148915189Y-108283696D01*
X149019727Y-108293032D01*
X149126286Y-108357097D01*
X149196527Y-108475432D01*
X149233882Y-108657090D01*
X149242248Y-108879798D01*
X149229517Y-109172307D01*
X149194366Y-109455777D01*
X149132226Y-109755061D01*
X149038528Y-110095012D01*
X148990163Y-110251185D01*
X148914357Y-110508448D01*
X148872917Y-110704652D01*
X148865633Y-110856024D01*
X148892294Y-110978788D01*
X148952690Y-111089172D01*
X148978852Y-111124206D01*
X149059798Y-111200761D01*
X149136279Y-111234273D01*
X149138768Y-111234334D01*
X149226415Y-111197143D01*
X149345062Y-111089520D01*
X149489132Y-110917391D01*
X149649569Y-110691889D01*
X149818197Y-110472407D01*
X149980783Y-110333117D01*
X150144934Y-110270653D01*
X150318258Y-110281648D01*
X150456334Y-110334816D01*
X150553261Y-110400267D01*
X150600572Y-110465499D01*
X150592621Y-110513452D01*
X150523759Y-110527063D01*
X150519834Y-110526671D01*
X150314849Y-110508385D01*
X150172813Y-110508731D01*
X150073311Y-110531543D01*
X149995929Y-110580654D01*
X149941760Y-110635222D01*
X149853698Y-110763147D01*
X149822952Y-110904822D01*
X149821982Y-110949251D01*
X149834095Y-111112895D01*
X149873200Y-111202879D01*
X149945646Y-111227655D01*
X150018700Y-111211043D01*
X150122528Y-111139494D01*
X150222612Y-110994934D01*
X150247313Y-110947651D01*
X150312449Y-110822333D01*
X150365744Y-110728701D01*
X150389583Y-110694307D01*
X150433866Y-110695013D01*
X150484178Y-110752826D01*
X150525039Y-110842964D01*
X150541000Y-110936672D01*
X150570752Y-111073464D01*
X150647087Y-111180402D01*
X150750627Y-111232637D01*
X150773152Y-111234334D01*
X150878249Y-111194103D01*
X151001483Y-111076184D01*
X151139313Y-110884730D01*
X151280613Y-110638403D01*
X151381150Y-110456885D01*
X151458126Y-110344531D01*
X151520083Y-110292159D01*
X151575562Y-110290588D01*
X151595097Y-110300382D01*
X151621849Y-110335291D01*
X151618286Y-110401982D01*
X151582083Y-110519672D01*
X151561927Y-110574715D01*
X151493853Y-110804018D01*
X151473307Y-110993104D01*
X151499127Y-111133226D01*
X151570153Y-111215639D01*
X151649533Y-111234334D01*
X151726975Y-111195795D01*
X151814922Y-111090441D01*
X151903622Y-110933663D01*
X151983321Y-110740854D01*
X152006102Y-110671562D01*
X152053641Y-110533124D01*
X152095027Y-110460687D01*
X152141955Y-110437489D01*
X152168566Y-110438729D01*
X152205066Y-110444396D01*
X152229469Y-110458125D01*
X152242860Y-110493423D01*
X152246328Y-110563799D01*
X152240960Y-110682761D01*
X152227842Y-110863819D01*
X152215562Y-111022667D01*
X152187795Y-111382500D01*
X152383693Y-111173681D01*
X152553420Y-110962111D01*
X152698799Y-110723147D01*
X152804299Y-110485265D01*
X152848450Y-110321552D01*
X152878691Y-110160263D01*
X152907535Y-110065640D01*
X152944133Y-110020343D01*
X152997633Y-110007030D01*
X153014599Y-110006667D01*
X153078626Y-110019803D01*
X153114599Y-110073974D01*
X153136917Y-110186584D01*
X153167157Y-110324029D01*
X153219847Y-110496088D01*
X153269672Y-110630242D01*
X153339642Y-110840695D01*
X153372796Y-111029744D01*
X153367544Y-111179529D01*
X153326534Y-111268200D01*
X153297575Y-111310059D01*
X153328636Y-111319000D01*
X153454342Y-111283260D01*
X153599514Y-111186075D01*
X153747338Y-111042503D01*
X153881000Y-110867597D01*
X153936281Y-110774921D01*
X154001171Y-110686047D01*
X154065889Y-110642543D01*
X154073865Y-110641667D01*
X154125540Y-110674780D01*
X154136937Y-110758007D01*
X154108405Y-110867179D01*
X154069577Y-110939164D01*
X153970318Y-111068328D01*
X153841339Y-111210186D01*
X153705548Y-111341828D01*
X153585854Y-111440346D01*
X153538186Y-111470562D01*
X153377301Y-111519959D01*
X153190625Y-111525264D01*
X153005519Y-111491192D01*
X152849343Y-111422458D01*
X152756807Y-111335893D01*
X152714642Y-111234619D01*
X152741497Y-111177813D01*
X152829929Y-111173581D01*
X152889321Y-111191552D01*
X153000625Y-111214058D01*
X153100066Y-111176011D01*
X153107881Y-111170982D01*
X153175924Y-111116140D01*
X153200832Y-111054573D01*
X153183482Y-110963999D01*
X153124755Y-110822137D01*
X153121891Y-110815814D01*
X153037640Y-110630128D01*
X152875046Y-110881693D01*
X152764118Y-111038093D01*
X152621640Y-111218348D01*
X152476104Y-111386621D01*
X152458167Y-111406046D01*
X152203882Y-111678834D01*
X152174804Y-112335000D01*
X152155663Y-112668289D01*
X152129195Y-112929535D01*
X152092175Y-113131263D01*
X152041382Y-113286000D01*
X151973591Y-113406268D01*
X151885580Y-113504593D01*
X151870281Y-113518360D01*
X151739550Y-113614376D01*
X151633159Y-113639016D01*
X151529842Y-113592237D01*
X151448504Y-113517541D01*
X151378788Y-113435746D01*
X151342522Y-113356440D01*
X151330327Y-113248255D01*
X151331319Y-113137949D01*
X151526347Y-113137949D01*
X151548316Y-113285138D01*
X151550710Y-113290601D01*
X151615551Y-113372893D01*
X151694535Y-113373746D01*
X151782999Y-113294276D01*
X151829863Y-113223862D01*
X151868765Y-113144467D01*
X151895285Y-113050471D01*
X151912198Y-112923116D01*
X151922282Y-112743646D01*
X151926947Y-112567834D01*
X151937085Y-112059834D01*
X151770273Y-112392260D01*
X151639277Y-112683521D01*
X151557318Y-112934746D01*
X151526347Y-113137949D01*
X151331319Y-113137949D01*
X151331427Y-113125958D01*
X151372357Y-112816108D01*
X151480296Y-112478162D01*
X151657793Y-112104219D01*
X151666249Y-112088634D01*
X151750690Y-111933329D01*
X151827107Y-111792169D01*
X151879673Y-111694396D01*
X151881631Y-111690721D01*
X151930573Y-111567774D01*
X151966401Y-111425184D01*
X151967984Y-111415555D01*
X151993069Y-111255500D01*
X151898653Y-111339205D01*
X151758379Y-111412868D01*
X151596671Y-111423828D01*
X151444751Y-111373939D01*
X151364038Y-111307455D01*
X151291275Y-111231105D01*
X151241056Y-111192983D01*
X151236536Y-111192000D01*
X151190467Y-111217592D01*
X151106779Y-111282239D01*
X151063699Y-111319000D01*
X150894825Y-111423525D01*
X150724733Y-111447248D01*
X150563302Y-111389939D01*
X150490685Y-111332520D01*
X150372237Y-111219039D01*
X150276702Y-111308215D01*
X150133440Y-111397152D01*
X149972195Y-111429375D01*
X149817187Y-111406389D01*
X149692638Y-111329701D01*
X149647967Y-111269130D01*
X149616041Y-111221851D01*
X149577803Y-111220525D01*
X149509055Y-111269434D01*
X149472054Y-111300267D01*
X149359881Y-111383119D01*
X149254008Y-111443778D01*
X149238087Y-111450466D01*
X149106146Y-111459308D01*
X148963757Y-111404859D01*
X148836291Y-111300546D01*
X148767710Y-111201539D01*
X148691622Y-111053228D01*
X148575776Y-111205109D01*
X148429313Y-111345566D01*
X148263369Y-111419496D01*
X148095603Y-111420342D01*
X148042252Y-111403219D01*
X147946734Y-111342691D01*
X147893722Y-111272114D01*
X147856145Y-111203699D01*
X147801581Y-111208020D01*
X147721811Y-111281172D01*
X147587657Y-111393140D01*
X147427677Y-111474745D01*
X147272611Y-111512730D01*
X147193815Y-111508874D01*
X147091780Y-111458288D01*
X146991287Y-111366921D01*
X146919332Y-111263553D01*
X146900334Y-111196048D01*
X146879340Y-111151681D01*
X146827335Y-111171179D01*
X146760778Y-111248301D01*
X146760206Y-111249172D01*
X146653817Y-111353137D01*
X146500276Y-111437860D01*
X146337097Y-111484496D01*
X146284131Y-111488334D01*
X146184238Y-111456115D01*
X146066627Y-111374498D01*
X145954761Y-111266044D01*
X145872103Y-111153311D01*
X145842000Y-111063218D01*
X145829406Y-111000690D01*
X145782628Y-110986136D01*
X145688179Y-111019655D01*
X145599057Y-111065000D01*
X145473914Y-111119333D01*
X145361031Y-111148229D01*
X145339758Y-111149667D01*
X145249610Y-111177365D01*
X145135040Y-111248013D01*
X145077073Y-111295441D01*
X144883671Y-111426527D01*
X144687807Y-111480981D01*
X144501683Y-111460426D01*
X144337500Y-111366487D01*
X144207458Y-111200786D01*
X144195730Y-111178184D01*
X144137682Y-111050363D01*
X144117321Y-110957601D01*
X144129744Y-110861782D01*
X144147050Y-110799703D01*
X144206087Y-110669101D01*
X144296961Y-110537335D01*
X144400669Y-110426152D01*
X144498205Y-110357302D01*
X144544102Y-110345334D01*
X144617128Y-110365047D01*
X144622948Y-110426423D01*
X144561093Y-110532815D01*
X144508513Y-110599318D01*
X144408367Y-110740729D01*
X144365348Y-110866457D01*
X144360982Y-110931422D01*
X144373171Y-111073283D01*
X144420883Y-111164434D01*
X144523073Y-111237192D01*
X144548138Y-111250529D01*
X144646431Y-111290244D01*
X144727669Y-111281082D01*
X144787903Y-111253309D01*
X144897862Y-111183550D01*
X144931083Y-111115800D01*
X144892489Y-111029703D01*
X144853839Y-110980542D01*
X144740319Y-110806304D01*
X144685674Y-110633361D01*
X144686757Y-110599613D01*
X144900547Y-110599613D01*
X144910271Y-110640288D01*
X144947377Y-110748396D01*
X144981347Y-110820205D01*
X145011781Y-110839390D01*
X145028414Y-110799600D01*
X145029525Y-110725657D01*
X145013395Y-110642387D01*
X144996502Y-110601517D01*
X144939180Y-110524757D01*
X144902606Y-110526185D01*
X144900547Y-110599613D01*
X144686757Y-110599613D01*
X144690673Y-110477597D01*
X144756084Y-110354897D01*
X144821202Y-110305568D01*
X144937754Y-110283779D01*
X145049138Y-110333636D01*
X145144921Y-110442282D01*
X145214665Y-110596859D01*
X145247935Y-110784512D01*
X145249334Y-110833024D01*
X145264017Y-110939174D01*
X145311550Y-110976544D01*
X145397158Y-110945072D01*
X145526063Y-110844691D01*
X145543104Y-110829446D01*
X145710119Y-110678558D01*
X145686155Y-110099196D01*
X145682856Y-109798632D01*
X145903413Y-109798632D01*
X145905083Y-109982158D01*
X145913828Y-110120545D01*
X145929244Y-110200207D01*
X145948358Y-110210603D01*
X145969040Y-110167735D01*
X146012406Y-110065476D01*
X146070275Y-109923276D01*
X146090147Y-109873455D01*
X146180664Y-109612566D01*
X146253326Y-109338001D01*
X146306436Y-109064669D01*
X146338294Y-108807481D01*
X146347205Y-108581345D01*
X146331469Y-108401170D01*
X146289389Y-108281866D01*
X146273616Y-108262349D01*
X146208120Y-108238231D01*
X146143750Y-108292199D01*
X146082626Y-108417678D01*
X146026867Y-108608094D01*
X145978591Y-108856872D01*
X145939918Y-109157436D01*
X145922902Y-109350500D01*
X145909218Y-109583551D01*
X145903413Y-109798632D01*
X145682856Y-109798632D01*
X145680948Y-109624856D01*
X145705207Y-109193715D01*
X145757580Y-108814580D01*
X145836713Y-108496260D01*
X145941251Y-108247564D01*
X145980681Y-108182885D01*
X146100955Y-108058967D01*
X146231638Y-108014140D01*
X146358580Y-108047532D01*
G36*
X141856878Y-107886902D02*
G01*
X141935441Y-107953178D01*
X141963673Y-107998520D01*
X141963191Y-108070300D01*
X141935066Y-108173043D01*
X141891825Y-108274771D01*
X141845991Y-108343505D01*
X141823783Y-108355667D01*
X141778070Y-108381942D01*
X141694535Y-108448803D01*
X141642234Y-108495179D01*
X141584275Y-108549959D01*
X141541008Y-108601740D01*
X141509030Y-108664255D01*
X141484935Y-108751235D01*
X141465321Y-108876412D01*
X141446783Y-109053516D01*
X141425918Y-109296280D01*
X141417097Y-109403417D01*
X141391873Y-109710334D01*
X142040020Y-109705385D01*
X142421601Y-109699745D01*
X142724375Y-109688900D01*
X142954077Y-109672277D01*
X143116441Y-109649303D01*
X143217200Y-109619404D01*
X143261457Y-109583334D01*
X143283032Y-109512114D01*
X143310483Y-109383379D01*
X143338257Y-109223506D01*
X143341141Y-109204842D01*
X143400612Y-108931947D01*
X143489351Y-108675153D01*
X143597909Y-108457081D01*
X143716833Y-108300352D01*
X143720579Y-108296722D01*
X143847441Y-108212184D01*
X143999276Y-108162659D01*
X144147795Y-108152649D01*
X144264711Y-108186652D01*
X144289503Y-108206217D01*
X144339347Y-108275290D01*
X144320133Y-108322465D01*
X144225704Y-108354646D01*
X144145538Y-108367651D01*
X143948683Y-108435076D01*
X143784777Y-108573829D01*
X143703560Y-108696211D01*
X143656326Y-108814397D01*
X143603748Y-108988549D01*
X143553104Y-109190913D01*
X143511672Y-109393734D01*
X143497182Y-109483182D01*
X143471900Y-109658197D01*
X143754161Y-109688425D01*
X143941833Y-109711078D01*
X144059911Y-109733527D01*
X144123320Y-109760575D01*
X144146986Y-109797026D01*
X144148667Y-109815404D01*
X144108490Y-109862708D01*
X143995472Y-109897754D01*
X143820878Y-109917993D01*
X143677709Y-109922000D01*
X143587263Y-109921854D01*
X143525776Y-109930177D01*
X143489541Y-109960107D01*
X143474854Y-110024786D01*
X143478008Y-110137351D01*
X143495298Y-110310944D01*
X143516013Y-110495361D01*
X143545720Y-110705877D01*
X143585815Y-110916618D01*
X143629101Y-111091312D01*
X143643013Y-111135320D01*
X143688155Y-111282885D01*
X143718056Y-111411975D01*
X143725334Y-111473794D01*
X143701364Y-111553636D01*
X143642432Y-111568212D01*
X143568002Y-111517110D01*
X143537963Y-111477750D01*
X143472487Y-111336332D01*
X143410219Y-111122242D01*
X143353975Y-110847475D01*
X143306572Y-110524025D01*
X143299073Y-110460477D01*
X143277020Y-110273947D01*
X143256886Y-110116615D01*
X143241386Y-110009035D01*
X143234916Y-109974917D01*
X143206159Y-109954150D01*
X143127535Y-109939143D01*
X142990332Y-109929265D01*
X142785837Y-109923885D01*
X142509579Y-109922368D01*
X142254291Y-109924050D01*
X142011728Y-109928453D01*
X141801888Y-109935012D01*
X141644770Y-109943161D01*
X141584351Y-109948551D01*
X141369534Y-109974366D01*
X141316361Y-110233933D01*
X141206951Y-110604669D01*
X141044103Y-110918398D01*
X140831552Y-111170169D01*
X140573033Y-111355031D01*
X140418736Y-111424157D01*
X140133300Y-111495022D01*
X139828683Y-111511927D01*
X139521750Y-111479180D01*
X139229365Y-111401086D01*
X138968393Y-111281952D01*
X138755697Y-111126084D01*
X138624245Y-110965932D01*
X138578637Y-110853592D01*
X138596206Y-110791002D01*
X138665247Y-110788400D01*
X138761635Y-110845746D01*
X138983696Y-111016612D01*
X139169854Y-111136083D01*
X139343743Y-111212959D01*
X139528998Y-111256044D01*
X139749253Y-111274137D01*
X139918777Y-111276667D01*
X140238814Y-111243578D01*
X140507606Y-111143564D01*
X140727180Y-110975506D01*
X140899567Y-110738282D01*
X140901946Y-110733931D01*
X140967569Y-110594608D01*
X141029264Y-110431838D01*
X141080402Y-110268054D01*
X141114354Y-110125690D01*
X141124493Y-110027177D01*
X141118446Y-110001186D01*
X141066745Y-109980766D01*
X140957912Y-109967383D01*
X140864006Y-109964334D01*
X140714298Y-109956472D01*
X140632456Y-109930246D01*
X140607275Y-109899008D01*
X140596265Y-109839664D01*
X140628286Y-109801758D01*
X140717414Y-109777894D01*
X140869260Y-109761373D01*
X141005666Y-109744164D01*
X141095431Y-109708937D01*
X141150424Y-109639566D01*
X141182517Y-109519926D01*
X141203582Y-109333891D01*
X141206149Y-109303750D01*
X141222249Y-109118742D01*
X141239185Y-108935410D01*
X141250788Y-108818009D01*
X141260659Y-108700237D01*
X141249663Y-108646122D01*
X141205805Y-108635121D01*
X141148148Y-108642215D01*
X141063450Y-108642542D01*
X140913586Y-108631251D01*
X140716983Y-108610175D01*
X140492067Y-108581146D01*
X140396237Y-108567414D01*
X139960428Y-108510931D01*
X139595088Y-108480282D01*
X139302826Y-108475526D01*
X139086253Y-108496720D01*
X138961886Y-108536075D01*
X138769533Y-108669714D01*
X138657842Y-108826426D01*
X138627770Y-109002394D01*
X138680276Y-109193801D01*
X138762712Y-109329570D01*
X138861716Y-109481004D01*
X138896137Y-109578501D01*
X138866140Y-109622681D01*
X138841543Y-109625667D01*
X138737276Y-109588329D01*
X138625659Y-109490329D01*
X138521627Y-109352683D01*
X138440117Y-109196411D01*
X138396065Y-109042528D01*
X138392263Y-108993449D01*
X138423583Y-108836685D01*
X138508067Y-108664688D01*
X138627743Y-108508140D01*
X138727733Y-108420738D01*
X138884178Y-108332441D01*
X139061309Y-108275387D01*
X139272315Y-108248448D01*
X139530382Y-108250496D01*
X139848697Y-108280403D01*
X140049655Y-108307647D01*
X140301159Y-108343007D01*
X140552745Y-108375881D01*
X140778412Y-108403028D01*
X140952159Y-108421208D01*
X140980989Y-108423696D01*
X141291167Y-108448863D01*
X141382367Y-108271000D01*
X141574378Y-108271000D01*
X141615207Y-108243180D01*
X141672167Y-108186334D01*
X141721055Y-108125008D01*
X141727622Y-108101667D01*
X141686793Y-108129487D01*
X141629834Y-108186334D01*
X141580945Y-108247659D01*
X141574378Y-108271000D01*
X141382367Y-108271000D01*
X141418167Y-108201181D01*
X141536549Y-108013270D01*
X141658616Y-107900030D01*
X141779417Y-107865006D01*
X141856878Y-107886902D01*
G37*
X141856878Y-107886902D02*
X141935441Y-107953178D01*
X141963673Y-107998520D01*
X141963191Y-108070300D01*
X141935066Y-108173043D01*
X141891825Y-108274771D01*
X141845991Y-108343505D01*
X141823783Y-108355667D01*
X141778070Y-108381942D01*
X141694535Y-108448803D01*
X141642234Y-108495179D01*
X141584275Y-108549959D01*
X141541008Y-108601740D01*
X141509030Y-108664255D01*
X141484935Y-108751235D01*
X141465321Y-108876412D01*
X141446783Y-109053516D01*
X141425918Y-109296280D01*
X141417097Y-109403417D01*
X141391873Y-109710334D01*
X142040020Y-109705385D01*
X142421601Y-109699745D01*
X142724375Y-109688900D01*
X142954077Y-109672277D01*
X143116441Y-109649303D01*
X143217200Y-109619404D01*
X143261457Y-109583334D01*
X143283032Y-109512114D01*
X143310483Y-109383379D01*
X143338257Y-109223506D01*
X143341141Y-109204842D01*
X143400612Y-108931947D01*
X143489351Y-108675153D01*
X143597909Y-108457081D01*
X143716833Y-108300352D01*
X143720579Y-108296722D01*
X143847441Y-108212184D01*
X143999276Y-108162659D01*
X144147795Y-108152649D01*
X144264711Y-108186652D01*
X144289503Y-108206217D01*
X144339347Y-108275290D01*
X144320133Y-108322465D01*
X144225704Y-108354646D01*
X144145538Y-108367651D01*
X143948683Y-108435076D01*
X143784777Y-108573829D01*
X143703560Y-108696211D01*
X143656326Y-108814397D01*
X143603748Y-108988549D01*
X143553104Y-109190913D01*
X143511672Y-109393734D01*
X143497182Y-109483182D01*
X143471900Y-109658197D01*
X143754161Y-109688425D01*
X143941833Y-109711078D01*
X144059911Y-109733527D01*
X144123320Y-109760575D01*
X144146986Y-109797026D01*
X144148667Y-109815404D01*
X144108490Y-109862708D01*
X143995472Y-109897754D01*
X143820878Y-109917993D01*
X143677709Y-109922000D01*
X143587263Y-109921854D01*
X143525776Y-109930177D01*
X143489541Y-109960107D01*
X143474854Y-110024786D01*
X143478008Y-110137351D01*
X143495298Y-110310944D01*
X143516013Y-110495361D01*
X143545720Y-110705877D01*
X143585815Y-110916618D01*
X143629101Y-111091312D01*
X143643013Y-111135320D01*
X143688155Y-111282885D01*
X143718056Y-111411975D01*
X143725334Y-111473794D01*
X143701364Y-111553636D01*
X143642432Y-111568212D01*
X143568002Y-111517110D01*
X143537963Y-111477750D01*
X143472487Y-111336332D01*
X143410219Y-111122242D01*
X143353975Y-110847475D01*
X143306572Y-110524025D01*
X143299073Y-110460477D01*
X143277020Y-110273947D01*
X143256886Y-110116615D01*
X143241386Y-110009035D01*
X143234916Y-109974917D01*
X143206159Y-109954150D01*
X143127535Y-109939143D01*
X142990332Y-109929265D01*
X142785837Y-109923885D01*
X142509579Y-109922368D01*
X142254291Y-109924050D01*
X142011728Y-109928453D01*
X141801888Y-109935012D01*
X141644770Y-109943161D01*
X141584351Y-109948551D01*
X141369534Y-109974366D01*
X141316361Y-110233933D01*
X141206951Y-110604669D01*
X141044103Y-110918398D01*
X140831552Y-111170169D01*
X140573033Y-111355031D01*
X140418736Y-111424157D01*
X140133300Y-111495022D01*
X139828683Y-111511927D01*
X139521750Y-111479180D01*
X139229365Y-111401086D01*
X138968393Y-111281952D01*
X138755697Y-111126084D01*
X138624245Y-110965932D01*
X138578637Y-110853592D01*
X138596206Y-110791002D01*
X138665247Y-110788400D01*
X138761635Y-110845746D01*
X138983696Y-111016612D01*
X139169854Y-111136083D01*
X139343743Y-111212959D01*
X139528998Y-111256044D01*
X139749253Y-111274137D01*
X139918777Y-111276667D01*
X140238814Y-111243578D01*
X140507606Y-111143564D01*
X140727180Y-110975506D01*
X140899567Y-110738282D01*
X140901946Y-110733931D01*
X140967569Y-110594608D01*
X141029264Y-110431838D01*
X141080402Y-110268054D01*
X141114354Y-110125690D01*
X141124493Y-110027177D01*
X141118446Y-110001186D01*
X141066745Y-109980766D01*
X140957912Y-109967383D01*
X140864006Y-109964334D01*
X140714298Y-109956472D01*
X140632456Y-109930246D01*
X140607275Y-109899008D01*
X140596265Y-109839664D01*
X140628286Y-109801758D01*
X140717414Y-109777894D01*
X140869260Y-109761373D01*
X141005666Y-109744164D01*
X141095431Y-109708937D01*
X141150424Y-109639566D01*
X141182517Y-109519926D01*
X141203582Y-109333891D01*
X141206149Y-109303750D01*
X141222249Y-109118742D01*
X141239185Y-108935410D01*
X141250788Y-108818009D01*
X141260659Y-108700237D01*
X141249663Y-108646122D01*
X141205805Y-108635121D01*
X141148148Y-108642215D01*
X141063450Y-108642542D01*
X140913586Y-108631251D01*
X140716983Y-108610175D01*
X140492067Y-108581146D01*
X140396237Y-108567414D01*
X139960428Y-108510931D01*
X139595088Y-108480282D01*
X139302826Y-108475526D01*
X139086253Y-108496720D01*
X138961886Y-108536075D01*
X138769533Y-108669714D01*
X138657842Y-108826426D01*
X138627770Y-109002394D01*
X138680276Y-109193801D01*
X138762712Y-109329570D01*
X138861716Y-109481004D01*
X138896137Y-109578501D01*
X138866140Y-109622681D01*
X138841543Y-109625667D01*
X138737276Y-109588329D01*
X138625659Y-109490329D01*
X138521627Y-109352683D01*
X138440117Y-109196411D01*
X138396065Y-109042528D01*
X138392263Y-108993449D01*
X138423583Y-108836685D01*
X138508067Y-108664688D01*
X138627743Y-108508140D01*
X138727733Y-108420738D01*
X138884178Y-108332441D01*
X139061309Y-108275387D01*
X139272315Y-108248448D01*
X139530382Y-108250496D01*
X139848697Y-108280403D01*
X140049655Y-108307647D01*
X140301159Y-108343007D01*
X140552745Y-108375881D01*
X140778412Y-108403028D01*
X140952159Y-108421208D01*
X140980989Y-108423696D01*
X141291167Y-108448863D01*
X141382367Y-108271000D01*
X141574378Y-108271000D01*
X141615207Y-108243180D01*
X141672167Y-108186334D01*
X141721055Y-108125008D01*
X141727622Y-108101667D01*
X141686793Y-108129487D01*
X141629834Y-108186334D01*
X141580945Y-108247659D01*
X141574378Y-108271000D01*
X141382367Y-108271000D01*
X141418167Y-108201181D01*
X141536549Y-108013270D01*
X141658616Y-107900030D01*
X141779417Y-107865006D01*
X141856878Y-107886902D01*
G04 #@! TD*
G04 #@! TO.C,R3*
G36*
G01*
X139975000Y-84206250D02*
X139975000Y-83293750D01*
G75*
G02*
X140218750Y-83050000I243750J0D01*
G01*
X140706250Y-83050000D01*
G75*
G02*
X140950000Y-83293750I0J-243750D01*
G01*
X140950000Y-84206250D01*
G75*
G02*
X140706250Y-84450000I-243750J0D01*
G01*
X140218750Y-84450000D01*
G75*
G02*
X139975000Y-84206250I0J243750D01*
G01*
G37*
G36*
G01*
X138100000Y-84206250D02*
X138100000Y-83293750D01*
G75*
G02*
X138343750Y-83050000I243750J0D01*
G01*
X138831250Y-83050000D01*
G75*
G02*
X139075000Y-83293750I0J-243750D01*
G01*
X139075000Y-84206250D01*
G75*
G02*
X138831250Y-84450000I-243750J0D01*
G01*
X138343750Y-84450000D01*
G75*
G02*
X138100000Y-84206250I0J243750D01*
G01*
G37*
G04 #@! TD*
G04 #@! TO.C,R5*
G36*
G01*
X154200000Y-100431250D02*
X154200000Y-99518750D01*
G75*
G02*
X154443750Y-99275000I243750J0D01*
G01*
X154931250Y-99275000D01*
G75*
G02*
X155175000Y-99518750I0J-243750D01*
G01*
X155175000Y-100431250D01*
G75*
G02*
X154931250Y-100675000I-243750J0D01*
G01*
X154443750Y-100675000D01*
G75*
G02*
X154200000Y-100431250I0J243750D01*
G01*
G37*
G36*
G01*
X156075000Y-100431250D02*
X156075000Y-99518750D01*
G75*
G02*
X156318750Y-99275000I243750J0D01*
G01*
X156806250Y-99275000D01*
G75*
G02*
X157050000Y-99518750I0J-243750D01*
G01*
X157050000Y-100431250D01*
G75*
G02*
X156806250Y-100675000I-243750J0D01*
G01*
X156318750Y-100675000D01*
G75*
G02*
X156075000Y-100431250I0J243750D01*
G01*
G37*
G04 #@! TD*
G04 #@! TO.C,R4*
G36*
G01*
X149650000Y-85731250D02*
X149650000Y-84818750D01*
G75*
G02*
X149893750Y-84575000I243750J0D01*
G01*
X150381250Y-84575000D01*
G75*
G02*
X150625000Y-84818750I0J-243750D01*
G01*
X150625000Y-85731250D01*
G75*
G02*
X150381250Y-85975000I-243750J0D01*
G01*
X149893750Y-85975000D01*
G75*
G02*
X149650000Y-85731250I0J243750D01*
G01*
G37*
G36*
G01*
X151525000Y-85731250D02*
X151525000Y-84818750D01*
G75*
G02*
X151768750Y-84575000I243750J0D01*
G01*
X152256250Y-84575000D01*
G75*
G02*
X152500000Y-84818750I0J-243750D01*
G01*
X152500000Y-85731250D01*
G75*
G02*
X152256250Y-85975000I-243750J0D01*
G01*
X151768750Y-85975000D01*
G75*
G02*
X151525000Y-85731250I0J243750D01*
G01*
G37*
G04 #@! TD*
G04 #@! TO.C,R1*
G36*
G01*
X120637500Y-99256250D02*
X120637500Y-98343750D01*
G75*
G02*
X120881250Y-98100000I243750J0D01*
G01*
X121368750Y-98100000D01*
G75*
G02*
X121612500Y-98343750I0J-243750D01*
G01*
X121612500Y-99256250D01*
G75*
G02*
X121368750Y-99500000I-243750J0D01*
G01*
X120881250Y-99500000D01*
G75*
G02*
X120637500Y-99256250I0J243750D01*
G01*
G37*
G36*
G01*
X122512500Y-99256250D02*
X122512500Y-98343750D01*
G75*
G02*
X122756250Y-98100000I243750J0D01*
G01*
X123243750Y-98100000D01*
G75*
G02*
X123487500Y-98343750I0J-243750D01*
G01*
X123487500Y-99256250D01*
G75*
G02*
X123243750Y-99500000I-243750J0D01*
G01*
X122756250Y-99500000D01*
G75*
G02*
X122512500Y-99256250I0J243750D01*
G01*
G37*
G04 #@! TD*
G04 #@! TO.C,R2*
G36*
G01*
X127462500Y-85256250D02*
X127462500Y-84343750D01*
G75*
G02*
X127706250Y-84100000I243750J0D01*
G01*
X128193750Y-84100000D01*
G75*
G02*
X128437500Y-84343750I0J-243750D01*
G01*
X128437500Y-85256250D01*
G75*
G02*
X128193750Y-85500000I-243750J0D01*
G01*
X127706250Y-85500000D01*
G75*
G02*
X127462500Y-85256250I0J243750D01*
G01*
G37*
G36*
G01*
X125587500Y-85256250D02*
X125587500Y-84343750D01*
G75*
G02*
X125831250Y-84100000I243750J0D01*
G01*
X126318750Y-84100000D01*
G75*
G02*
X126562500Y-84343750I0J-243750D01*
G01*
X126562500Y-85256250D01*
G75*
G02*
X126318750Y-85500000I-243750J0D01*
G01*
X125831250Y-85500000D01*
G75*
G02*
X125587500Y-85256250I0J243750D01*
G01*
G37*
G04 #@! TD*
M02*
