G04 #@! TF.GenerationSoftware,KiCad,Pcbnew,(5.1.6)-1*
G04 #@! TF.CreationDate,2020-11-21T22:09:05+04:00*
G04 #@! TF.ProjectId,christmas-pcb-badge,63687269-7374-46d6-9173-2d7063622d62,rev?*
G04 #@! TF.SameCoordinates,Original*
G04 #@! TF.FileFunction,Legend,Top*
G04 #@! TF.FilePolarity,Positive*
%FSLAX46Y46*%
G04 Gerber Fmt 4.6, Leading zero omitted, Abs format (unit mm)*
G04 Created by KiCad (PCBNEW (5.1.6)-1) date 2020-11-21 22:09:05*
%MOMM*%
%LPD*%
G01*
G04 APERTURE LIST*
%ADD10C,0.120000*%
%ADD11C,0.010000*%
G04 APERTURE END LIST*
D10*
G04 #@! TO.C,R3*
X140525000Y-82790000D02*
X137840000Y-82790000D01*
X137840000Y-82790000D02*
X137840000Y-84710000D01*
X137840000Y-84710000D02*
X140525000Y-84710000D01*
G04 #@! TO.C,R5*
X156625000Y-99015000D02*
X153940000Y-99015000D01*
X153940000Y-99015000D02*
X153940000Y-100935000D01*
X153940000Y-100935000D02*
X156625000Y-100935000D01*
G04 #@! TO.C,R4*
X152075000Y-84315000D02*
X149390000Y-84315000D01*
X149390000Y-84315000D02*
X149390000Y-86235000D01*
X149390000Y-86235000D02*
X152075000Y-86235000D01*
G04 #@! TO.C,R1*
X123062500Y-97840000D02*
X120377500Y-97840000D01*
X120377500Y-97840000D02*
X120377500Y-99760000D01*
X120377500Y-99760000D02*
X123062500Y-99760000D01*
G04 #@! TO.C,R2*
X128012500Y-83840000D02*
X125327500Y-83840000D01*
X125327500Y-83840000D02*
X125327500Y-85760000D01*
X125327500Y-85760000D02*
X128012500Y-85760000D01*
D11*
G04 #@! TO.C,G\u002A\u002A\u002A*
G36*
X139513167Y-84536218D02*
G01*
X139529381Y-84549214D01*
X139556963Y-84583417D01*
X139598111Y-84642532D01*
X139655022Y-84730266D01*
X139729894Y-84850325D01*
X139824926Y-85006414D01*
X139942315Y-85202239D01*
X140084258Y-85441507D01*
X140252955Y-85727923D01*
X140450602Y-86065193D01*
X140679397Y-86457023D01*
X140941539Y-86907119D01*
X141239225Y-87419187D01*
X141574654Y-87996933D01*
X141950022Y-88644063D01*
X141977721Y-88691834D01*
X142378545Y-89383202D01*
X142738934Y-90005045D01*
X143060981Y-90561043D01*
X143346784Y-91054880D01*
X143598437Y-91490237D01*
X143818037Y-91870795D01*
X144007678Y-92200239D01*
X144169458Y-92482248D01*
X144305471Y-92720507D01*
X144417813Y-92918696D01*
X144508580Y-93080498D01*
X144579868Y-93209594D01*
X144633772Y-93309668D01*
X144672388Y-93384401D01*
X144697811Y-93437475D01*
X144712138Y-93472573D01*
X144717464Y-93493376D01*
X144716138Y-93503186D01*
X144667622Y-93517260D01*
X144551616Y-93529369D01*
X144385291Y-93538252D01*
X144185820Y-93542648D01*
X144177918Y-93542709D01*
X143954881Y-93546540D01*
X143742203Y-93554116D01*
X143565707Y-93564291D01*
X143461040Y-93574459D01*
X143260246Y-93602500D01*
X144805123Y-96265580D01*
X145057328Y-96700726D01*
X145296730Y-97114546D01*
X145519986Y-97501211D01*
X145723752Y-97854894D01*
X145904683Y-98169767D01*
X146059436Y-98440003D01*
X146184667Y-98659774D01*
X146277031Y-98823251D01*
X146333185Y-98924608D01*
X146350000Y-98957898D01*
X146309522Y-98966599D01*
X146195484Y-98976086D01*
X146018984Y-98985828D01*
X145791120Y-98995292D01*
X145522988Y-99003947D01*
X145246188Y-99010824D01*
X144948954Y-99018049D01*
X144680227Y-99026199D01*
X144451421Y-99034796D01*
X144273949Y-99043364D01*
X144159224Y-99051424D01*
X144118913Y-99057977D01*
X144135046Y-99097961D01*
X144189872Y-99204605D01*
X144279696Y-99371272D01*
X144400827Y-99591328D01*
X144549571Y-99858139D01*
X144722235Y-100165070D01*
X144915126Y-100505485D01*
X145124551Y-100872750D01*
X145281618Y-101146803D01*
X145505952Y-101537542D01*
X145721134Y-101912579D01*
X145922818Y-102264326D01*
X146106659Y-102585194D01*
X146268314Y-102867596D01*
X146403437Y-103103943D01*
X146507684Y-103286647D01*
X146576710Y-103408120D01*
X146599524Y-103448655D01*
X146731262Y-103685143D01*
X144438164Y-103713238D01*
X143970968Y-103718757D01*
X143501691Y-103723916D01*
X143042401Y-103728609D01*
X142605168Y-103732728D01*
X142202059Y-103736166D01*
X141845143Y-103738814D01*
X141546488Y-103740566D01*
X141318164Y-103741314D01*
X141284199Y-103741334D01*
X140423334Y-103741334D01*
X140423334Y-106196667D01*
X138615678Y-106196667D01*
X138588173Y-105809163D01*
X138579307Y-105639560D01*
X138571629Y-105407321D01*
X138565636Y-105134476D01*
X138561824Y-104843055D01*
X138560667Y-104587918D01*
X138560667Y-103754176D01*
X135446691Y-103731168D01*
X134940898Y-103727131D01*
X134460002Y-103722712D01*
X134010677Y-103718006D01*
X133599596Y-103713112D01*
X133233430Y-103708128D01*
X132918852Y-103703149D01*
X132662536Y-103698274D01*
X132471153Y-103693600D01*
X132351376Y-103689225D01*
X132309962Y-103685406D01*
X132308327Y-103671072D01*
X132318632Y-103638378D01*
X132343515Y-103582608D01*
X132385616Y-103499050D01*
X132447574Y-103382988D01*
X132532028Y-103229708D01*
X132641616Y-103034496D01*
X132778978Y-102792638D01*
X132946752Y-102499419D01*
X133147578Y-102150125D01*
X133384095Y-101740041D01*
X133658941Y-101264454D01*
X133851053Y-100932379D01*
X134059716Y-100570807D01*
X134254275Y-100231748D01*
X134430807Y-99922171D01*
X134585391Y-99649047D01*
X134714105Y-99419346D01*
X134813028Y-99240037D01*
X134878238Y-99118091D01*
X134905814Y-99060476D01*
X134906308Y-99056863D01*
X134860597Y-99050875D01*
X134741468Y-99043714D01*
X134560152Y-99035819D01*
X134327883Y-99027627D01*
X134055892Y-99019577D01*
X133760623Y-99012223D01*
X133461760Y-99005143D01*
X133192691Y-98998202D01*
X132964398Y-98991729D01*
X132787864Y-98986055D01*
X132674070Y-98981508D01*
X132634000Y-98978431D01*
X132654626Y-98941357D01*
X132713852Y-98837978D01*
X132807699Y-98675167D01*
X132932188Y-98459800D01*
X133083340Y-98198752D01*
X133257177Y-97898898D01*
X133449719Y-97567113D01*
X133656989Y-97210272D01*
X133726486Y-97090692D01*
X134072747Y-96494780D01*
X134378551Y-95968019D01*
X134646153Y-95506457D01*
X134877808Y-95106140D01*
X135075772Y-94763115D01*
X135242297Y-94473431D01*
X135379640Y-94233133D01*
X135490055Y-94038269D01*
X135575798Y-93884886D01*
X135639121Y-93769032D01*
X135682282Y-93686754D01*
X135707533Y-93634098D01*
X135717131Y-93607111D01*
X135716608Y-93601830D01*
X135670411Y-93594203D01*
X135553934Y-93584500D01*
X135381508Y-93573650D01*
X135167467Y-93562581D01*
X134991794Y-93554841D01*
X134757917Y-93543152D01*
X134556709Y-93529081D01*
X134402031Y-93513927D01*
X134307744Y-93498984D01*
X134285000Y-93488715D01*
X134306220Y-93441226D01*
X134368854Y-93323441D01*
X134471364Y-93138026D01*
X134612214Y-92887647D01*
X134789867Y-92574971D01*
X135002784Y-92202663D01*
X135249428Y-91773390D01*
X135528262Y-91289819D01*
X135837749Y-90754617D01*
X136176351Y-90170448D01*
X136542531Y-89539981D01*
X136934751Y-88865880D01*
X137351475Y-88150813D01*
X137791164Y-87397446D01*
X138234607Y-86638667D01*
X138449793Y-86270674D01*
X138653679Y-85921965D01*
X138841950Y-85599925D01*
X139010289Y-85311940D01*
X139154381Y-85065393D01*
X139269907Y-84867671D01*
X139352552Y-84726159D01*
X139398000Y-84648241D01*
X139403540Y-84638708D01*
X139461892Y-84562220D01*
X139511229Y-84535728D01*
X139513167Y-84536218D01*
G37*
X139513167Y-84536218D02*
X139529381Y-84549214D01*
X139556963Y-84583417D01*
X139598111Y-84642532D01*
X139655022Y-84730266D01*
X139729894Y-84850325D01*
X139824926Y-85006414D01*
X139942315Y-85202239D01*
X140084258Y-85441507D01*
X140252955Y-85727923D01*
X140450602Y-86065193D01*
X140679397Y-86457023D01*
X140941539Y-86907119D01*
X141239225Y-87419187D01*
X141574654Y-87996933D01*
X141950022Y-88644063D01*
X141977721Y-88691834D01*
X142378545Y-89383202D01*
X142738934Y-90005045D01*
X143060981Y-90561043D01*
X143346784Y-91054880D01*
X143598437Y-91490237D01*
X143818037Y-91870795D01*
X144007678Y-92200239D01*
X144169458Y-92482248D01*
X144305471Y-92720507D01*
X144417813Y-92918696D01*
X144508580Y-93080498D01*
X144579868Y-93209594D01*
X144633772Y-93309668D01*
X144672388Y-93384401D01*
X144697811Y-93437475D01*
X144712138Y-93472573D01*
X144717464Y-93493376D01*
X144716138Y-93503186D01*
X144667622Y-93517260D01*
X144551616Y-93529369D01*
X144385291Y-93538252D01*
X144185820Y-93542648D01*
X144177918Y-93542709D01*
X143954881Y-93546540D01*
X143742203Y-93554116D01*
X143565707Y-93564291D01*
X143461040Y-93574459D01*
X143260246Y-93602500D01*
X144805123Y-96265580D01*
X145057328Y-96700726D01*
X145296730Y-97114546D01*
X145519986Y-97501211D01*
X145723752Y-97854894D01*
X145904683Y-98169767D01*
X146059436Y-98440003D01*
X146184667Y-98659774D01*
X146277031Y-98823251D01*
X146333185Y-98924608D01*
X146350000Y-98957898D01*
X146309522Y-98966599D01*
X146195484Y-98976086D01*
X146018984Y-98985828D01*
X145791120Y-98995292D01*
X145522988Y-99003947D01*
X145246188Y-99010824D01*
X144948954Y-99018049D01*
X144680227Y-99026199D01*
X144451421Y-99034796D01*
X144273949Y-99043364D01*
X144159224Y-99051424D01*
X144118913Y-99057977D01*
X144135046Y-99097961D01*
X144189872Y-99204605D01*
X144279696Y-99371272D01*
X144400827Y-99591328D01*
X144549571Y-99858139D01*
X144722235Y-100165070D01*
X144915126Y-100505485D01*
X145124551Y-100872750D01*
X145281618Y-101146803D01*
X145505952Y-101537542D01*
X145721134Y-101912579D01*
X145922818Y-102264326D01*
X146106659Y-102585194D01*
X146268314Y-102867596D01*
X146403437Y-103103943D01*
X146507684Y-103286647D01*
X146576710Y-103408120D01*
X146599524Y-103448655D01*
X146731262Y-103685143D01*
X144438164Y-103713238D01*
X143970968Y-103718757D01*
X143501691Y-103723916D01*
X143042401Y-103728609D01*
X142605168Y-103732728D01*
X142202059Y-103736166D01*
X141845143Y-103738814D01*
X141546488Y-103740566D01*
X141318164Y-103741314D01*
X141284199Y-103741334D01*
X140423334Y-103741334D01*
X140423334Y-106196667D01*
X138615678Y-106196667D01*
X138588173Y-105809163D01*
X138579307Y-105639560D01*
X138571629Y-105407321D01*
X138565636Y-105134476D01*
X138561824Y-104843055D01*
X138560667Y-104587918D01*
X138560667Y-103754176D01*
X135446691Y-103731168D01*
X134940898Y-103727131D01*
X134460002Y-103722712D01*
X134010677Y-103718006D01*
X133599596Y-103713112D01*
X133233430Y-103708128D01*
X132918852Y-103703149D01*
X132662536Y-103698274D01*
X132471153Y-103693600D01*
X132351376Y-103689225D01*
X132309962Y-103685406D01*
X132308327Y-103671072D01*
X132318632Y-103638378D01*
X132343515Y-103582608D01*
X132385616Y-103499050D01*
X132447574Y-103382988D01*
X132532028Y-103229708D01*
X132641616Y-103034496D01*
X132778978Y-102792638D01*
X132946752Y-102499419D01*
X133147578Y-102150125D01*
X133384095Y-101740041D01*
X133658941Y-101264454D01*
X133851053Y-100932379D01*
X134059716Y-100570807D01*
X134254275Y-100231748D01*
X134430807Y-99922171D01*
X134585391Y-99649047D01*
X134714105Y-99419346D01*
X134813028Y-99240037D01*
X134878238Y-99118091D01*
X134905814Y-99060476D01*
X134906308Y-99056863D01*
X134860597Y-99050875D01*
X134741468Y-99043714D01*
X134560152Y-99035819D01*
X134327883Y-99027627D01*
X134055892Y-99019577D01*
X133760623Y-99012223D01*
X133461760Y-99005143D01*
X133192691Y-98998202D01*
X132964398Y-98991729D01*
X132787864Y-98986055D01*
X132674070Y-98981508D01*
X132634000Y-98978431D01*
X132654626Y-98941357D01*
X132713852Y-98837978D01*
X132807699Y-98675167D01*
X132932188Y-98459800D01*
X133083340Y-98198752D01*
X133257177Y-97898898D01*
X133449719Y-97567113D01*
X133656989Y-97210272D01*
X133726486Y-97090692D01*
X134072747Y-96494780D01*
X134378551Y-95968019D01*
X134646153Y-95506457D01*
X134877808Y-95106140D01*
X135075772Y-94763115D01*
X135242297Y-94473431D01*
X135379640Y-94233133D01*
X135490055Y-94038269D01*
X135575798Y-93884886D01*
X135639121Y-93769032D01*
X135682282Y-93686754D01*
X135707533Y-93634098D01*
X135717131Y-93607111D01*
X135716608Y-93601830D01*
X135670411Y-93594203D01*
X135553934Y-93584500D01*
X135381508Y-93573650D01*
X135167467Y-93562581D01*
X134991794Y-93554841D01*
X134757917Y-93543152D01*
X134556709Y-93529081D01*
X134402031Y-93513927D01*
X134307744Y-93498984D01*
X134285000Y-93488715D01*
X134306220Y-93441226D01*
X134368854Y-93323441D01*
X134471364Y-93138026D01*
X134612214Y-92887647D01*
X134789867Y-92574971D01*
X135002784Y-92202663D01*
X135249428Y-91773390D01*
X135528262Y-91289819D01*
X135837749Y-90754617D01*
X136176351Y-90170448D01*
X136542531Y-89539981D01*
X136934751Y-88865880D01*
X137351475Y-88150813D01*
X137791164Y-87397446D01*
X138234607Y-86638667D01*
X138449793Y-86270674D01*
X138653679Y-85921965D01*
X138841950Y-85599925D01*
X139010289Y-85311940D01*
X139154381Y-85065393D01*
X139269907Y-84867671D01*
X139352552Y-84726159D01*
X139398000Y-84648241D01*
X139403540Y-84638708D01*
X139461892Y-84562220D01*
X139511229Y-84535728D01*
X139513167Y-84536218D01*
G04 #@! TO.C,REF\u002A\u002A*
G36*
X140055814Y-80968931D02*
G01*
X140139635Y-81413555D01*
X140448920Y-81541053D01*
X140758206Y-81668551D01*
X141129246Y-81416246D01*
X141233157Y-81345996D01*
X141327087Y-81283272D01*
X141406652Y-81230938D01*
X141467470Y-81191857D01*
X141505157Y-81168893D01*
X141515421Y-81163942D01*
X141533910Y-81176676D01*
X141573420Y-81211882D01*
X141629522Y-81265062D01*
X141697787Y-81331718D01*
X141773786Y-81407354D01*
X141853092Y-81487472D01*
X141931275Y-81567574D01*
X142003907Y-81643164D01*
X142066559Y-81709745D01*
X142114803Y-81762818D01*
X142144210Y-81797887D01*
X142151241Y-81809623D01*
X142141123Y-81831260D01*
X142112759Y-81878662D01*
X142069129Y-81947193D01*
X142013218Y-82032215D01*
X141948006Y-82129093D01*
X141910219Y-82184350D01*
X141841343Y-82285248D01*
X141780140Y-82376299D01*
X141729578Y-82452970D01*
X141692628Y-82510728D01*
X141672258Y-82545043D01*
X141669197Y-82552254D01*
X141676136Y-82572748D01*
X141695051Y-82620513D01*
X141723087Y-82688832D01*
X141757391Y-82770989D01*
X141795109Y-82860270D01*
X141833387Y-82949958D01*
X141869370Y-83033338D01*
X141900206Y-83103694D01*
X141923039Y-83154310D01*
X141935017Y-83178471D01*
X141935724Y-83179422D01*
X141954531Y-83184036D01*
X142004618Y-83194328D01*
X142080793Y-83209287D01*
X142177865Y-83227901D01*
X142290643Y-83249159D01*
X142356442Y-83261418D01*
X142476950Y-83284362D01*
X142585797Y-83306195D01*
X142677476Y-83325722D01*
X142746481Y-83341748D01*
X142787304Y-83353079D01*
X142795511Y-83356674D01*
X142803548Y-83381006D01*
X142810033Y-83435959D01*
X142814970Y-83515108D01*
X142818364Y-83612026D01*
X142820218Y-83720287D01*
X142820538Y-83833465D01*
X142819327Y-83945135D01*
X142816590Y-84048868D01*
X142812331Y-84138241D01*
X142806555Y-84206826D01*
X142799267Y-84248197D01*
X142794895Y-84256810D01*
X142768764Y-84267133D01*
X142713393Y-84281892D01*
X142636107Y-84299352D01*
X142544230Y-84317780D01*
X142512158Y-84323741D01*
X142357524Y-84352066D01*
X142235375Y-84374876D01*
X142141673Y-84393080D01*
X142072384Y-84407583D01*
X142023471Y-84419292D01*
X141990897Y-84429115D01*
X141970628Y-84437956D01*
X141958626Y-84446724D01*
X141956947Y-84448457D01*
X141940184Y-84476371D01*
X141914614Y-84530695D01*
X141882788Y-84604777D01*
X141847260Y-84691965D01*
X141810583Y-84785608D01*
X141775311Y-84879052D01*
X141743996Y-84965647D01*
X141719193Y-85038740D01*
X141703454Y-85091678D01*
X141699332Y-85117811D01*
X141699676Y-85118726D01*
X141713641Y-85140086D01*
X141745322Y-85187084D01*
X141791391Y-85254827D01*
X141848518Y-85338423D01*
X141913373Y-85432982D01*
X141931843Y-85459854D01*
X141997699Y-85557275D01*
X142055650Y-85646163D01*
X142102538Y-85721412D01*
X142135207Y-85777920D01*
X142150500Y-85810581D01*
X142151241Y-85814593D01*
X142138392Y-85835684D01*
X142102888Y-85877464D01*
X142049293Y-85935445D01*
X141982171Y-86005135D01*
X141906087Y-86082045D01*
X141825604Y-86161683D01*
X141745287Y-86239561D01*
X141669699Y-86311186D01*
X141603405Y-86372070D01*
X141550969Y-86417721D01*
X141516955Y-86443650D01*
X141507545Y-86447883D01*
X141485643Y-86437912D01*
X141440800Y-86411020D01*
X141380321Y-86371736D01*
X141333789Y-86340117D01*
X141249475Y-86282098D01*
X141149626Y-86213784D01*
X141049473Y-86145579D01*
X140995627Y-86109075D01*
X140813371Y-85985800D01*
X140660381Y-86068520D01*
X140590682Y-86104759D01*
X140531414Y-86132926D01*
X140491311Y-86148991D01*
X140481103Y-86151226D01*
X140468829Y-86134722D01*
X140444613Y-86088082D01*
X140410263Y-86015609D01*
X140367588Y-85921606D01*
X140318394Y-85810374D01*
X140264490Y-85686215D01*
X140207684Y-85553432D01*
X140149782Y-85416327D01*
X140092593Y-85279202D01*
X140037924Y-85146358D01*
X139987584Y-85022098D01*
X139943380Y-84910725D01*
X139907119Y-84816539D01*
X139880609Y-84743844D01*
X139865658Y-84696941D01*
X139863254Y-84680833D01*
X139882311Y-84660286D01*
X139924036Y-84626933D01*
X139979706Y-84587702D01*
X139984378Y-84584599D01*
X140128264Y-84469423D01*
X140244283Y-84335053D01*
X140331430Y-84185784D01*
X140388699Y-84025913D01*
X140415086Y-83859737D01*
X140409585Y-83691552D01*
X140371190Y-83525655D01*
X140298895Y-83366342D01*
X140277626Y-83331487D01*
X140166996Y-83190737D01*
X140036302Y-83077714D01*
X139890064Y-82993003D01*
X139732808Y-82937194D01*
X139569057Y-82910874D01*
X139403333Y-82914630D01*
X139240162Y-82949050D01*
X139084065Y-83014723D01*
X138939567Y-83112235D01*
X138894869Y-83151813D01*
X138781112Y-83275703D01*
X138698218Y-83406124D01*
X138641356Y-83552315D01*
X138609687Y-83697088D01*
X138601869Y-83859860D01*
X138627938Y-84023440D01*
X138685245Y-84182298D01*
X138771144Y-84330906D01*
X138882986Y-84463735D01*
X139018123Y-84575256D01*
X139035883Y-84587011D01*
X139092150Y-84625508D01*
X139134923Y-84658863D01*
X139155372Y-84680160D01*
X139155669Y-84680833D01*
X139151279Y-84703871D01*
X139133876Y-84756157D01*
X139105268Y-84833390D01*
X139067265Y-84931268D01*
X139021674Y-85045491D01*
X138970303Y-85171758D01*
X138914962Y-85305767D01*
X138857458Y-85443218D01*
X138799601Y-85579808D01*
X138743198Y-85711237D01*
X138690058Y-85833205D01*
X138641990Y-85941409D01*
X138600801Y-86031549D01*
X138568301Y-86099323D01*
X138546297Y-86140430D01*
X138537436Y-86151226D01*
X138510360Y-86142819D01*
X138459697Y-86120272D01*
X138394183Y-86087613D01*
X138358159Y-86068520D01*
X138205168Y-85985800D01*
X138022912Y-86109075D01*
X137929875Y-86172228D01*
X137828015Y-86241727D01*
X137732562Y-86307165D01*
X137684750Y-86340117D01*
X137617505Y-86385273D01*
X137560564Y-86421057D01*
X137521354Y-86442938D01*
X137508619Y-86447563D01*
X137490083Y-86435085D01*
X137449059Y-86400252D01*
X137389525Y-86346678D01*
X137315458Y-86277983D01*
X137230835Y-86197781D01*
X137177315Y-86146286D01*
X137083681Y-86054286D01*
X137002759Y-85971999D01*
X136937823Y-85902945D01*
X136892142Y-85850644D01*
X136868989Y-85818616D01*
X136866768Y-85812116D01*
X136877076Y-85787394D01*
X136905561Y-85737405D01*
X136949063Y-85667212D01*
X137004423Y-85581875D01*
X137068480Y-85486456D01*
X137086697Y-85459854D01*
X137153073Y-85363167D01*
X137212622Y-85276117D01*
X137262016Y-85203595D01*
X137297925Y-85150493D01*
X137317019Y-85121703D01*
X137318864Y-85118726D01*
X137316105Y-85095782D01*
X137301462Y-85045336D01*
X137277487Y-84974041D01*
X137246734Y-84888547D01*
X137211756Y-84795507D01*
X137175107Y-84701574D01*
X137139339Y-84613399D01*
X137107006Y-84537634D01*
X137080662Y-84480931D01*
X137062858Y-84449943D01*
X137061593Y-84448457D01*
X137050706Y-84439601D01*
X137032318Y-84430843D01*
X137002394Y-84421277D01*
X136956897Y-84409996D01*
X136891791Y-84396093D01*
X136803039Y-84378663D01*
X136686607Y-84356798D01*
X136538458Y-84329591D01*
X136506382Y-84323741D01*
X136411314Y-84305374D01*
X136328435Y-84287405D01*
X136265070Y-84271569D01*
X136228542Y-84259600D01*
X136223644Y-84256810D01*
X136215573Y-84232072D01*
X136209013Y-84176790D01*
X136203967Y-84097389D01*
X136200441Y-84000296D01*
X136198439Y-83891938D01*
X136197964Y-83778740D01*
X136199023Y-83667128D01*
X136201618Y-83563529D01*
X136205754Y-83474368D01*
X136211437Y-83406072D01*
X136218669Y-83365066D01*
X136223029Y-83356674D01*
X136247302Y-83348208D01*
X136302574Y-83334435D01*
X136383338Y-83316550D01*
X136484088Y-83295748D01*
X136599317Y-83273223D01*
X136662098Y-83261418D01*
X136781213Y-83239151D01*
X136887435Y-83218979D01*
X136975573Y-83201915D01*
X137040434Y-83188969D01*
X137076826Y-83181155D01*
X137082816Y-83179422D01*
X137092939Y-83159890D01*
X137114338Y-83112843D01*
X137144161Y-83045003D01*
X137179555Y-82963091D01*
X137217668Y-82873828D01*
X137255647Y-82783935D01*
X137290640Y-82700135D01*
X137319794Y-82629147D01*
X137340257Y-82577694D01*
X137349177Y-82552497D01*
X137349343Y-82551396D01*
X137339231Y-82531519D01*
X137310883Y-82485777D01*
X137267277Y-82418717D01*
X137211394Y-82334884D01*
X137146213Y-82238826D01*
X137108321Y-82183650D01*
X137039275Y-82082481D01*
X136977950Y-81990630D01*
X136927337Y-81912744D01*
X136890429Y-81853469D01*
X136870218Y-81817451D01*
X136867299Y-81809377D01*
X136879847Y-81790584D01*
X136914537Y-81750457D01*
X136966937Y-81693493D01*
X137032616Y-81624185D01*
X137107144Y-81547031D01*
X137186087Y-81466525D01*
X137265017Y-81387163D01*
X137339500Y-81313440D01*
X137405106Y-81249852D01*
X137457404Y-81200894D01*
X137491961Y-81171061D01*
X137503522Y-81163942D01*
X137522346Y-81173953D01*
X137567369Y-81202078D01*
X137634213Y-81245454D01*
X137718501Y-81301218D01*
X137815856Y-81366506D01*
X137889293Y-81416246D01*
X138260333Y-81668551D01*
X138878905Y-81413555D01*
X138962725Y-80968931D01*
X139046546Y-80524307D01*
X139971994Y-80524307D01*
X140055814Y-80968931D01*
G37*
X140055814Y-80968931D02*
X140139635Y-81413555D01*
X140448920Y-81541053D01*
X140758206Y-81668551D01*
X141129246Y-81416246D01*
X141233157Y-81345996D01*
X141327087Y-81283272D01*
X141406652Y-81230938D01*
X141467470Y-81191857D01*
X141505157Y-81168893D01*
X141515421Y-81163942D01*
X141533910Y-81176676D01*
X141573420Y-81211882D01*
X141629522Y-81265062D01*
X141697787Y-81331718D01*
X141773786Y-81407354D01*
X141853092Y-81487472D01*
X141931275Y-81567574D01*
X142003907Y-81643164D01*
X142066559Y-81709745D01*
X142114803Y-81762818D01*
X142144210Y-81797887D01*
X142151241Y-81809623D01*
X142141123Y-81831260D01*
X142112759Y-81878662D01*
X142069129Y-81947193D01*
X142013218Y-82032215D01*
X141948006Y-82129093D01*
X141910219Y-82184350D01*
X141841343Y-82285248D01*
X141780140Y-82376299D01*
X141729578Y-82452970D01*
X141692628Y-82510728D01*
X141672258Y-82545043D01*
X141669197Y-82552254D01*
X141676136Y-82572748D01*
X141695051Y-82620513D01*
X141723087Y-82688832D01*
X141757391Y-82770989D01*
X141795109Y-82860270D01*
X141833387Y-82949958D01*
X141869370Y-83033338D01*
X141900206Y-83103694D01*
X141923039Y-83154310D01*
X141935017Y-83178471D01*
X141935724Y-83179422D01*
X141954531Y-83184036D01*
X142004618Y-83194328D01*
X142080793Y-83209287D01*
X142177865Y-83227901D01*
X142290643Y-83249159D01*
X142356442Y-83261418D01*
X142476950Y-83284362D01*
X142585797Y-83306195D01*
X142677476Y-83325722D01*
X142746481Y-83341748D01*
X142787304Y-83353079D01*
X142795511Y-83356674D01*
X142803548Y-83381006D01*
X142810033Y-83435959D01*
X142814970Y-83515108D01*
X142818364Y-83612026D01*
X142820218Y-83720287D01*
X142820538Y-83833465D01*
X142819327Y-83945135D01*
X142816590Y-84048868D01*
X142812331Y-84138241D01*
X142806555Y-84206826D01*
X142799267Y-84248197D01*
X142794895Y-84256810D01*
X142768764Y-84267133D01*
X142713393Y-84281892D01*
X142636107Y-84299352D01*
X142544230Y-84317780D01*
X142512158Y-84323741D01*
X142357524Y-84352066D01*
X142235375Y-84374876D01*
X142141673Y-84393080D01*
X142072384Y-84407583D01*
X142023471Y-84419292D01*
X141990897Y-84429115D01*
X141970628Y-84437956D01*
X141958626Y-84446724D01*
X141956947Y-84448457D01*
X141940184Y-84476371D01*
X141914614Y-84530695D01*
X141882788Y-84604777D01*
X141847260Y-84691965D01*
X141810583Y-84785608D01*
X141775311Y-84879052D01*
X141743996Y-84965647D01*
X141719193Y-85038740D01*
X141703454Y-85091678D01*
X141699332Y-85117811D01*
X141699676Y-85118726D01*
X141713641Y-85140086D01*
X141745322Y-85187084D01*
X141791391Y-85254827D01*
X141848518Y-85338423D01*
X141913373Y-85432982D01*
X141931843Y-85459854D01*
X141997699Y-85557275D01*
X142055650Y-85646163D01*
X142102538Y-85721412D01*
X142135207Y-85777920D01*
X142150500Y-85810581D01*
X142151241Y-85814593D01*
X142138392Y-85835684D01*
X142102888Y-85877464D01*
X142049293Y-85935445D01*
X141982171Y-86005135D01*
X141906087Y-86082045D01*
X141825604Y-86161683D01*
X141745287Y-86239561D01*
X141669699Y-86311186D01*
X141603405Y-86372070D01*
X141550969Y-86417721D01*
X141516955Y-86443650D01*
X141507545Y-86447883D01*
X141485643Y-86437912D01*
X141440800Y-86411020D01*
X141380321Y-86371736D01*
X141333789Y-86340117D01*
X141249475Y-86282098D01*
X141149626Y-86213784D01*
X141049473Y-86145579D01*
X140995627Y-86109075D01*
X140813371Y-85985800D01*
X140660381Y-86068520D01*
X140590682Y-86104759D01*
X140531414Y-86132926D01*
X140491311Y-86148991D01*
X140481103Y-86151226D01*
X140468829Y-86134722D01*
X140444613Y-86088082D01*
X140410263Y-86015609D01*
X140367588Y-85921606D01*
X140318394Y-85810374D01*
X140264490Y-85686215D01*
X140207684Y-85553432D01*
X140149782Y-85416327D01*
X140092593Y-85279202D01*
X140037924Y-85146358D01*
X139987584Y-85022098D01*
X139943380Y-84910725D01*
X139907119Y-84816539D01*
X139880609Y-84743844D01*
X139865658Y-84696941D01*
X139863254Y-84680833D01*
X139882311Y-84660286D01*
X139924036Y-84626933D01*
X139979706Y-84587702D01*
X139984378Y-84584599D01*
X140128264Y-84469423D01*
X140244283Y-84335053D01*
X140331430Y-84185784D01*
X140388699Y-84025913D01*
X140415086Y-83859737D01*
X140409585Y-83691552D01*
X140371190Y-83525655D01*
X140298895Y-83366342D01*
X140277626Y-83331487D01*
X140166996Y-83190737D01*
X140036302Y-83077714D01*
X139890064Y-82993003D01*
X139732808Y-82937194D01*
X139569057Y-82910874D01*
X139403333Y-82914630D01*
X139240162Y-82949050D01*
X139084065Y-83014723D01*
X138939567Y-83112235D01*
X138894869Y-83151813D01*
X138781112Y-83275703D01*
X138698218Y-83406124D01*
X138641356Y-83552315D01*
X138609687Y-83697088D01*
X138601869Y-83859860D01*
X138627938Y-84023440D01*
X138685245Y-84182298D01*
X138771144Y-84330906D01*
X138882986Y-84463735D01*
X139018123Y-84575256D01*
X139035883Y-84587011D01*
X139092150Y-84625508D01*
X139134923Y-84658863D01*
X139155372Y-84680160D01*
X139155669Y-84680833D01*
X139151279Y-84703871D01*
X139133876Y-84756157D01*
X139105268Y-84833390D01*
X139067265Y-84931268D01*
X139021674Y-85045491D01*
X138970303Y-85171758D01*
X138914962Y-85305767D01*
X138857458Y-85443218D01*
X138799601Y-85579808D01*
X138743198Y-85711237D01*
X138690058Y-85833205D01*
X138641990Y-85941409D01*
X138600801Y-86031549D01*
X138568301Y-86099323D01*
X138546297Y-86140430D01*
X138537436Y-86151226D01*
X138510360Y-86142819D01*
X138459697Y-86120272D01*
X138394183Y-86087613D01*
X138358159Y-86068520D01*
X138205168Y-85985800D01*
X138022912Y-86109075D01*
X137929875Y-86172228D01*
X137828015Y-86241727D01*
X137732562Y-86307165D01*
X137684750Y-86340117D01*
X137617505Y-86385273D01*
X137560564Y-86421057D01*
X137521354Y-86442938D01*
X137508619Y-86447563D01*
X137490083Y-86435085D01*
X137449059Y-86400252D01*
X137389525Y-86346678D01*
X137315458Y-86277983D01*
X137230835Y-86197781D01*
X137177315Y-86146286D01*
X137083681Y-86054286D01*
X137002759Y-85971999D01*
X136937823Y-85902945D01*
X136892142Y-85850644D01*
X136868989Y-85818616D01*
X136866768Y-85812116D01*
X136877076Y-85787394D01*
X136905561Y-85737405D01*
X136949063Y-85667212D01*
X137004423Y-85581875D01*
X137068480Y-85486456D01*
X137086697Y-85459854D01*
X137153073Y-85363167D01*
X137212622Y-85276117D01*
X137262016Y-85203595D01*
X137297925Y-85150493D01*
X137317019Y-85121703D01*
X137318864Y-85118726D01*
X137316105Y-85095782D01*
X137301462Y-85045336D01*
X137277487Y-84974041D01*
X137246734Y-84888547D01*
X137211756Y-84795507D01*
X137175107Y-84701574D01*
X137139339Y-84613399D01*
X137107006Y-84537634D01*
X137080662Y-84480931D01*
X137062858Y-84449943D01*
X137061593Y-84448457D01*
X137050706Y-84439601D01*
X137032318Y-84430843D01*
X137002394Y-84421277D01*
X136956897Y-84409996D01*
X136891791Y-84396093D01*
X136803039Y-84378663D01*
X136686607Y-84356798D01*
X136538458Y-84329591D01*
X136506382Y-84323741D01*
X136411314Y-84305374D01*
X136328435Y-84287405D01*
X136265070Y-84271569D01*
X136228542Y-84259600D01*
X136223644Y-84256810D01*
X136215573Y-84232072D01*
X136209013Y-84176790D01*
X136203967Y-84097389D01*
X136200441Y-84000296D01*
X136198439Y-83891938D01*
X136197964Y-83778740D01*
X136199023Y-83667128D01*
X136201618Y-83563529D01*
X136205754Y-83474368D01*
X136211437Y-83406072D01*
X136218669Y-83365066D01*
X136223029Y-83356674D01*
X136247302Y-83348208D01*
X136302574Y-83334435D01*
X136383338Y-83316550D01*
X136484088Y-83295748D01*
X136599317Y-83273223D01*
X136662098Y-83261418D01*
X136781213Y-83239151D01*
X136887435Y-83218979D01*
X136975573Y-83201915D01*
X137040434Y-83188969D01*
X137076826Y-83181155D01*
X137082816Y-83179422D01*
X137092939Y-83159890D01*
X137114338Y-83112843D01*
X137144161Y-83045003D01*
X137179555Y-82963091D01*
X137217668Y-82873828D01*
X137255647Y-82783935D01*
X137290640Y-82700135D01*
X137319794Y-82629147D01*
X137340257Y-82577694D01*
X137349177Y-82552497D01*
X137349343Y-82551396D01*
X137339231Y-82531519D01*
X137310883Y-82485777D01*
X137267277Y-82418717D01*
X137211394Y-82334884D01*
X137146213Y-82238826D01*
X137108321Y-82183650D01*
X137039275Y-82082481D01*
X136977950Y-81990630D01*
X136927337Y-81912744D01*
X136890429Y-81853469D01*
X136870218Y-81817451D01*
X136867299Y-81809377D01*
X136879847Y-81790584D01*
X136914537Y-81750457D01*
X136966937Y-81693493D01*
X137032616Y-81624185D01*
X137107144Y-81547031D01*
X137186087Y-81466525D01*
X137265017Y-81387163D01*
X137339500Y-81313440D01*
X137405106Y-81249852D01*
X137457404Y-81200894D01*
X137491961Y-81171061D01*
X137503522Y-81163942D01*
X137522346Y-81173953D01*
X137567369Y-81202078D01*
X137634213Y-81245454D01*
X137718501Y-81301218D01*
X137815856Y-81366506D01*
X137889293Y-81416246D01*
X138260333Y-81668551D01*
X138878905Y-81413555D01*
X138962725Y-80968931D01*
X139046546Y-80524307D01*
X139971994Y-80524307D01*
X140055814Y-80968931D01*
G04 #@! TD*
M02*
